<svg width="20" height="20" viewBox="0 0 20 20" fill="none" xmlns="http://www.w3.org/2000/svg">
<path fill-rule="evenodd" clip-rule="evenodd" d="M13.9306 1.0712C16.6909 1.0712 18.9284 3.31048 18.9284 6.06905V13.9305C18.9284 16.6908 16.6891 18.9283 13.9306 18.9283H6.06915C3.30879 18.9283 1.07129 16.6891 1.07129 13.9305V6.06905C1.07129 3.3087 3.31057 1.0712 6.06915 1.0712H13.9306ZM9.99986 5.35691C7.43558 5.35691 5.357 7.43548 5.357 9.99977C5.357 12.5641 7.43558 14.6426 9.99986 14.6426C12.5641 14.6426 14.6427 12.5641 14.6427 9.99977C14.6427 7.43548 12.5641 5.35691 9.99986 5.35691ZM9.99986 6.78548C10.422 6.78548 10.8399 6.86862 11.2299 7.03016C11.6199 7.19169 11.9742 7.42845 12.2727 7.72693C12.5712 8.0254 12.8079 8.37974 12.9695 8.76972C13.131 9.15969 13.2141 9.57766 13.2141 9.99977C13.2141 10.4219 13.131 10.8398 12.9695 11.2298C12.8079 11.6198 12.5712 11.9741 12.2727 12.2726C11.9742 12.5711 11.6199 12.8078 11.2299 12.9694C10.8399 13.1309 10.422 13.2141 9.99986 13.2141C9.14738 13.2141 8.32981 12.8754 7.72702 12.2726C7.12422 11.6698 6.78557 10.8523 6.78557 9.99977C6.78557 9.14729 7.12422 8.32972 7.72702 7.72693C8.32981 7.12413 9.14738 6.78548 9.99986 6.78548ZM15.1784 3.5712C14.8469 3.5712 14.529 3.70289 14.2945 3.93731C14.0601 4.17173 13.9284 4.48968 13.9284 4.8212C13.9284 5.15272 14.0601 5.47066 14.2945 5.70508C14.529 5.9395 14.8469 6.0712 15.1784 6.0712C15.51 6.0712 15.8279 5.9395 16.0623 5.70508C16.2967 5.47066 16.4284 5.15272 16.4284 4.8212C16.4284 4.48968 16.2967 4.17173 16.0623 3.93731C15.8279 3.70289 15.51 3.5712 15.1784 3.5712Z" fill="white"/>
</svg>
