<svg width="16" height="16" viewBox="0 0 16 16" fill="none" xmlns="http://www.w3.org/2000/svg">
<path fill-rule="evenodd" clip-rule="evenodd" d="M6.28616 5.9791H8.76216V7.21243C9.11883 6.5031 10.0335 5.86577 11.4075 5.86577C14.0415 5.86577 14.6668 7.27777 14.6668 9.86843V14.6664H12.0002V10.4584C12.0002 8.9831 11.6435 8.1511 10.7355 8.1511C9.47616 8.1511 8.95283 9.04777 8.95283 10.4578V14.6664H6.28616V5.9791ZM1.7135 14.5531H4.38016V5.86577H1.7135V14.5531ZM4.76216 3.0331C4.76226 3.25662 4.71793 3.47792 4.63175 3.68416C4.54558 3.89039 4.41926 4.07744 4.26016 4.23443C4.10059 4.39318 3.9113 4.51892 3.70311 4.60449C3.49492 4.69005 3.27191 4.73375 3.04683 4.7331C2.59323 4.73208 2.15811 4.55329 1.83483 4.2351C1.67636 4.07753 1.55052 3.89026 1.46449 3.68401C1.37847 3.47776 1.33395 3.25657 1.3335 3.0331C1.3335 2.58177 1.5135 2.14977 1.8355 1.8311C2.15796 1.51169 2.59361 1.33268 3.0475 1.3331C3.50216 1.3331 3.93816 1.51243 4.26016 1.8311C4.58216 2.14977 4.76216 2.58177 4.76216 3.0331Z" fill="white"/>
</svg>
