<svg width="1728" height="352" viewBox="0 0 1728 352" fill="none" xmlns="http://www.w3.org/2000/svg">
<path d="M-95.2519 153.302C-16.7006 160.564 70.6708 162.539 165.083 157.75C529.11 139.282 658.513 133.687 660.085 152.256C660.972 162.74 620.528 180.484 558.354 207.76C534.747 218.117 507.968 229.863 478.807 243.252C432.052 264.718 385.678 283.861 344.684 300.782C266.031 333.248 207.275 357.502 203.602 374.263C199.554 392.751 263.559 402.523 444.057 404.923C483.559 405.449 520.497 405.756 554.344 406.037C680.059 407.088 763.156 407.779 804.819 418.434C873.309 435.954 830.269 479.507 680.29 593.497C547.686 694.283 471.509 759.916 484.144 796.089C496.679 831.982 597.845 838.906 819.923 822.59C1043.63 806.154 1171.13 798.495 1213.07 811.92C1255.71 825.57 1211.31 860.078 1090.68 927.847C1072.9 937.836 1055.05 947.741 1037.65 957.396C926.371 1019.14 833.402 1070.72 841.393 1099.16C848.709 1125.23 941.838 1132.06 1185.57 1109.77C1461.86 1084.51 1638.29 1071.27 1710.56 1083.71C1784.02 1096.35 1751.68 1134.71 1609.17 1212.53C1546.37 1246.83 1483.88 1277.65 1430.38 1304.03C1337.73 1349.72 1272.21 1382.04 1279.39 1395.45C1286.63 1408.96 1368.85 1403.71 1573.7 1374.3C1731.94 1351.59 1851.27 1338.45 1933.43 1334.93L1933.14 1336.54C1851.54 1340.07 1732.58 1353.2 1574.55 1375.89C1367.16 1405.66 1283.69 1410.56 1275.87 1395.96C1268.21 1381.66 1334.33 1349.05 1427.83 1302.94C1481.3 1276.58 1543.77 1245.77 1606.48 1211.52C1746.69 1134.95 1779.3 1097.35 1709.07 1085.26C1637.64 1072.97 1461.7 1086.2 1186.04 1111.41C939.662 1133.93 845.403 1126.59 837.794 1099.5C829.598 1070.32 923.069 1018.46 1034.94 956.39C1052.2 946.809 1069.91 936.983 1087.95 926.848C1206.85 860.049 1251.08 826.182 1210.86 813.309C1169.94 800.208 1043.04 807.867 820.244 824.234C595.818 840.721 493.49 833.449 480.572 796.47C467.754 759.773 544.169 693.843 677.232 592.712C825.787 479.803 868.728 436.743 802.884 419.901C761.966 409.434 679.212 408.746 554.02 407.702C520.483 407.422 483.884 407.119 443.686 406.583C260.558 404.148 195.715 393.823 200.006 374.21C203.828 356.772 263.069 332.318 342.371 299.585C383.272 282.702 429.54 263.603 476.336 242.117C505.125 228.901 532.14 217.05 555.953 206.602C617.355 179.667 657.29 162.144 656.472 152.445C655.03 135.443 526.589 141.069 165.232 159.403C70.7004 164.198 -16.821 162.239 -95.5508 154.996L-95.2524 153.302L-95.2519 153.302Z" fill="#DDDFE1" fill-opacity="0.04"/>
<path d="M-93.4525 143.095C-16.1584 148.809 69.3053 149.532 161.37 143.955C517.382 122.389 644.118 117.652 646.782 137.878C648.373 149.97 605.084 170.57 539.766 201.652C514.615 213.619 486.176 227.152 455.712 242.375C416.015 262.207 378.027 279.963 344.283 295.734C266.149 332.255 210.82 358.115 209.401 374.576C207.768 393.575 279.173 400.461 472.751 397.578C497.468 397.21 521.069 396.817 543.54 396.443C696.406 393.905 797.271 392.23 844.9 404.852C914.021 423.173 871.423 470.775 713.031 587.585C571.578 691.905 498.839 758.596 518.698 793.307C538.422 827.786 650.686 830.744 879.31 807.845C1109.64 784.771 1236.02 776.987 1273.2 793.239C1310.77 809.665 1258.05 849.842 1129.95 922.592L1111.85 932.865C980.626 1007.31 873.109 1068.31 885.177 1098.94C895.516 1125.19 994.809 1129.29 1244.58 1100.65C1522.5 1068.78 1701.72 1049.79 1776.33 1059.32C1852.3 1069.01 1821.87 1107.3 1679.05 1189.92C1613.19 1228.02 1545.89 1262.83 1488.26 1292.64C1392.4 1342.23 1323.4 1377.92 1332.48 1391.43C1341.27 1404.51 1424.57 1397.15 1629.95 1362.01C1755.52 1340.53 1857.45 1325.34 1936.67 1316.51L1936.38 1318.18C1857.6 1327.01 1756.1 1342.16 1631 1363.56C1423.11 1399.12 1338.52 1406.15 1329.02 1392.02C1319.34 1377.61 1388.93 1341.61 1485.63 1291.59C1543.2 1261.81 1610.43 1227.03 1676.28 1188.94C1816.72 1107.7 1847.53 1070.16 1775.13 1060.92C1701.35 1051.5 1522.56 1070.45 1245.22 1102.26C992.852 1131.2 892.357 1126.63 881.612 1099.35C869.245 1067.95 977.267 1006.67 1109.1 931.873L1127.2 921.601C1253.86 849.673 1306.36 810.114 1270.61 794.481C1234.46 778.68 1108.95 786.514 879.832 809.464C649.001 832.589 535.504 829.332 515.197 793.834C495.024 758.571 567.981 691.511 709.995 586.779C866.947 471.032 909.581 423.977 842.922 406.309C796.126 393.906 695.671 395.576 543.418 398.104C520.943 398.477 497.33 398.87 472.607 399.24C276.396 402.16 204.052 394.799 205.788 374.629C207.264 357.495 263.035 331.429 341.8 294.616C375.492 278.867 413.414 261.142 453.135 241.297C483.551 226.101 512.052 212.536 537.26 200.542C601.858 169.804 644.667 149.433 643.17 138.098C640.696 119.308 514.934 124.197 161.589 145.6C69.3739 151.186 -16.2589 150.476 -93.7492 144.772L-93.4536 143.095L-93.4525 143.095Z" fill="#DDDFE1" fill-opacity="0.04"/>
<path d="M-91.6283 132.738C-16.1547 136.886 66.773 136.382 155.793 130.112C503.92 105.593 628.323 101.521 632.214 123.247C634.665 136.895 588.993 160.337 521.203 195.13C494.449 208.863 464.219 224.379 432.016 241.818C402.855 257.611 375.239 272.109 350.12 285.294C267.281 328.779 211.713 357.949 212.499 374.953C213.422 394.891 293.296 398.496 500.382 389.653L520.151 388.807C705.632 380.865 828.652 375.595 883.337 390.505C953.467 409.618 911.526 461.146 744.956 581.09C594.897 689.145 525.667 756.853 552.63 789.984C579.446 822.934 702.531 821.731 937.206 792.13C1173.68 762.3 1298.96 754.416 1331.62 773.596C1364.43 792.866 1303.88 838.866 1168.66 916.768C1034.27 994.19 929.022 1057.1 926.965 1090.84C924.932 1124.18 1025.63 1128.89 1302.78 1090.66C1581.85 1052.17 1763.42 1027.4 1840.15 1033.99C1918.4 1040.7 1889.85 1078.9 1747.1 1166.33C1678.34 1208.44 1606.13 1247.56 1544.36 1281.03C1445.92 1334.37 1374.09 1373.3 1384.9 1386.72C1395.06 1399.32 1479.36 1389.77 1685.26 1349.04C1783.83 1329.55 1868.28 1314.09 1939.1 1302.71L1938.8 1304.45C1868.41 1315.8 1784.47 1331.18 1686.49 1350.56C1478.13 1391.77 1392.47 1401.02 1381.5 1387.39C1369.95 1373.06 1442.4 1333.81 1541.68 1280.01C1603.36 1246.59 1675.45 1207.53 1744.26 1165.39C1884.57 1079.46 1913.59 1042 1839.24 1035.62C1763.36 1029.11 1582.14 1053.83 1303.58 1092.25C1023.1 1130.94 921.231 1125.62 923.351 1090.92C925.444 1056.62 1031.05 993.47 1165.9 915.787C1299.9 838.585 1360.2 793.175 1328.71 774.683C1297.07 756.102 1172.88 764.095 937.93 793.73C701.187 823.594 576.814 824.555 549.237 790.662C521.803 756.954 591.221 688.799 741.943 580.265C907.051 461.372 949.143 410.437 881.322 391.952C827.584 377.302 705.021 382.55 520.231 390.463L500.461 391.31C290.756 400.264 209.858 396.273 208.88 375.11C208.064 357.431 264.031 328.051 347.474 284.249C372.49 271.117 399.996 256.677 429.329 240.792C461.396 223.427 491.732 207.853 518.586 194.07C585.703 159.622 630.92 136.412 628.606 123.503C624.956 103.133 501.553 107.423 156.094 131.754C66.8875 138.039 -16.2361 138.553 -91.923 134.407L-91.6289 132.738L-91.6283 132.738Z" fill="#DDDFE1" fill-opacity="0.04"/>
<path d="M-89.7651 122.16C-16.6854 124.765 63.0708 123.103 148.364 116.251C488.736 88.9094 611.084 85.3419 616.321 108.404C619.756 123.546 572.108 149.813 502.407 188.239C473.882 203.964 441.646 221.738 407.739 241.582C392.948 250.239 378.775 258.482 365.295 266.318C269.923 321.764 209.507 356.887 212.83 375.48C216.642 396.824 306.344 396.67 526.919 381.162C747.372 365.665 889.031 357.431 936.182 381.42C983.417 405.452 935.359 461.369 776.028 574.015C617.636 685.999 551.976 754.686 585.919 786.126C619.733 817.437 753.334 811.876 993.57 775.471C1235.69 738.776 1359.88 730.819 1388.27 753.014C1416.63 775.193 1348.74 827.157 1206.79 910.376C1065.61 993.138 964.842 1058.21 969.087 1091.16C973.28 1123.73 1082.16 1124.68 1360.11 1079.83L1404.39 1072.68C1700.04 1024.92 1879.26 995.972 1930.83 1011.87C1971.28 1024.34 1933.88 1063.6 1813.27 1141.79C1741.7 1188.18 1664.61 1231.89 1598.79 1269.21C1498.36 1326.15 1424.3 1368.14 1436.66 1381.33C1448 1393.42 1533.22 1381.62 1739.62 1335.4C1814.59 1318.61 1881.61 1304.26 1940.93 1292.35L1940.61 1294.16C1881.77 1306 1815.32 1320.25 1741.03 1336.89C1532.2 1383.65 1445.59 1395.17 1433.32 1382.09C1420.1 1367.98 1494.78 1325.63 1596.05 1268.21C1661.85 1230.9 1738.93 1187.2 1810.37 1140.89C1929.49 1063.68 1967.04 1025.1 1928.67 1013.27C1878.53 997.813 1699.95 1026.66 1405.38 1074.25L1361.09 1081.4C1080.01 1126.75 969.836 1125.26 965.471 1091.38C961.153 1057.88 1062.3 992.485 1204 909.413C1344.93 826.797 1412.55 775.386 1385.12 753.93C1357.7 732.492 1234.76 740.631 994.486 777.044C752.317 813.744 617.382 819.111 582.656 786.951C548.065 754.918 613.86 685.718 773.036 573.181C931.273 461.307 979.369 405.957 933.424 382.582C887.393 359.165 746.527 367.385 527.211 382.802C304.067 398.49 213.271 398.353 209.231 375.731C205.792 356.47 266.568 321.132 362.524 265.348C376.002 257.512 390.176 249.268 404.968 240.612C438.946 220.725 471.183 202.952 499.707 187.228C568.777 149.15 615.993 123.122 612.72 108.695C607.774 86.9248 486.452 90.7605 148.732 117.89C63.2245 124.76 -16.7501 126.429 -90.0583 123.827L-89.7651 122.16Z" fill="#DDDFE1" fill-opacity="0.04"/>
<path d="M1986.8 1031.97C1965.93 1052.78 1929.66 1080.53 1877.5 1116.33C1803.53 1167.08 1721.46 1215.74 1651.63 1257.14C1549.73 1317.55 1474.02 1362.44 1487.75 1375.29C1500.11 1386.85 1586.14 1372.76 1792.98 1321.11C1846.69 1307.69 1896.41 1295.58 1942.27 1284.76L1941.93 1286.65C1896.63 1297.35 1847.53 1309.32 1794.53 1322.55C1585.33 1374.8 1497.86 1388.63 1484.48 1376.11C1469.76 1362.34 1546.11 1317.08 1648.84 1256.18C1718.6 1214.82 1800.59 1166.21 1874.54 1115.47C1930.14 1077.31 1967.6 1048.45 1987.59 1027.53L1986.8 1031.97ZM-87.8525 111.304C-17.7761 112.423 58.1656 109.703 139.052 102.403C471.835 72.3649 592.36 69.1554 599.031 93.4033C603.591 109.978 554.332 139.046 483.19 181.031C452.924 198.891 418.685 219.098 382.912 241.683C262.649 317.603 195.299 361.167 212.692 380.034C230.024 398.843 332.601 393.616 552.308 372.121C773.575 350.479 920.53 340.527 970.685 365.351C1020.92 390.217 973.669 449.569 806.204 566.382C639.748 682.492 577.721 752.116 618.522 781.754C659.221 811.314 803.036 801.203 1048.33 757.89C1295.59 714.232 1418.71 706.216 1443.08 731.506C1467.32 756.672 1392.58 814.744 1244.29 903.437C1096.74 991.684 1000.6 1058.86 1011.08 1090.9C1021.46 1122.61 1138.26 1119.65 1416.54 1068.18C1445.12 1062.89 1477.84 1056.8 1509.1 1050.99C1779.57 1000.7 1944.54 970.034 1993.04 984.025C1993.77 984.234 1994.46 984.457 1995.13 984.686L1994.77 986.764C1993.6 986.288 1992.33 985.847 1990.96 985.45C1943.96 971.893 1779.64 1002.44 1510.25 1052.53C1482.31 1057.72 1453.31 1063.11 1417.68 1069.71C1136.47 1121.73 1018.29 1124.21 1007.51 1091.27C996.83 1058.66 1093.33 991.092 1241.49 902.48C1388.9 814.318 1463.35 756.768 1439.76 732.27C1416.27 707.895 1294.53 716.159 1049.41 759.44C802.331 803.069 657.162 813.027 615.429 782.714C573.795 752.475 635.882 682.272 803.232 565.541C969.573 449.512 1016.92 390.762 967.963 366.531C918.926 342.264 772.897 352.219 552.818 373.749C331.188 395.428 227.545 400.522 209.345 380.773C191.19 361.083 258.971 317.201 380.049 240.766C415.809 218.188 450.097 197.953 480.4 180.071C550.958 138.431 599.813 109.599 595.447 93.7295C589.117 70.7258 469.641 74.2332 139.509 104.033C58.3724 111.355 -17.82 114.083 -88.1451 112.965L-87.8525 111.304Z" fill="#DDDFE1" fill-opacity="0.04"/>
<path d="M1982.16 1058.31C1969.46 1068.09 1955.32 1078.63 1939.72 1089.96C1863.59 1145.29 1776.63 1199.17 1702.96 1244.81C1600.1 1308.55 1523.25 1356.16 1538.17 1368.59C1551.4 1379.61 1638.13 1363.21 1845.29 1306.17C1879.5 1296.75 1912.11 1287.88 1943.18 1279.55L1942.84 1281.51C1912.39 1289.67 1880.45 1298.36 1846.99 1307.58C1637.52 1365.26 1549.32 1381.43 1534.97 1369.47C1518.96 1356.14 1596.42 1308.13 1700.12 1243.89C1773.74 1198.27 1860.64 1144.42 1936.71 1089.15C1953.83 1076.71 1969.17 1065.25 1982.8 1054.71L1982.16 1058.31L1982.16 1058.31ZM-85.8778 100.099C-19.4242 99.8314 52.0663 96.1878 127.879 88.5878C453.218 55.9728 572.119 52.9922 580.302 78.2878C586.11 96.2227 535.566 128.074 463.385 173.558C431.369 193.729 395.079 216.6 357.549 242.119C238.016 323.4 182.853 367.43 212.125 383.981C241.519 400.592 356.268 390.177 576.523 362.552C798.142 334.758 950.307 322.989 1003.58 348.602C1056.92 374.249 1010.77 437.031 835.467 558.202C661.236 678.625 602.9 749.148 650.414 776.869C697.884 804.565 851.581 789.727 1101.42 739.416C1353.31 688.692 1475.39 680.639 1495.99 709.095C1516.43 737.321 1435.38 801.631 1281.14 895.946C1127.63 989.819 1036.28 1059.04 1052.95 1090.07C1069.46 1120.81 1193.87 1113.81 1472 1055.69C1519.51 1045.76 1563.46 1036.49 1604.74 1027.77C1793.48 987.927 1926.94 959.757 2000.59 953.747L2000.3 955.347C1927.72 961.365 1794.59 989.468 1606.05 1029.27C1564.18 1038.11 1519.59 1047.52 1473.3 1057.2C1192.45 1115.88 1066.56 1122.48 1049.43 1090.58C1032.45 1058.96 1124.13 989.292 1278.31 895.006C1431.77 801.162 1512.54 737.341 1492.55 709.721C1472.72 682.328 1352.1 690.703 1102.67 740.93C851.18 791.575 696.106 806.31 647.511 777.955C598.957 749.629 657.251 678.474 832.491 557.35C1006.65 436.978 1052.95 374.826 1000.88 349.795C948.738 324.723 797.619 336.517 577.247 364.154C355.509 391.964 239.799 402.345 209.262 385.083C178.607 367.755 234.038 323.235 354.595 241.257C392.147 215.723 428.474 192.833 460.515 172.642C532.153 127.502 582.311 95.8947 576.727 78.6431C568.932 54.5599 451.107 57.8599 128.399 90.2105C52.3111 97.837 -19.4525 101.492 -86.1712 101.758L-85.8789 100.099L-85.8778 100.099Z" fill="#DDDFE1" fill-opacity="0.04"/>
<path d="M1978.53 1078.92C1905.56 1133.35 1823.21 1186.67 1752.82 1232.25C1649.46 1299.16 1571.98 1349.32 1587.89 1361.26C1601.86 1371.75 1689.17 1353.01 1896.53 1290.6C1912.61 1285.76 1928.33 1281.05 1943.73 1276.47L1943.37 1278.48C1928.68 1282.87 1913.68 1287.36 1898.36 1291.97C1688.75 1355.06 1599.95 1373.6 1584.77 1362.21C1567.65 1349.36 1645.74 1298.8 1749.92 1231.35C1821.43 1185.05 1905.29 1130.76 1979.16 1075.37L1978.53 1078.92ZM-83.8309 88.4812C-21.6547 86.9709 44.7405 82.5666 114.816 74.8381C432.877 39.7594 550.321 36.8914 560.085 63.0987C567.248 82.3329 515.718 116.936 442.841 165.876C409.147 188.503 370.865 214.213 331.663 242.906C213.294 329.542 170.319 373.851 211.332 387.897C252.704 402.064 379.236 386.225 599.523 352.469C821.028 318.53 978.308 304.841 1034.79 331.19C1091.35 357.57 1046.59 423.775 863.746 549.489C682.053 674.412 627.469 745.792 681.55 771.491C735.672 797.213 898.921 777.464 1152.78 720.071C1408.77 662.2 1529.84 654.122 1546.96 685.811C1563.9 717.171 1477.04 787.844 1317.3 887.921C1158.27 987.552 1071.86 1058.74 1094.62 1088.66C1117.2 1118.34 1248.96 1107.16 1526.44 1042.41C1585.93 1028.53 1641.61 1015.32 1692.91 1003.16C1827.3 971.288 1931.69 946.532 2004.15 933.498L2003.85 935.227C1932.01 948.272 1828.12 972.907 1694.4 1004.62C1643.35 1016.73 1587.96 1029.86 1527.89 1043.88C1247.88 1109.22 1114.59 1120.06 1091.2 1089.31C1067.98 1058.8 1154.67 987.096 1314.45 886.999C1473.51 787.346 1560.08 717.13 1543.44 686.319C1526.98 655.835 1407.44 664.298 1154.19 721.551C898.8 779.29 734.178 798.975 678.874 772.692C623.535 746.391 677.956 674.331 860.782 548.632C1042.45 423.728 1087.41 358.183 1032.14 332.4C976.788 306.583 820.66 320.302 600.439 354.044C378.998 387.978 251.629 403.84 209.037 389.251C166.08 374.539 209.051 329.624 328.632 242.095C367.806 213.426 406.154 187.671 439.909 165.005C512.269 116.412 563.434 82.0529 556.521 63.4923C547.195 38.4595 430.856 41.6609 115.417 76.4491C45.0353 84.2113 -21.6618 88.6321 -84.1246 90.1417L-83.832 88.4813L-83.8309 88.4812Z" fill="#DDDFE1" fill-opacity="0.04"/>
<path d="M1975.08 1098.49C1916.68 1141.35 1855.45 1182.77 1801.26 1219.42C1697.84 1289.38 1620.19 1341.9 1636.93 1353.31C1651.46 1363.22 1738.5 1342.36 1943.93 1275.31L1943.57 1277.39C1737.6 1344.56 1649.64 1365.05 1633.88 1354.31C1615.83 1342 1694.09 1289.06 1798.32 1218.56C1853.61 1181.16 1916.23 1138.8 1975.7 1095L1975.08 1098.49ZM-81.6967 76.3647C-24.464 73.8043 36.1844 68.8436 99.8771 61.1763C410.821 23.7384 526.939 20.8819 538.335 47.8843C546.968 68.3422 494.728 105.679 421.483 158.025C386.144 183.28 345.898 212.045 305.282 244.041C188.508 336.034 157.733 380.431 210.346 391.777C263.572 403.254 401.456 381.765 621.264 341.892C842.192 301.815 1004.49 286.108 1064.3 313.142C1124.17 340.203 1081.1 409.813 891.032 540.253C769.397 623.728 705.07 683.451 690.906 721.75C683.651 741.347 689.58 755.264 707.702 763.817C725.845 772.379 756.339 775.638 798.2 773.911C886.229 770.279 1023.93 744.63 1202.35 699.878C1461.9 634.779 1582 626.689 1595.92 661.673C1609.68 696.233 1517.56 773.391 1352.74 879.363C1233.25 956.191 1157.66 1015.88 1136.5 1053.82C1127.27 1070.38 1128.44 1082.73 1140.92 1090.46C1153.36 1098.16 1177.21 1101.35 1213.36 1099.63C1285.29 1096.22 1405.16 1073.45 1579.82 1028.33C1651.16 1009.9 1716.02 992.774 1774.73 977.268C1867.69 952.719 1945.34 932.214 2006.96 917.58L2006.63 919.436C1945.54 934.013 1868.51 954.357 1776.36 978.693C1717.3 994.292 1652.06 1011.52 1581.42 1029.77C1406.29 1075 1285.93 1097.84 1213.47 1101.28C1176 1103.06 1151.14 1099.67 1137.97 1091.51C1124.84 1083.38 1123.49 1070.58 1133.01 1053.52C1154.28 1015.36 1230.08 955.471 1349.86 878.462C1514.07 772.877 1605.92 696.15 1592.36 662.083C1578.97 628.441 1460.47 636.973 1203.92 701.322C1025.04 746.189 886.837 771.908 798.267 775.563C755.326 777.336 723.908 773.929 705.024 765.018C686.121 756.098 679.886 741.726 687.34 721.586C701.595 683.046 766.119 623.089 888.068 539.397C1076.93 409.779 1120.26 340.848 1061.67 314.366C1003.02 287.857 841.987 303.596 622.383 343.435C401.649 383.477 263.027 405.021 208.617 393.289C153.595 381.42 184.04 336.356 302.188 243.28C342.885 211.222 383.135 182.456 418.477 157.197C491.239 105.196 543.134 68.1036 534.782 48.3108C523.874 22.4619 408.883 25.6572 100.55 62.7827C36.5223 70.492 -24.452 75.4715 -81.9916 78.0355L-81.6973 76.3648L-81.6967 76.3647Z" fill="#DDDFE1" fill-opacity="0.04"/>
<path d="M1971.66 1117.91C1929.39 1149.05 1887.06 1178.97 1848.33 1206.35C1745.26 1279.2 1667.85 1333.91 1685.25 1344.75C1699.05 1353.36 1773.54 1334.59 1943.86 1275.72L1943.49 1277.84C1772.64 1336.75 1697.27 1355.15 1682.29 1345.8C1663.46 1334.06 1741.47 1278.92 1845.34 1205.51C1885.17 1177.36 1928.81 1146.51 1972.28 1114.41L1971.66 1117.91ZM-79.4648 63.6943C-27.8669 60.3175 26.3856 55.0368 83.0578 47.6357C387.04 7.93629 501.952 5.00036 515.015 32.6829C525.218 54.2956 472.529 94.3393 399.207 150.057C362.365 178.051 320.301 210.019 278.434 245.536C163.675 342.884 145.13 387.171 209.193 395.612C274.101 404.164 422.898 376.816 641.72 330.841C789.818 299.727 913.972 281.468 998.453 281.305C1042.67 281.219 1076.12 286.083 1096.58 296.638C1117.05 307.197 1124.43 323.4 1116.48 345.972C1102.41 385.925 1040.18 446.057 917.279 530.515C792.498 616.264 728.254 677.068 715.451 715.469C708.955 734.947 715.747 748.589 734.612 756.73C753.501 764.884 784.64 767.591 826.801 765.184C919.504 759.9 1064.83 729.946 1250.09 678.864C1398.55 637.927 1501.03 617.542 1563.93 614.471C1599.81 612.715 1623.03 616.562 1634.74 625.421C1646.36 634.206 1646.45 647.877 1636.17 665.854C1610.79 710.243 1522 781.349 1387.44 870.291C1266 950.552 1192.57 1011.91 1173.9 1050.3C1165.73 1067.1 1168.07 1079.43 1181.51 1086.92C1194.92 1094.4 1219.55 1097.15 1255.96 1094.82C1330.76 1090.03 1454.51 1063.9 1632.09 1013.48C1713.17 990.462 1786.08 969.166 1851.02 950.2C1910.5 932.829 1963.31 917.405 2009.26 904.493L2008.92 906.459C1963.54 919.238 1911.43 934.458 1852.8 951.58C1787.54 970.641 1714.27 992.04 1633.84 1014.88C1455.79 1065.43 1331.53 1091.64 1256.2 1096.46C1218.5 1098.87 1192.85 1095.95 1178.66 1088.04C1164.51 1080.14 1161.95 1067.36 1170.37 1050.06C1189.15 1011.43 1262.79 949.859 1384.52 869.408C1518.83 780.632 1607.42 709.72 1632.67 665.544C1642.7 648.008 1642.72 634.756 1631.62 626.359C1620.61 618.038 1598.46 614.438 1564.06 616.119C1501.7 619.168 1399.75 639.475 1251.79 680.274C1066.07 731.483 920.227 761.518 826.99 766.837C783.769 769.301 751.701 766.464 732.032 757.977C712.337 749.476 705.2 735.374 711.883 715.331C724.773 676.677 789.211 615.629 914.317 529.658C1036.89 445.424 1098.93 385.531 1112.91 345.818C1120.68 323.766 1113.59 307.999 1093.81 297.795C1074.02 287.587 1041.42 282.885 998.211 282.968C914.279 283.131 790.648 301.33 643.021 332.346C423.424 378.483 273.955 405.905 207.968 397.212C141.136 388.409 159.041 343.433 275.278 244.831C317.234 209.242 359.305 177.267 396.147 149.272C469.014 93.8988 521.374 54.105 511.478 33.1438C498.945 6.5917 385.191 9.8715 83.8087 49.231C26.7738 56.6791 -27.8304 61.9884 -79.7614 65.3751L-79.4653 63.6943L-79.4648 63.6943Z" fill="#DDDFE1" fill-opacity="0.04"/>
<path d="M1968.12 1137.99C1942.65 1157.11 1917.67 1175.56 1894.05 1193.01C1791.72 1268.61 1714.94 1325.34 1732.86 1335.61C1745.63 1342.93 1807.36 1326.83 1943.56 1277.41L1943.19 1279.53C1806.46 1328.92 1743.87 1344.67 1729.97 1336.7C1710.53 1325.55 1787.9 1268.39 1891.02 1192.21C1915.77 1173.92 1942.01 1154.54 1968.75 1134.44L1968.12 1137.99ZM-77.1206 50.3906C-31.8719 46.485 15.3302 41.1479 64.3509 34.2416C361.531 -7.62658 475.329 -10.7233 490.101 17.5335C501.964 40.2374 449.066 82.9584 375.941 142.019C337.753 172.859 294.026 208.178 251.129 247.401C138.818 350.093 132.52 394.068 207.871 399.394C284.243 404.788 443.485 371.384 660.845 319.333C808.67 283.934 935.202 263.303 1022.11 262.413C1066.55 261.959 1100.72 266.663 1122.22 277.174C1143.74 287.693 1152.47 303.972 1146 326.666C1134.16 368.175 1071.31 431.364 942.455 520.286C814.769 608.396 750.631 670.327 739.141 708.849C733.355 728.246 740.962 741.631 760.55 749.368C780.185 757.13 811.982 759.279 854.504 756.188C951.812 749.115 1104.55 714.651 1295.92 657.06C1442.66 612.898 1544.27 590.712 1607.06 586.774C1643.25 584.505 1666.76 588.262 1678.77 597.349C1690.65 606.348 1691.02 620.543 1681.04 639.248C1655.57 687.024 1562.42 764.717 1421.34 860.708C1298.28 944.445 1227.01 1007.49 1210.8 1046.33C1203.68 1063.37 1207.2 1075.67 1221.61 1082.94C1235.98 1090.19 1261.4 1092.49 1298.13 1089.55C1375.83 1083.31 1503.32 1053.68 1683.2 997.866C1772.49 970.159 1852.33 944.52 1922.36 922.031C1953.97 911.876 1983.59 902.366 2011.18 893.594L2010.82 895.659C1983.9 904.226 1955.05 913.489 1924.29 923.368C1854.18 945.882 1774.26 971.548 1685.08 999.222C1504.72 1055.19 1376.71 1084.91 1298.49 1091.19C1260.5 1094.23 1234.05 1091.76 1218.86 1084.1C1203.69 1076.46 1199.92 1063.69 1207.25 1046.13C1223.57 1007.05 1295.04 943.781 1418.39 859.846C1559.22 764.022 1652.17 686.525 1677.54 638.959C1687.28 620.691 1687.02 606.908 1675.64 598.286C1664.37 589.754 1641.96 586.244 1607.29 588.418C1545.06 592.322 1443.98 614.419 1297.75 658.425C1105.92 716.154 952.657 750.714 854.815 757.826C811.237 760.994 778.502 758.729 758.074 750.661C737.596 742.574 729.597 728.72 735.562 708.738C747.129 669.957 811.464 607.775 939.484 519.431C1067.99 430.753 1130.64 367.824 1142.41 326.566C1148.74 304.385 1140.32 288.528 1119.51 278.357C1098.7 268.181 1065.38 263.631 1021.93 264.074C935.604 264.955 809.648 285.516 662.342 320.79C444.307 373.003 284.424 406.501 207.073 401.038C128.704 395.499 134.065 350.845 247.921 246.738C290.846 207.488 334.608 172.142 372.83 141.273C445.525 82.5641 498.111 40.091 486.581 18.031C472.391 -9.11681 359.78 -5.67773 65.187 35.8235C15.7674 42.7858 -31.8119 48.1597 -77.4185 52.0814L-77.1206 50.3906Z" fill="#DDDFE1" fill-opacity="0.04"/>
<path d="M1964.35 1159.41C1955.57 1166.21 1946.92 1172.89 1938.44 1179.44C1837.23 1257.63 1761.42 1316.2 1779.72 1325.88C1791.15 1331.93 1839.92 1319.07 1943.07 1280.22L1942.7 1282.3C1838.98 1321.08 1789.39 1333.63 1776.92 1327.03C1756.99 1316.48 1833.38 1257.46 1935.37 1178.66C1945.04 1171.2 1954.93 1163.56 1964.99 1155.76L1964.35 1159.41ZM-74.6506 36.3719C-36.4907 32.2781 3.00786 27.1846 43.7719 21.0197C334.299 -22.9286 447.065 -26.2576 463.554 2.47864C477.167 26.2026 424.299 71.5801 351.636 133.949C312.241 167.762 267.006 206.587 223.401 249.633C113.964 357.662 119.929 401.118 206.376 403.117C293.966 405.14 463.19 365.482 678.616 307.384C825.784 267.697 954.539 244.651 1043.87 243.002C1088.53 242.178 1123.43 246.698 1145.97 257.141C1168.53 267.595 1178.63 283.932 1173.66 306.731C1164.29 349.766 1101.14 416.057 966.521 509.583C836.162 600.151 772.171 663.243 761.948 701.901C756.828 721.246 765.225 734.394 785.517 741.734C805.883 749.099 838.352 750.692 881.29 746.903C983.118 737.918 1143.04 698.738 1339.8 634.486C1484.76 587.146 1585.49 563.146 1648.15 558.328C1684.62 555.526 1708.42 559.176 1720.72 568.478C1732.89 577.68 1733.57 592.391 1723.93 611.825C1698.55 663.006 1601.48 747.475 1454.44 850.628C1330.07 937.872 1260.98 1002.61 1247.21 1041.92C1241.16 1059.19 1245.82 1071.47 1261.19 1078.5C1276.54 1085.52 1302.75 1087.37 1339.83 1083.81C1420.45 1076.06 1551.52 1042.81 1733.1 981.509C1829.56 948.944 1915.16 918.854 1989.17 892.838L2012.78 884.541L2012.4 886.694L1991.24 894.131C1917.28 920.128 1831.75 950.194 1735.1 982.822C1553.05 1044.28 1421.46 1077.64 1340.32 1085.44C1302.01 1089.12 1274.74 1087.12 1258.55 1079.71C1242.37 1072.31 1237.39 1059.57 1243.63 1041.77C1257.49 1002.23 1326.77 937.254 1451.45 849.791C1598.24 746.813 1695.12 662.546 1720.4 611.568C1729.83 592.555 1729.27 578.247 1717.6 569.417C1706.05 560.686 1683.4 557.285 1648.5 559.967C1586.39 564.744 1486.2 588.644 1341.75 635.814C1144.53 700.217 984.083 739.499 881.723 748.531C837.737 752.414 804.326 750.724 783.152 743.068C761.911 735.385 753.085 721.769 758.364 701.819C768.66 662.893 832.843 599.539 963.549 508.732C1097.79 415.469 1160.75 349.452 1170.06 306.685C1174.91 284.393 1165.16 268.475 1143.33 258.357C1121.47 248.233 1087.43 243.858 1043.75 244.663C955.042 246.299 826.913 269.258 680.282 308.801C464.273 367.057 294.434 406.821 205.938 404.773C116.296 402.7 109.137 358.595 220.141 249.02C263.783 205.939 309.05 167.083 348.472 133.247C420.73 71.2271 473.301 26.104 460.049 3.01567C444.188 -24.6307 332.633 -20.9656 44.6869 22.593C3.49798 28.8237 -36.4057 33.9605 -74.9528 38.0836L-74.6512 36.3719L-74.6506 36.3719Z" fill="#DDDFE1" fill-opacity="0.04"/>
<path d="M1960.22 1182.87C1871.45 1254.74 1808.62 1307.16 1825.83 1315.59C1835.53 1320.35 1871.12 1311.25 1942.41 1283.93L1942.07 1285.89C1870.1 1313.14 1833.73 1321.99 1823.11 1316.78C1804.03 1307.42 1869.38 1253.13 1960.89 1179.06L1960.22 1182.87ZM-72.0419 21.5661C-41.721 17.6713 -10.5863 13.1584 21.3275 7.99626C305.336 -37.9471 417.129 -41.5689 435.36 -12.4367C450.802 12.2378 398.19 60.2444 326.238 125.894C285.809 162.777 239.259 205.252 195.261 252.241C89.1377 365.584 107.369 408.311 204.691 406.776C303.257 405.221 481.984 359.128 694.994 295.022C841.128 251.04 971.954 225.543 1063.67 223.098C1108.57 221.901 1144.19 226.218 1167.78 236.578C1191.37 246.941 1202.84 263.306 1199.41 286.194C1192.75 330.715 1129.61 400.152 989.449 498.421C856.654 591.527 792.859 655.823 783.858 694.64C779.377 713.958 788.528 726.882 809.519 733.826C830.602 740.8 863.744 741.828 907.135 737.327C1013.38 726.301 1180.22 682.225 1381.67 611.172C1524.77 560.695 1624.6 534.877 1687.11 529.164C1723.83 525.808 1747.91 529.335 1760.52 538.844C1772.97 548.236 1773.98 563.46 1764.72 583.632C1739.64 638.24 1639.12 729.654 1486.67 840.064C1361.31 930.854 1294.45 997.295 1283.12 1037.06C1278.13 1054.56 1283.93 1066.81 1300.27 1073.6C1316.59 1080.39 1343.61 1081.78 1381.06 1077.6C1464.58 1068.27 1599.07 1031.27 1781.74 964.42C1868.3 932.737 1945.85 903.251 2014.08 877.136L2013.69 879.369C1945.95 905.294 1869.16 934.478 1783.88 965.69C1600.74 1032.72 1465.72 1069.82 1381.68 1079.22C1343 1083.54 1314.93 1082.02 1297.73 1074.86C1280.54 1067.72 1274.38 1055.01 1279.52 1036.96C1290.92 996.96 1357.98 930.271 1483.67 839.244C1635.87 729.013 1736.21 637.803 1761.19 583.4C1770.26 563.648 1769.37 548.815 1757.39 539.78C1745.56 530.864 1722.66 527.583 1687.56 530.792C1625.61 536.453 1526.34 562.162 1383.74 612.464C1181.85 683.671 1014.47 727.864 907.683 738.944C863.26 743.552 829.17 742.449 807.261 735.199C785.255 727.921 775.636 714.522 780.262 694.578C789.328 655.5 853.312 590.937 986.46 497.582C1126.22 399.589 1189.18 330.446 1195.8 286.203C1199.16 263.815 1188.05 247.86 1165.18 237.815C1142.31 227.767 1107.55 223.587 1063.63 224.759C972.546 227.187 842.389 252.58 696.823 296.387C483.275 360.656 303.94 406.869 204.549 408.436C103.915 410.023 84.2694 366.687 191.956 251.675C236 204.637 282.576 162.137 323.025 125.23C394.599 59.9314 446.931 12.1789 431.875 -11.8744C414.318 -39.9281 303.761 -35.9714 22.3049 9.55852C-10.057 14.7943 -41.6164 19.3594 -72.3476 23.2948L-72.0431 21.5662L-72.0419 21.5661Z" fill="#DDDFE1" fill-opacity="0.04"/>
<path d="M1955.55 1209.35C1894.63 1262.07 1857.15 1298.37 1871.17 1304.75C1878.59 1308.14 1900.69 1303.2 1941.7 1287.98L1941.39 1289.72C1899.57 1304.95 1876.7 1309.7 1868.53 1305.97C1852.79 1298.8 1892.4 1260.51 1956.26 1205.33L1955.55 1209.35ZM-69.2784 5.87666C-47.5797 2.62736 -25.4829 -0.923215 -2.99104 -4.80009C274.651 -52.6617 385.518 -56.634 405.503 -27.1894C422.844 -1.63322 370.703 48.9758 299.713 117.88C258.463 157.915 210.828 204.146 166.743 255.231C64.3683 373.863 94.8408 415.647 202.799 410.375C312.069 405.042 499.808 352.335 709.939 282.259C854.666 233.997 987.411 206.011 1081.51 202.731C1126.64 201.158 1162.97 205.253 1187.6 215.504C1212.24 225.755 1225.08 242.126 1223.21 265.088C1219.47 311.054 1156.66 383.669 1011.2 486.82C876.2 582.552 812.659 648.084 804.854 687.067C800.988 706.385 810.865 719.094 832.545 725.647C854.332 732.232 888.149 732.683 932.017 727.453C1042.59 714.272 1216.07 665.113 1421.47 587.151C1562.64 533.568 1661.51 505.928 1723.85 499.308C1760.78 495.384 1785.13 498.776 1798.06 508.483C1810.83 518.063 1812.2 533.798 1803.35 554.709C1778.8 612.746 1675.33 711.261 1518.03 829.02C1391.97 923.403 1327.37 991.556 1318.49 1031.77C1314.57 1049.5 1321.52 1061.71 1338.81 1068.25C1356.11 1074.79 1383.94 1075.73 1421.79 1070.92C1508.21 1059.92 1645.93 1019.08 1829.08 946.619C1896.66 919.882 1958.74 894.548 2015.12 871.248L2014.71 873.573C1958.98 896.592 1897.78 921.557 1831.33 947.845C1647.72 1020.48 1509.47 1061.46 1422.52 1072.52C1383.48 1077.48 1354.6 1076.45 1336.4 1069.56C1318.2 1062.68 1310.85 1050.01 1314.9 1031.71C1323.83 991.258 1388.61 922.848 1515 828.224C1672.05 710.65 1775.33 612.348 1799.8 554.503C1808.48 533.998 1807.23 518.65 1794.95 509.425C1782.83 500.325 1759.69 497.178 1724.42 500.924C1662.64 507.485 1564.33 535.007 1423.66 588.398C1217.81 666.53 1043.78 715.815 932.692 729.058C887.813 734.409 853.042 733.897 830.403 727.055C807.66 720.181 797.262 706.994 801.257 687.032C809.116 647.781 872.846 581.972 1008.21 485.987C1153.26 383.127 1215.89 310.82 1219.6 265.142C1221.43 242.684 1208.97 226.715 1185.06 216.768C1161.16 206.818 1125.69 202.848 1081.53 204.389C988.101 207.644 856.074 235.51 711.934 283.577C501.31 353.816 312.967 406.654 202.929 412.025C91.5767 417.463 59.4911 375.113 163.398 254.712C207.477 203.632 255.171 157.341 296.471 117.257C367.096 48.7092 418.967 -1.64047 402.035 -26.5917C382.775 -54.9701 273.169 -50.6708 -1.93633 -3.24778C-24.8992 0.711816 -47.447 4.33118 -69.5882 7.63481L-69.2784 5.87666Z" fill="#DDDFE1" fill-opacity="0.04"/>
<path d="M1949.95 1241.16C1920.43 1270.31 1905.99 1289.26 1915.71 1293.38C1919.75 1295.09 1928.05 1294.26 1941.24 1290.56L1941 1291.93C1926.78 1295.79 1917.73 1296.57 1913.15 1294.63C1901.9 1289.86 1918.06 1268.81 1950.72 1236.78L1949.95 1241.16ZM-66.3474 -10.7611C-54.0776 -12.8568 -41.6858 -15.0473 -29.1686 -17.3398C242.231 -67.0447 352.223 -71.4153 373.956 -41.7372C393.276 -15.3536 341.823 37.8263 272.036 109.955C230.141 153.251 181.623 203.398 137.868 258.603C93.0857 315.106 77.5627 354.333 85.159 379.425C90.7999 398.075 109.268 408.85 137.98 413.075C166.936 417.333 206.4 414.998 253.733 407.396C374.139 388.063 544.865 334.745 723.438 269.121C866.386 216.591 1000.88 186.081 1097.34 181.925C1142.71 179.97 1179.74 183.83 1205.41 193.951C1231.08 204.072 1245.3 220.421 1245.01 243.436C1244.43 290.799 1182.28 366.621 1031.76 474.795C894.787 573.229 831.556 640.036 824.932 679.197C821.658 698.538 832.247 711.039 854.594 717.199C877.081 723.397 911.573 723.263 955.93 717.287C1070.68 701.834 1250.5 647.425 1459.17 562.45C1598.3 505.795 1696.15 476.33 1758.29 468.791C1795.4 464.291 1820.02 467.538 1833.28 477.436C1846.36 487.195 1848.13 503.436 1839.74 525.09C1815.91 586.582 1710.04 692.327 1548.49 817.512C1422.02 915.518 1359.77 985.389 1353.34 1026.04C1350.5 1044 1358.58 1056.17 1376.84 1062.45C1395.11 1068.75 1423.74 1069.21 1462 1063.76C1551.29 1051.04 1692.04 1006.22 1875.07 928.125C1925.08 906.787 1972.05 886.261 2015.9 866.829L2015.47 869.237C1972.41 888.309 1926.37 908.422 1877.43 929.305C1693.96 1007.59 1552.68 1052.54 1462.85 1065.34C1423.42 1070.96 1393.72 1070.42 1374.53 1063.81C1355.33 1057.19 1346.8 1044.57 1349.73 1026.04C1356.2 985.139 1418.63 915 1545.43 816.741C1706.73 691.737 1812.44 586.203 1836.19 524.915C1844.42 503.659 1842.79 487.795 1830.17 478.38C1817.75 469.107 1794.38 466.104 1758.99 470.397C1697.4 477.868 1600.09 507.204 1461.46 563.659C1252.36 648.807 1072 703.351 956.711 718.878C911.355 724.989 875.916 725.076 852.571 718.644C829.093 712.172 817.939 699.187 821.325 679.188C827.998 639.754 891.413 572.665 1028.74 473.971C1178.84 366.102 1240.81 290.606 1241.39 243.545C1241.67 221.031 1227.86 205.075 1202.93 195.244C1178 185.412 1141.83 181.67 1097.42 183.583C1001.67 187.71 867.926 218.079 725.58 270.391C546.699 336.127 375.58 389.553 254.712 408.961C206.634 416.681 166.401 419.033 136.659 414.658C106.674 410.25 87.4154 399.074 81.5739 379.77C73.9022 354.419 89.4772 314.923 134.484 258.137C178.302 202.852 226.839 152.685 268.751 109.369C338.197 37.5961 389.399 -15.3228 370.517 -41.1065C349.55 -69.7371 240.848 -65.0446 -28.0428 -15.8C-41.0507 -13.4174 -53.9206 -11.1449 -66.6624 -8.97306L-66.3474 -10.7611Z" fill="#DDDFE1" fill-opacity="0.04"/>
<path d="M-63.2335 -28.4335C-61.2213 -28.8198 -59.2088 -29.2046 -57.1871 -29.5972C208.099 -81.0763 317.236 -85.8896 340.72 -56.0452C362.079 -28.8967 311.528 26.8208 243.178 102.146C200.886 148.76 151.759 202.906 108.666 262.37C67.0513 319.79 54.7404 359.474 65.1924 384.678C73.1243 403.806 94.2299 414.532 125.589 418.31C157.22 422.117 199.349 418.922 249.006 410.187C377.993 387.492 557.208 327.508 735.451 255.631C876.259 198.85 1012.35 165.787 1111.14 160.714C1156.72 158.374 1194.45 161.981 1221.15 171.949C1247.85 181.921 1263.45 198.226 1264.76 221.272C1267.54 269.973 1206.38 349.026 1051.07 462.36C912.373 563.571 849.527 631.687 844.063 671.038C841.372 690.418 852.65 702.725 875.665 708.489C898.826 714.295 933.982 713.564 978.838 706.828C1097.65 688.986 1283.48 629.162 1494.71 537.099C1631.68 477.403 1728.46 446.112 1790.37 437.649C1827.63 432.557 1852.5 435.646 1866.11 445.732C1879.52 455.663 1881.71 472.413 1873.82 494.822C1850.95 559.76 1743.21 672.863 1578.02 805.552C1451.45 907.216 1391.6 978.808 1387.64 1019.9C1385.89 1038.07 1395.1 1050.18 1414.31 1056.21C1433.56 1062.24 1463 1062.22 1501.66 1056.12C1593.79 1041.59 1737.36 992.708 1919.68 908.951C1953.33 893.492 1985.58 878.421 2016.42 863.834L2015.98 866.336C1986.03 880.493 1954.74 895.105 1922.14 910.083C1739.38 994.041 1595.28 1043.07 1502.62 1057.69C1462.8 1063.97 1432.3 1063.93 1412.13 1057.6C1391.92 1051.27 1382.22 1038.7 1384.03 1019.94C1388.02 978.597 1448.03 906.729 1574.92 804.803C1739.89 672.296 1847.45 559.412 1870.26 494.669C1878.01 472.658 1875.95 456.281 1863 446.684C1850.25 437.24 1826.67 434.388 1791.17 439.241C1729.82 447.626 1633.58 478.778 1497.1 538.261C1285.44 630.513 1099.06 690.484 979.731 708.402C933.901 715.283 897.804 715.985 873.759 709.96C849.563 703.897 837.673 691.108 840.458 671.053C845.963 631.426 908.99 563.026 1048.06 461.545C1202.92 348.537 1263.91 269.823 1261.15 221.43C1259.86 198.877 1244.7 182.958 1218.74 173.266C1192.78 163.574 1155.93 160.074 1111.29 162.365C1013.23 167.399 877.924 200.308 737.736 256.841C559.186 328.845 379.554 388.952 250.08 411.73C199.707 420.592 156.833 423.817 124.443 419.916C91.7871 415.987 69.8414 404.88 61.638 385.102C51.0731 359.627 63.4114 319.659 105.238 261.948C148.38 202.416 197.535 148.239 239.853 101.598C307.883 26.6256 358.199 -28.8347 337.308 -55.3817C314.634 -84.1937 206.805 -79.069 -55.9896 -28.0735C-58.5158 -27.5824 -61.0342 -27.1008 -63.5532 -26.6191L-63.2335 -28.4335Z" fill="#DDDFE1" fill-opacity="0.04"/>
<path d="M-59.956 -47.0367C179.83 -95.0571 281.456 -98.9599 305.783 -70.0795C329.24 -42.24 279.784 15.993 213.123 94.4846C170.647 144.499 121.167 202.759 79.1367 266.529C40.6498 324.926 31.5007 365.087 44.8142 390.388C55.1025 409.933 78.8642 420.55 112.873 423.819C147.164 427.116 191.926 423.005 243.881 413.085C381.469 386.813 568.872 319.917 745.954 241.803C884.253 180.799 1021.77 145.147 1122.86 139.122C1168.67 136.392 1207.07 139.731 1234.8 149.53C1262.54 159.331 1279.51 175.566 1282.43 198.622C1288.77 248.61 1228.93 330.913 1069.13 449.536C928.946 553.595 866.558 623.047 862.242 662.603C860.123 682.034 872.087 694.15 895.743 699.521C919.571 704.931 955.375 703.59 1000.72 696.076C1123.44 675.74 1314.94 610.345 1528.05 511.123C1662.73 448.418 1758.37 415.308 1820.01 405.914C1857.37 400.221 1882.5 403.145 1896.47 413.415C1910.22 423.515 1912.88 440.771 1905.54 463.928C1883.85 532.328 1774.83 652.89 1606.58 793.146C1480.2 898.506 1422.84 971.82 1421.38 1013.33C1420.73 1031.71 1431.07 1043.76 1451.24 1049.51C1471.44 1055.27 1501.68 1054.76 1540.76 1048C1635.68 1031.59 1781.84 978.543 1962.84 889.12C1981.22 880.04 1999.17 871.086 2016.7 862.269L2016.24 864.872C1999.68 873.195 1982.74 881.644 1965.41 890.204C1783.96 979.844 1637.26 1033.06 1541.82 1049.55C1501.62 1056.5 1470.33 1056.97 1449.17 1050.94C1427.97 1044.9 1417.1 1032.4 1417.77 1013.42C1419.23 971.65 1476.74 898.05 1603.44 792.427C1771.47 652.347 1880.33 532.007 1901.96 463.809C1909.18 441.036 1906.67 424.144 1893.37 414.371C1880.3 404.763 1856.49 402.068 1820.92 407.491C1759.83 416.799 1664.73 449.762 1530.52 512.25C1316.99 611.666 1124.95 677.216 1001.73 697.635C955.421 705.311 918.668 706.635 893.945 701.022C869.044 695.366 856.439 682.77 858.63 662.639C862.975 622.808 925.539 553.065 1066.09 448.731C1225.44 330.45 1285.11 248.51 1278.81 198.837C1275.95 176.266 1259.43 160.407 1232.45 150.872C1205.48 141.338 1167.94 138.099 1123.07 140.775C1022.73 146.754 886.032 182.231 748.36 242.96C570.951 321.217 383.109 388.256 245.07 414.614C192.425 424.665 146.933 428.817 111.895 425.449C76.5718 422.053 51.9199 411.076 41.298 390.886C27.8372 365.315 36.998 324.862 75.6898 266.153C117.785 202.278 167.276 144.004 209.766 93.981C276.127 15.8382 325.362 -42.1307 302.399 -69.3851C278.852 -97.3357 178.166 -93.054 -60.2775 -45.2118L-59.956 -47.0367Z" fill="#DDDFE1" fill-opacity="0.04"/>
<path d="M-56.576 -66.2203C152.549 -108.717 244.5 -111.219 269.145 -83.8075C294.75 -55.3316 246.599 5.37763 181.851 87.0113C139.456 140.455 89.9336 202.895 49.3311 271.092C13.9506 330.52 7.93506 371.17 24.1196 396.54C36.8187 416.445 63.2505 426.893 99.8934 429.598C136.824 432.325 184.197 427.242 238.412 416.089C384.508 386.031 579.745 311.99 754.915 227.667C890.342 162.471 1029.11 124.205 1132.48 117.186C1178.5 114.062 1217.57 117.114 1246.31 126.723C1275.06 136.335 1293.41 152.477 1297.95 175.521C1308.06 226.739 1249.89 312.294 1085.89 436.336C944.462 543.312 882.611 614.133 879.445 653.906C877.892 673.403 890.513 685.33 914.8 690.301C939.287 695.312 975.729 693.354 1021.56 685.043C1148.03 662.108 1344.82 590.998 1559.13 484.563C1691.39 418.874 1785.8 383.949 1847.14 373.622C1884.58 367.318 1909.95 370.071 1924.3 380.52C1938.41 390.788 1941.57 408.549 1934.81 432.465C1914.54 504.315 1804.83 632.429 1634.15 780.317C1508.26 889.394 1453.49 964.433 1454.54 1006.35C1455.01 1024.93 1466.48 1036.92 1487.59 1042.38C1508.74 1047.85 1539.76 1046.83 1579.26 1039.41C1676.9 1021.05 1825.4 963.74 2004.53 868.646C2008.62 866.476 2012.68 864.314 2016.72 862.158L2016.24 864.868L2007.18 869.687C1827.64 965.002 1678.6 1022.49 1580.42 1040.94C1539.84 1048.57 1507.77 1049.56 1485.64 1043.84C1463.46 1038.1 1451.41 1025.67 1450.92 1006.49C1449.86 964.305 1504.77 888.972 1630.97 779.622C1801.45 631.914 1911.01 504.023 1931.22 432.368C1937.87 408.828 1934.87 391.426 1921.2 381.481C1907.79 371.712 1883.78 369.185 1848.17 375.181C1787.38 385.417 1693.5 420.186 1561.7 485.646C1346.97 592.285 1149.64 663.564 1022.67 686.587C975.906 695.068 938.52 697.026 913.131 691.829C887.54 686.592 874.223 674.177 875.832 653.959C879.022 613.915 941.04 542.803 1082.84 435.552C1246.37 311.863 1304.4 226.68 1294.35 175.794C1289.9 153.226 1272.03 137.449 1244.05 128.092C1216.05 118.734 1177.85 115.77 1132.76 118.83C1030.17 125.794 892.244 163.875 757.434 228.77C581.946 313.247 386.254 387.442 239.68 417.599C184.812 428.886 136.736 434.018 99.0634 431.238C61.095 428.436 33.7351 417.65 20.6328 397.112C4.27424 371.468 10.2702 330.512 45.8462 270.76C86.4624 202.536 136.035 140.039 178.465 86.5438C242.932 5.26669 290.874 -55.1799 265.788 -83.0802C241.929 -109.618 150.905 -106.739 -56.8992 -64.3923L-56.5772 -66.2201L-56.576 -66.2203Z" fill="#DDDFE1" fill-opacity="0.04"/>
<path d="M-53.1171 -85.8548C124.728 -121.9 206.287 -122.826 230.811 -97.2006C258.615 -68.1461 211.965 -4.9934 149.366 79.7487C107.288 136.708 57.9854 203.448 19.2682 276.05C-13.0057 336.562 -15.8858 377.703 3.1791 403.118C18.3393 423.321 47.4475 433.537 86.7018 435.621C126.266 437.721 176.186 431.615 232.601 419.18C387.113 385.128 589.79 303.726 762.306 213.235C894.503 143.892 1034.37 102.977 1139.98 94.9253C1186.2 91.4014 1225.92 94.1582 1255.67 103.558C1285.43 112.964 1305.15 128.989 1311.32 152.004C1325.38 204.38 1269.21 293.195 1101.34 422.784C958.905 532.735 897.689 604.951 895.663 644.942C894.676 664.527 907.951 676.269 932.847 680.836C957.977 685.445 995.035 682.853 1041.33 673.73C1171.37 648.101 1373.09 571.135 1587.92 457.442C1717.61 388.805 1810.72 352.07 1871.72 340.806C1909.19 333.884 1934.8 336.457 1949.54 347.078C1964.02 357.51 1967.71 375.771 1961.61 400.448C1942.99 475.751 1833.2 611.494 1660.69 767.069C1535.6 879.885 1483.51 956.644 1487.11 998.952C1488.71 1017.73 1501.31 1029.63 1523.35 1034.79C1545.47 1039.97 1577.25 1038.43 1617.14 1030.33C1712.07 1011.05 1852.02 954.786 2016.5 863.42L2016.01 866.209C1852.5 956.755 1713.22 1012.59 1618.4 1031.85C1577.45 1040.16 1544.61 1041.69 1521.52 1036.29C1498.37 1030.86 1485.15 1018.53 1483.5 999.14C1479.87 956.562 1532.09 879.505 1657.5 766.401C1829.79 611.012 1939.45 475.491 1958.02 400.378C1964.03 376.072 1960.5 358.159 1946.46 348.044C1932.68 338.119 1908.47 335.763 1872.86 342.338C1812.42 353.501 1719.84 390.075 1590.57 458.483C1375.36 572.38 1173.1 649.522 1042.56 675.249C995.338 684.556 957.34 687.162 931.306 682.388C905.038 677.57 891.026 665.341 892.054 645.023C894.088 604.76 955.469 532.245 1098.27 422.01C1265.65 292.798 1321.7 204.371 1307.73 152.325C1301.68 129.781 1282.46 114.108 1253.48 104.948C1224.48 95.7846 1185.63 93.1107 1140.33 96.5635C1035.53 104.555 896.533 145.26 764.95 214.282C592.122 304.937 388.97 386.512 233.976 420.672C176.931 433.243 126.326 439.409 86.0431 437.271C45.4479 435.117 15.3737 424.584 -0.249204 403.762C-19.5308 378.065 -16.6896 336.61 15.7594 275.762C54.5256 203.072 103.852 136.299 145.95 79.3136C208.285 -5.0702 254.742 -67.9604 227.48 -96.4421C203.734 -121.255 123.108 -119.962 -53.4374 -84.0367L-53.1171 -85.8548Z" fill="#DDDFE1" fill-opacity="0.04"/>
<path d="M-49.6136 -105.736C96.5288 -134.486 166.912 -133.7 190.766 -110.225C220.82 -80.648 175.865 -15.086 115.652 72.7252C74.1594 133.242 25.4026 204.349 -11.0337 281.415C-40.1714 343.046 -39.9111 384.679 -17.9368 410.11C-0.269187 430.552 31.516 440.476 73.3611 441.883C115.522 443.301 167.939 436.121 226.485 422.364C389.261 384.111 598.945 295.144 768.103 198.541C896.724 125.086 1037.51 81.5016 1145.32 72.378C1191.73 68.4512 1232.1 70.8941 1262.85 80.0691C1293.6 89.2455 1314.67 105.14 1322.48 128.1C1340.68 181.576 1286.83 273.649 1115.44 408.9C972.254 521.886 911.757 595.522 910.882 635.743C910.456 655.416 924.375 666.979 949.876 671.139C975.625 675.338 1013.28 672.102 1060.01 662.147C1193.46 633.726 1399.7 550.772 1614.37 429.796C1741.36 358.237 1833.07 319.7 1893.68 307.497C1931.15 299.952 1956.99 302.341 1972.14 313.134C1987 323.72 1991.27 342.484 1985.87 367.929C1969.15 446.68 1859.89 590.121 1686.19 753.421C1562.19 870.007 1512.88 948.482 1519.07 991.159C1521.82 1010.12 1535.54 1021.92 1558.51 1026.78C1581.56 1031.64 1614.1 1029.58 1654.38 1020.79C1743.76 1001.28 1870.52 948.821 2016.11 865.644L2015.61 868.487C1870.97 950.816 1744.93 1002.81 1655.74 1022.28C1614.43 1031.3 1580.85 1033.37 1556.8 1028.29C1532.68 1023.2 1518.3 1010.97 1515.46 991.386C1509.24 948.434 1558.65 869.652 1682.96 752.775C1856.47 589.655 1965.59 446.443 1982.27 367.885C1987.59 342.81 1983.5 324.39 1969.06 314.106C1954.91 304.026 1930.51 301.848 1894.93 309.01C1834.87 321.104 1743.66 359.472 1617.1 430.796C1402.04 551.987 1195.27 635.123 1061.35 663.648C1013.7 673.795 975.112 677.061 948.441 672.711C921.518 668.32 906.82 656.276 907.263 635.844C908.142 595.351 968.794 521.413 1112.35 408.139C1283.25 273.274 1336.99 181.603 1318.91 128.471C1311.26 105.975 1290.7 90.4288 1260.72 81.4814C1230.72 72.5333 1191.23 70.162 1145.73 74.0126C1038.75 83.0649 898.861 126.425 770.853 199.53C601.392 296.305 391.218 385.459 227.946 423.826C168.782 437.731 115.702 444.981 72.8413 443.54C29.6638 442.09 -3.12206 431.867 -21.3118 410.817C-43.5352 385.106 -43.8654 343.155 -14.5651 281.176C21.9226 203.999 70.6962 132.867 112.206 72.3312C172.175 -15.1292 216.945 -80.4247 187.473 -109.43C164.377 -132.162 94.9121 -132.6 -49.9314 -103.941L-49.6153 -105.736L-49.6136 -105.736Z" fill="#DDDFE1" fill-opacity="0.04"/>
<path d="M-46.131 -125.506C68.1687 -146.294 126.551 -143.735 149.037 -122.847C181.372 -92.8188 138.305 -24.8813 80.7106 65.9689C40.074 130.066 -7.80925 205.602 -41.5419 287.187C-67.5026 349.969 -64.0725 392.086 -39.1653 417.498C-18.9478 438.122 15.506 447.7 59.898 448.375C104.619 449.055 159.463 440.747 220.083 425.617C390.953 382.968 607.175 286.244 772.293 183.598C896.989 106.085 1038.52 59.8045 1148.48 49.5687C1195.07 45.2331 1236.06 47.3507 1267.79 56.2857C1299.54 65.22 1321.96 80.9532 1331.41 103.839C1353.92 158.34 1302.74 253.661 1128.17 394.691C984.481 510.768 924.803 585.845 925.088 626.301C925.225 646.086 939.773 657.465 965.853 661.211C992.218 664.998 1030.45 661.102 1077.6 650.303C1214.25 619.001 1424.59 529.937 1638.44 401.658C1762.57 327.206 1852.8 286.877 1912.97 273.734C1950.4 265.558 1976.47 267.76 1992.05 278.719C2007.31 289.463 2012.19 308.727 2007.54 334.936C1992.98 417.116 1884.88 568.303 1710.62 739.379C1588.01 859.747 1541.6 939.927 1550.4 982.96C1554.31 1002.1 1569.15 1013.79 1593.05 1018.32C1617.03 1022.87 1650.3 1020.26 1690.95 1010.77C1774.18 991.329 1887.72 943.174 2015.58 868.618L2015.07 871.499C1888.15 945.193 1775.36 992.862 1692.4 1012.24C1650.74 1021.96 1616.45 1024.6 1591.46 1019.86C1566.38 1015.11 1550.84 1002.99 1546.8 983.232C1537.95 939.925 1584.45 859.432 1707.37 738.761C1881.44 567.877 1989.4 416.918 2003.93 334.918C2008.52 309.069 2003.81 290.142 1988.97 279.697C1974.43 269.47 1949.84 267.471 1914.34 275.227C1854.7 288.253 1764.96 328.405 1641.26 402.61C1427.03 531.107 1216.16 620.364 1079.02 651.778C1030.98 662.784 991.823 666.722 964.55 662.805C936.986 658.843 921.612 646.984 921.468 626.429C921.181 585.698 981.005 510.317 1125.05 393.949C1299.13 253.32 1350.22 158.416 1327.86 104.266C1318.59 81.8308 1296.7 66.433 1265.74 57.7177C1234.77 48.9995 1194.65 46.9453 1148.96 51.1984C1039.84 61.3543 899.224 107.389 775.136 184.528C609.712 287.362 392.988 384.29 221.624 427.063C160.42 442.338 104.929 450.726 59.5238 450.035C13.7921 449.34 -21.6886 439.485 -42.4855 418.269C-67.6743 392.57 -71.2077 350.131 -45.0971 286.994C-11.33 205.328 36.5808 129.749 77.2386 65.6148C134.606 -24.8797 177.502 -92.5507 145.773 -122.023C124.011 -142.236 66.5468 -144.468 -46.4402 -123.751L-46.131 -125.506Z" fill="#DDDFE1" fill-opacity="0.04"/>
<path d="M66.1433 -149.967C84.3044 -147.512 97.1713 -142.458 105.617 -135.04C140.267 -104.604 99.2818 -34.3363 44.54 59.5158C5.03336 127.245 -41.6506 207.283 -72.2422 293.375C-94.9604 357.325 -88.3365 399.916 -60.4705 425.274C-37.6694 446.019 -0.55525 455.193 46.3529 455.084C93.5923 454.974 150.797 445.491 213.4 428.947C392.152 381.709 614.405 277.051 774.841 168.439C895.256 86.9176 1037.35 37.9193 1149.44 26.5338C1196.2 21.7837 1237.79 23.5624 1270.5 32.2358C1303.22 40.9116 1326.99 56.4681 1338.08 79.2628C1365.05 134.713 1316.88 233.266 1139.5 380.187C995.561 499.403 936.809 575.947 938.256 616.647C938.962 636.542 954.131 647.742 980.775 651.07C1007.73 654.435 1046.5 649.87 1094.04 638.204C1233.72 603.934 1447.73 508.645 1660.11 373.054C1781.19 295.751 1869.85 253.641 1929.56 239.556C1966.9 230.745 1993.18 232.75 2009.2 243.873C2024.89 254.771 2030.41 274.535 2026.58 301.507C2014.43 387.112 1908.14 546.084 1733.95 724.957C1613.04 849.127 1569.64 931.004 1581.09 974.368C1586.18 993.664 1602.14 1005.24 1626.94 1009.43C1651.85 1013.65 1685.83 1010.48 1726.82 1000.28C1803.33 981.233 1903.76 937.789 2014.96 872.134L2014.45 875.039C1904.17 939.826 1804.53 982.765 1728.36 1001.73C1686.39 1012.18 1651.38 1015.38 1625.48 1011C1599.46 1006.6 1582.76 994.612 1577.5 974.685C1565.98 931.042 1609.45 848.847 1730.67 724.373C1904.67 545.689 2010.84 386.944 2022.97 301.515C2026.75 274.892 2021.41 255.461 2006.14 244.857C1991.19 234.482 1966.42 232.67 1931.01 241.021C1871.86 254.975 1783.7 296.902 1662.99 373.964C1450.26 509.781 1235.71 605.27 1095.57 639.658C1047.17 651.536 1007.48 656.154 979.596 652.675C951.412 649.154 935.369 637.475 934.635 616.793C933.177 575.819 992.07 498.974 1136.37 379.462C1313.24 232.961 1361.34 134.833 1334.54 79.7341C1323.67 57.3866 1300.45 42.1599 1268.53 33.6917C1236.58 25.2225 1195.85 23.4957 1149.98 28.1554C1038.76 39.4523 897.605 88.1859 777.782 169.305C617.047 278.121 394.275 383.003 215.026 430.371C151.855 447.065 94.0206 456.633 46.1118 456.748C-2.12235 456.861 -40.2802 447.432 -63.7136 426.106C-91.9005 400.459 -98.6613 357.54 -75.8102 293.22C-45.1762 207.017 1.52491 126.948 41.0458 59.1955C95.582 -34.3003 136.413 -104.304 102.391 -134.186C93.4555 -142.035 79.2534 -147.104 58.6835 -149.108L66.1433 -149.967Z" fill="#DDDFE1" fill-opacity="0.04"/>
</svg>
