<svg width="281" height="298" viewBox="0 0 281 298" fill="none" xmlns="http://www.w3.org/2000/svg">
<path opacity="0.1" d="M201.409 245.225C222.298 233.145 238.384 209.699 247.35 187.269C256.316 164.839 257.496 140.042 250.703 116.859C243.909 93.6762 229.535 73.4527 209.888 59.4356C190.241 45.4184 166.462 38.421 142.368 39.5666C118.274 40.7123 95.2629 49.9347 77.0301 65.753C58.7974 81.5714 46.4004 103.068 41.8297 126.791C37.2589 150.514 40.7796 175.088 51.8264 196.566C62.8733 218.044 80.8053 235.181 102.743 245.225" stroke="#94A3B8" stroke-width="35" stroke-linecap="round"/>
<g filter="url(#filter0_d_898_352)">
<path d="M210.83 59.4356C191.183 45.4185 167.404 38.421 143.31 39.5667C119.216 40.7124 96.2051 49.9348 77.9723 65.7531C59.7396 81.5714 47.3426 103.068 42.7719 126.791C38.2011 150.514 41.7218 175.088 52.7687 196.566C63.8155 218.044 81.7475 235.181 103.686 245.225" stroke="#0049AC" stroke-width="35" stroke-linecap="round"/>
</g>
<path d="M185.997 213.067C200.224 204.839 211.316 192.107 217.529 176.874C223.741 161.64 224.721 144.771 220.314 128.918C215.908 113.066 206.364 99.1314 193.186 89.3066C180.007 79.4817 163.941 74.3245 147.516 74.6462C131.091 74.9679 115.239 80.7503 102.454 91.0837C89.6689 101.417 80.6765 115.715 76.8917 131.728C73.1069 147.74 74.7445 164.559 81.5468 179.537C88.3491 194.516 99.9301 206.804 114.468 214.468" stroke="#0049AC" stroke-width="0.5" stroke-linecap="round" stroke-dasharray="5.5 5.5"/>
<circle cx="212.5" cy="60" r="7" fill="white"/>
<path d="M134.333 159.48C132.707 159.48 131.16 159.187 129.693 158.6C128.253 157.987 127.013 157.133 125.973 156.04C124.96 154.92 124.267 153.6 123.893 152.08L128.653 150.4C129.133 151.76 129.867 152.8 130.853 153.52C131.84 154.213 133 154.56 134.333 154.56C135.4 154.56 136.32 154.36 137.093 153.96C137.893 153.56 138.52 152.987 138.973 152.24C139.427 151.467 139.653 150.56 139.653 149.52C139.653 148.48 139.427 147.6 138.973 146.88C138.547 146.133 137.933 145.56 137.133 145.16C136.333 144.76 135.387 144.56 134.293 144.56C133.787 144.56 133.253 144.613 132.693 144.72C132.16 144.827 131.68 144.987 131.253 145.2L130.013 142.6L137.733 133.8H125.573V129.2H143.853V133.48L136.093 142.56L136.173 140.52C137.96 140.547 139.52 140.933 140.853 141.68C142.187 142.427 143.227 143.453 143.973 144.76C144.72 146.067 145.093 147.6 145.093 149.36C145.093 151.28 144.627 153.013 143.693 154.56C142.76 156.08 141.48 157.28 139.853 158.16C138.227 159.04 136.387 159.48 134.333 159.48ZM161.226 159.48C158.853 159.48 156.773 158.84 154.986 157.56C153.2 156.28 151.8 154.48 150.786 152.16C149.8 149.84 149.306 147.147 149.306 144.08C149.306 140.987 149.8 138.293 150.786 136C151.773 133.707 153.16 131.92 154.946 130.64C156.733 129.36 158.813 128.72 161.186 128.72C163.613 128.72 165.706 129.36 167.466 130.64C169.253 131.92 170.653 133.72 171.666 136.04C172.68 138.333 173.186 141.013 173.186 144.08C173.186 147.147 172.68 149.84 171.666 152.16C170.68 154.453 169.293 156.253 167.506 157.56C165.72 158.84 163.626 159.48 161.226 159.48ZM161.266 154.52C162.626 154.52 163.786 154.107 164.746 153.28C165.706 152.427 166.44 151.227 166.946 149.68C167.48 148.107 167.746 146.24 167.746 144.08C167.746 141.92 167.48 140.067 166.946 138.52C166.44 136.947 165.693 135.747 164.706 134.92C163.746 134.093 162.573 133.68 161.186 133.68C159.853 133.68 158.706 134.093 157.746 134.92C156.786 135.747 156.04 136.947 155.506 138.52C155 140.067 154.746 141.92 154.746 144.08C154.746 146.213 155 148.067 155.506 149.64C156.04 151.187 156.786 152.387 157.746 153.24C158.733 154.093 159.906 154.52 161.266 154.52Z" fill="#1E293B"/>
<path d="M133.414 115.192C132.55 115.192 131.782 115.011 131.11 114.648C130.448 114.285 129.931 113.789 129.558 113.16C129.195 112.52 129.014 111.795 129.014 110.984V103.08H130.598V110.952C130.598 111.496 130.715 111.981 130.95 112.408C131.195 112.824 131.526 113.149 131.942 113.384C132.368 113.619 132.859 113.736 133.414 113.736C133.968 113.736 134.454 113.619 134.87 113.384C135.296 113.149 135.627 112.824 135.862 112.408C136.107 111.981 136.23 111.496 136.23 110.952V103.08H137.814V110.984C137.814 111.795 137.627 112.52 137.254 113.16C136.891 113.789 136.379 114.285 135.718 114.648C135.056 115.011 134.288 115.192 133.414 115.192ZM140.215 118.2V106.376H141.671V108.232L141.479 107.864C141.799 107.352 142.236 106.947 142.791 106.648C143.345 106.339 143.98 106.184 144.695 106.184C145.505 106.184 146.231 106.381 146.871 106.776C147.521 107.171 148.033 107.709 148.407 108.392C148.78 109.064 148.967 109.832 148.967 110.696C148.967 111.539 148.78 112.301 148.407 112.984C148.033 113.667 147.521 114.205 146.871 114.6C146.231 114.995 145.5 115.192 144.679 115.192C143.985 115.192 143.351 115.037 142.775 114.728C142.209 114.419 141.772 113.981 141.463 113.416L141.703 113.16V118.2H140.215ZM144.567 113.752C145.111 113.752 145.596 113.619 146.023 113.352C146.449 113.085 146.78 112.723 147.015 112.264C147.26 111.795 147.383 111.272 147.383 110.696C147.383 110.099 147.26 109.576 147.015 109.128C146.78 108.669 146.449 108.307 146.023 108.04C145.596 107.763 145.111 107.624 144.567 107.624C144.023 107.624 143.532 107.757 143.095 108.024C142.668 108.291 142.327 108.659 142.071 109.128C141.825 109.587 141.703 110.109 141.703 110.696C141.703 111.272 141.825 111.795 142.071 112.264C142.327 112.723 142.668 113.085 143.095 113.352C143.532 113.619 144.023 113.752 144.567 113.752ZM155.939 115V104.52H152.707V103.08H160.707V104.52H157.523V115H155.939ZM165.014 115.192C164.182 115.192 163.43 115 162.758 114.616C162.086 114.221 161.552 113.683 161.158 113C160.763 112.317 160.566 111.544 160.566 110.68C160.566 109.816 160.758 109.048 161.142 108.376C161.536 107.704 162.07 107.171 162.742 106.776C163.414 106.381 164.171 106.184 165.014 106.184C165.846 106.184 166.598 106.381 167.27 106.776C167.942 107.16 168.47 107.688 168.854 108.36C169.248 109.032 169.446 109.805 169.446 110.68C169.446 111.555 169.243 112.333 168.838 113.016C168.432 113.688 167.894 114.221 167.222 114.616C166.56 115 165.824 115.192 165.014 115.192ZM165.014 113.752C165.547 113.752 166.027 113.619 166.454 113.352C166.891 113.085 167.232 112.717 167.478 112.248C167.734 111.779 167.862 111.256 167.862 110.68C167.862 110.093 167.734 109.576 167.478 109.128C167.232 108.669 166.891 108.307 166.454 108.04C166.027 107.763 165.547 107.624 165.014 107.624C164.47 107.624 163.979 107.763 163.542 108.04C163.115 108.307 162.774 108.669 162.518 109.128C162.262 109.576 162.134 110.093 162.134 110.68C162.134 111.256 162.262 111.779 162.518 112.248C162.774 112.717 163.115 113.085 163.542 113.352C163.979 113.619 164.47 113.752 165.014 113.752Z" fill="#94A3B8"/>
<path d="M121.141 187V172.1H123.741L129.321 179.68H128.081L133.541 172.1H136.141V187H133.401V175.2L134.461 175.46L128.801 183H128.481L122.961 175.46L123.861 175.2V187H121.141ZM138.993 187V172.1H145.273C146.259 172.1 147.099 172.273 147.793 172.62C148.499 172.953 149.039 173.433 149.413 174.06C149.799 174.673 149.993 175.42 149.993 176.3C149.993 176.98 149.806 177.62 149.433 178.22C149.073 178.807 148.493 179.293 147.693 179.68V178.42C148.426 178.7 149.006 179.047 149.433 179.46C149.859 179.873 150.159 180.333 150.333 180.84C150.506 181.347 150.593 181.88 150.593 182.44C150.593 183.867 150.119 184.987 149.173 185.8C148.239 186.6 146.939 187 145.273 187H138.993ZM141.713 184.6H145.553C146.259 184.6 146.819 184.407 147.233 184.02C147.659 183.62 147.873 183.093 147.873 182.44C147.873 181.787 147.659 181.26 147.233 180.86C146.819 180.46 146.259 180.26 145.553 180.26H141.713V184.6ZM141.713 177.88H145.413C145.973 177.88 146.419 177.72 146.753 177.4C147.086 177.067 147.253 176.64 147.253 176.12C147.253 175.6 147.086 175.187 146.753 174.88C146.419 174.573 145.973 174.42 145.413 174.42H141.713V177.88ZM152.821 187V172.1H158.381C159.394 172.1 160.288 172.287 161.061 172.66C161.848 173.02 162.461 173.553 162.901 174.26C163.341 174.953 163.561 175.8 163.561 176.8C163.561 177.787 163.334 178.633 162.881 179.34C162.441 180.033 161.834 180.567 161.061 180.94C160.288 181.313 159.394 181.5 158.381 181.5H155.541V187H152.821ZM155.541 179.1H158.421C158.914 179.1 159.341 179.007 159.701 178.82C160.061 178.62 160.341 178.347 160.541 178C160.741 177.653 160.841 177.253 160.841 176.8C160.841 176.333 160.741 175.933 160.541 175.6C160.341 175.253 160.061 174.987 159.701 174.8C159.341 174.6 158.914 174.5 158.421 174.5H155.541V179.1ZM171.11 187.24C170.163 187.24 169.283 187.067 168.47 186.72C167.67 186.373 166.976 185.893 166.39 185.28C165.816 184.653 165.396 183.927 165.13 183.1L167.39 182.12C167.75 182.973 168.27 183.647 168.95 184.14C169.63 184.62 170.396 184.86 171.25 184.86C171.73 184.86 172.143 184.787 172.49 184.64C172.85 184.48 173.123 184.267 173.31 184C173.51 183.733 173.61 183.413 173.61 183.04C173.61 182.6 173.476 182.24 173.21 181.96C172.956 181.667 172.57 181.44 172.05 181.28L169.19 180.36C168.03 180 167.156 179.46 166.57 178.74C165.983 178.02 165.69 177.173 165.69 176.2C165.69 175.347 165.896 174.593 166.31 173.94C166.736 173.287 167.323 172.78 168.07 172.42C168.83 172.047 169.696 171.86 170.67 171.86C171.563 171.86 172.383 172.02 173.13 172.34C173.876 172.647 174.516 173.08 175.05 173.64C175.596 174.187 176.003 174.833 176.27 175.58L174.03 176.58C173.736 175.833 173.296 175.26 172.71 174.86C172.123 174.447 171.443 174.24 170.67 174.24C170.216 174.24 169.816 174.32 169.47 174.48C169.123 174.627 168.85 174.84 168.65 175.12C168.463 175.387 168.37 175.707 168.37 176.08C168.37 176.493 168.503 176.86 168.77 177.18C169.036 177.487 169.443 177.727 169.99 177.9L172.73 178.76C173.916 179.147 174.803 179.68 175.39 180.36C175.99 181.04 176.29 181.88 176.29 182.88C176.29 183.733 176.07 184.487 175.63 185.14C175.19 185.793 174.583 186.307 173.81 186.68C173.036 187.053 172.136 187.24 171.11 187.24Z" fill="#334155"/>
<path d="M121.141 187V172.1H123.741L129.321 179.68H128.081L133.541 172.1H136.141V187H133.401V175.2L134.461 175.46L128.801 183H128.481L122.961 175.46L123.861 175.2V187H121.141ZM138.993 187V172.1H145.273C146.259 172.1 147.099 172.273 147.793 172.62C148.499 172.953 149.039 173.433 149.413 174.06C149.799 174.673 149.993 175.42 149.993 176.3C149.993 176.98 149.806 177.62 149.433 178.22C149.073 178.807 148.493 179.293 147.693 179.68V178.42C148.426 178.7 149.006 179.047 149.433 179.46C149.859 179.873 150.159 180.333 150.333 180.84C150.506 181.347 150.593 181.88 150.593 182.44C150.593 183.867 150.119 184.987 149.173 185.8C148.239 186.6 146.939 187 145.273 187H138.993ZM141.713 184.6H145.553C146.259 184.6 146.819 184.407 147.233 184.02C147.659 183.62 147.873 183.093 147.873 182.44C147.873 181.787 147.659 181.26 147.233 180.86C146.819 180.46 146.259 180.26 145.553 180.26H141.713V184.6ZM141.713 177.88H145.413C145.973 177.88 146.419 177.72 146.753 177.4C147.086 177.067 147.253 176.64 147.253 176.12C147.253 175.6 147.086 175.187 146.753 174.88C146.419 174.573 145.973 174.42 145.413 174.42H141.713V177.88ZM152.821 187V172.1H158.381C159.394 172.1 160.288 172.287 161.061 172.66C161.848 173.02 162.461 173.553 162.901 174.26C163.341 174.953 163.561 175.8 163.561 176.8C163.561 177.787 163.334 178.633 162.881 179.34C162.441 180.033 161.834 180.567 161.061 180.94C160.288 181.313 159.394 181.5 158.381 181.5H155.541V187H152.821ZM155.541 179.1H158.421C158.914 179.1 159.341 179.007 159.701 178.82C160.061 178.62 160.341 178.347 160.541 178C160.741 177.653 160.841 177.253 160.841 176.8C160.841 176.333 160.741 175.933 160.541 175.6C160.341 175.253 160.061 174.987 159.701 174.8C159.341 174.6 158.914 174.5 158.421 174.5H155.541V179.1ZM171.11 187.24C170.163 187.24 169.283 187.067 168.47 186.72C167.67 186.373 166.976 185.893 166.39 185.28C165.816 184.653 165.396 183.927 165.13 183.1L167.39 182.12C167.75 182.973 168.27 183.647 168.95 184.14C169.63 184.62 170.396 184.86 171.25 184.86C171.73 184.86 172.143 184.787 172.49 184.64C172.85 184.48 173.123 184.267 173.31 184C173.51 183.733 173.61 183.413 173.61 183.04C173.61 182.6 173.476 182.24 173.21 181.96C172.956 181.667 172.57 181.44 172.05 181.28L169.19 180.36C168.03 180 167.156 179.46 166.57 178.74C165.983 178.02 165.69 177.173 165.69 176.2C165.69 175.347 165.896 174.593 166.31 173.94C166.736 173.287 167.323 172.78 168.07 172.42C168.83 172.047 169.696 171.86 170.67 171.86C171.563 171.86 172.383 172.02 173.13 172.34C173.876 172.647 174.516 173.08 175.05 173.64C175.596 174.187 176.003 174.833 176.27 175.58L174.03 176.58C173.736 175.833 173.296 175.26 172.71 174.86C172.123 174.447 171.443 174.24 170.67 174.24C170.216 174.24 169.816 174.32 169.47 174.48C169.123 174.627 168.85 174.84 168.65 175.12C168.463 175.387 168.37 175.707 168.37 176.08C168.37 176.493 168.503 176.86 168.77 177.18C169.036 177.487 169.443 177.727 169.99 177.9L172.73 178.76C173.916 179.147 174.803 179.68 175.39 180.36C175.99 181.04 176.29 181.88 176.29 182.88C176.29 183.733 176.07 184.487 175.63 185.14C175.19 185.793 174.583 186.307 173.81 186.68C173.036 187.053 172.136 187.24 171.11 187.24Z" fill="black" fill-opacity="0.2"/>
<path d="M121.141 187V172.1H123.741L129.321 179.68H128.081L133.541 172.1H136.141V187H133.401V175.2L134.461 175.46L128.801 183H128.481L122.961 175.46L123.861 175.2V187H121.141ZM138.993 187V172.1H145.273C146.259 172.1 147.099 172.273 147.793 172.62C148.499 172.953 149.039 173.433 149.413 174.06C149.799 174.673 149.993 175.42 149.993 176.3C149.993 176.98 149.806 177.62 149.433 178.22C149.073 178.807 148.493 179.293 147.693 179.68V178.42C148.426 178.7 149.006 179.047 149.433 179.46C149.859 179.873 150.159 180.333 150.333 180.84C150.506 181.347 150.593 181.88 150.593 182.44C150.593 183.867 150.119 184.987 149.173 185.8C148.239 186.6 146.939 187 145.273 187H138.993ZM141.713 184.6H145.553C146.259 184.6 146.819 184.407 147.233 184.02C147.659 183.62 147.873 183.093 147.873 182.44C147.873 181.787 147.659 181.26 147.233 180.86C146.819 180.46 146.259 180.26 145.553 180.26H141.713V184.6ZM141.713 177.88H145.413C145.973 177.88 146.419 177.72 146.753 177.4C147.086 177.067 147.253 176.64 147.253 176.12C147.253 175.6 147.086 175.187 146.753 174.88C146.419 174.573 145.973 174.42 145.413 174.42H141.713V177.88ZM152.821 187V172.1H158.381C159.394 172.1 160.288 172.287 161.061 172.66C161.848 173.02 162.461 173.553 162.901 174.26C163.341 174.953 163.561 175.8 163.561 176.8C163.561 177.787 163.334 178.633 162.881 179.34C162.441 180.033 161.834 180.567 161.061 180.94C160.288 181.313 159.394 181.5 158.381 181.5H155.541V187H152.821ZM155.541 179.1H158.421C158.914 179.1 159.341 179.007 159.701 178.82C160.061 178.62 160.341 178.347 160.541 178C160.741 177.653 160.841 177.253 160.841 176.8C160.841 176.333 160.741 175.933 160.541 175.6C160.341 175.253 160.061 174.987 159.701 174.8C159.341 174.6 158.914 174.5 158.421 174.5H155.541V179.1ZM171.11 187.24C170.163 187.24 169.283 187.067 168.47 186.72C167.67 186.373 166.976 185.893 166.39 185.28C165.816 184.653 165.396 183.927 165.13 183.1L167.39 182.12C167.75 182.973 168.27 183.647 168.95 184.14C169.63 184.62 170.396 184.86 171.25 184.86C171.73 184.86 172.143 184.787 172.49 184.64C172.85 184.48 173.123 184.267 173.31 184C173.51 183.733 173.61 183.413 173.61 183.04C173.61 182.6 173.476 182.24 173.21 181.96C172.956 181.667 172.57 181.44 172.05 181.28L169.19 180.36C168.03 180 167.156 179.46 166.57 178.74C165.983 178.02 165.69 177.173 165.69 176.2C165.69 175.347 165.896 174.593 166.31 173.94C166.736 173.287 167.323 172.78 168.07 172.42C168.83 172.047 169.696 171.86 170.67 171.86C171.563 171.86 172.383 172.02 173.13 172.34C173.876 172.647 174.516 173.08 175.05 173.64C175.596 174.187 176.003 174.833 176.27 175.58L174.03 176.58C173.736 175.833 173.296 175.26 172.71 174.86C172.123 174.447 171.443 174.24 170.67 174.24C170.216 174.24 169.816 174.32 169.47 174.48C169.123 174.627 168.85 174.84 168.65 175.12C168.463 175.387 168.37 175.707 168.37 176.08C168.37 176.493 168.503 176.86 168.77 177.18C169.036 177.487 169.443 177.727 169.99 177.9L172.73 178.76C173.916 179.147 174.803 179.68 175.39 180.36C175.99 181.04 176.29 181.88 176.29 182.88C176.29 183.733 176.07 184.487 175.63 185.14C175.19 185.793 174.583 186.307 173.81 186.68C173.036 187.053 172.136 187.24 171.11 187.24Z" fill="black" fill-opacity="0.2"/>
<path d="M121.141 187V172.1H123.741L129.321 179.68H128.081L133.541 172.1H136.141V187H133.401V175.2L134.461 175.46L128.801 183H128.481L122.961 175.46L123.861 175.2V187H121.141ZM138.993 187V172.1H145.273C146.259 172.1 147.099 172.273 147.793 172.62C148.499 172.953 149.039 173.433 149.413 174.06C149.799 174.673 149.993 175.42 149.993 176.3C149.993 176.98 149.806 177.62 149.433 178.22C149.073 178.807 148.493 179.293 147.693 179.68V178.42C148.426 178.7 149.006 179.047 149.433 179.46C149.859 179.873 150.159 180.333 150.333 180.84C150.506 181.347 150.593 181.88 150.593 182.44C150.593 183.867 150.119 184.987 149.173 185.8C148.239 186.6 146.939 187 145.273 187H138.993ZM141.713 184.6H145.553C146.259 184.6 146.819 184.407 147.233 184.02C147.659 183.62 147.873 183.093 147.873 182.44C147.873 181.787 147.659 181.26 147.233 180.86C146.819 180.46 146.259 180.26 145.553 180.26H141.713V184.6ZM141.713 177.88H145.413C145.973 177.88 146.419 177.72 146.753 177.4C147.086 177.067 147.253 176.64 147.253 176.12C147.253 175.6 147.086 175.187 146.753 174.88C146.419 174.573 145.973 174.42 145.413 174.42H141.713V177.88ZM152.821 187V172.1H158.381C159.394 172.1 160.288 172.287 161.061 172.66C161.848 173.02 162.461 173.553 162.901 174.26C163.341 174.953 163.561 175.8 163.561 176.8C163.561 177.787 163.334 178.633 162.881 179.34C162.441 180.033 161.834 180.567 161.061 180.94C160.288 181.313 159.394 181.5 158.381 181.5H155.541V187H152.821ZM155.541 179.1H158.421C158.914 179.1 159.341 179.007 159.701 178.82C160.061 178.62 160.341 178.347 160.541 178C160.741 177.653 160.841 177.253 160.841 176.8C160.841 176.333 160.741 175.933 160.541 175.6C160.341 175.253 160.061 174.987 159.701 174.8C159.341 174.6 158.914 174.5 158.421 174.5H155.541V179.1ZM171.11 187.24C170.163 187.24 169.283 187.067 168.47 186.72C167.67 186.373 166.976 185.893 166.39 185.28C165.816 184.653 165.396 183.927 165.13 183.1L167.39 182.12C167.75 182.973 168.27 183.647 168.95 184.14C169.63 184.62 170.396 184.86 171.25 184.86C171.73 184.86 172.143 184.787 172.49 184.64C172.85 184.48 173.123 184.267 173.31 184C173.51 183.733 173.61 183.413 173.61 183.04C173.61 182.6 173.476 182.24 173.21 181.96C172.956 181.667 172.57 181.44 172.05 181.28L169.19 180.36C168.03 180 167.156 179.46 166.57 178.74C165.983 178.02 165.69 177.173 165.69 176.2C165.69 175.347 165.896 174.593 166.31 173.94C166.736 173.287 167.323 172.78 168.07 172.42C168.83 172.047 169.696 171.86 170.67 171.86C171.563 171.86 172.383 172.02 173.13 172.34C173.876 172.647 174.516 173.08 175.05 173.64C175.596 174.187 176.003 174.833 176.27 175.58L174.03 176.58C173.736 175.833 173.296 175.26 172.71 174.86C172.123 174.447 171.443 174.24 170.67 174.24C170.216 174.24 169.816 174.32 169.47 174.48C169.123 174.627 168.85 174.84 168.65 175.12C168.463 175.387 168.37 175.707 168.37 176.08C168.37 176.493 168.503 176.86 168.77 177.18C169.036 177.487 169.443 177.727 169.99 177.9L172.73 178.76C173.916 179.147 174.803 179.68 175.39 180.36C175.99 181.04 176.29 181.88 176.29 182.88C176.29 183.733 176.07 184.487 175.63 185.14C175.19 185.793 174.583 186.307 173.81 186.68C173.036 187.053 172.136 187.24 171.11 187.24Z" fill="black" fill-opacity="0.2"/>
<path d="M121.141 187V172.1H123.741L129.321 179.68H128.081L133.541 172.1H136.141V187H133.401V175.2L134.461 175.46L128.801 183H128.481L122.961 175.46L123.861 175.2V187H121.141ZM138.993 187V172.1H145.273C146.259 172.1 147.099 172.273 147.793 172.62C148.499 172.953 149.039 173.433 149.413 174.06C149.799 174.673 149.993 175.42 149.993 176.3C149.993 176.98 149.806 177.62 149.433 178.22C149.073 178.807 148.493 179.293 147.693 179.68V178.42C148.426 178.7 149.006 179.047 149.433 179.46C149.859 179.873 150.159 180.333 150.333 180.84C150.506 181.347 150.593 181.88 150.593 182.44C150.593 183.867 150.119 184.987 149.173 185.8C148.239 186.6 146.939 187 145.273 187H138.993ZM141.713 184.6H145.553C146.259 184.6 146.819 184.407 147.233 184.02C147.659 183.62 147.873 183.093 147.873 182.44C147.873 181.787 147.659 181.26 147.233 180.86C146.819 180.46 146.259 180.26 145.553 180.26H141.713V184.6ZM141.713 177.88H145.413C145.973 177.88 146.419 177.72 146.753 177.4C147.086 177.067 147.253 176.64 147.253 176.12C147.253 175.6 147.086 175.187 146.753 174.88C146.419 174.573 145.973 174.42 145.413 174.42H141.713V177.88ZM152.821 187V172.1H158.381C159.394 172.1 160.288 172.287 161.061 172.66C161.848 173.02 162.461 173.553 162.901 174.26C163.341 174.953 163.561 175.8 163.561 176.8C163.561 177.787 163.334 178.633 162.881 179.34C162.441 180.033 161.834 180.567 161.061 180.94C160.288 181.313 159.394 181.5 158.381 181.5H155.541V187H152.821ZM155.541 179.1H158.421C158.914 179.1 159.341 179.007 159.701 178.82C160.061 178.62 160.341 178.347 160.541 178C160.741 177.653 160.841 177.253 160.841 176.8C160.841 176.333 160.741 175.933 160.541 175.6C160.341 175.253 160.061 174.987 159.701 174.8C159.341 174.6 158.914 174.5 158.421 174.5H155.541V179.1ZM171.11 187.24C170.163 187.24 169.283 187.067 168.47 186.72C167.67 186.373 166.976 185.893 166.39 185.28C165.816 184.653 165.396 183.927 165.13 183.1L167.39 182.12C167.75 182.973 168.27 183.647 168.95 184.14C169.63 184.62 170.396 184.86 171.25 184.86C171.73 184.86 172.143 184.787 172.49 184.64C172.85 184.48 173.123 184.267 173.31 184C173.51 183.733 173.61 183.413 173.61 183.04C173.61 182.6 173.476 182.24 173.21 181.96C172.956 181.667 172.57 181.44 172.05 181.28L169.19 180.36C168.03 180 167.156 179.46 166.57 178.74C165.983 178.02 165.69 177.173 165.69 176.2C165.69 175.347 165.896 174.593 166.31 173.94C166.736 173.287 167.323 172.78 168.07 172.42C168.83 172.047 169.696 171.86 170.67 171.86C171.563 171.86 172.383 172.02 173.13 172.34C173.876 172.647 174.516 173.08 175.05 173.64C175.596 174.187 176.003 174.833 176.27 175.58L174.03 176.58C173.736 175.833 173.296 175.26 172.71 174.86C172.123 174.447 171.443 174.24 170.67 174.24C170.216 174.24 169.816 174.32 169.47 174.48C169.123 174.627 168.85 174.84 168.65 175.12C168.463 175.387 168.37 175.707 168.37 176.08C168.37 176.493 168.503 176.86 168.77 177.18C169.036 177.487 169.443 177.727 169.99 177.9L172.73 178.76C173.916 179.147 174.803 179.68 175.39 180.36C175.99 181.04 176.29 181.88 176.29 182.88C176.29 183.733 176.07 184.487 175.63 185.14C175.19 185.793 174.583 186.307 173.81 186.68C173.036 187.053 172.136 187.24 171.11 187.24Z" fill="black" fill-opacity="0.2"/>
<defs>
<filter id="filter0_d_898_352" x="8.33325" y="11.9346" width="234.987" height="270.806" filterUnits="userSpaceOnUse" color-interpolation-filters="sRGB">
<feFlood flood-opacity="0" result="BackgroundImageFix"/>
<feColorMatrix in="SourceAlpha" type="matrix" values="0 0 0 0 0 0 0 0 0 0 0 0 0 0 0 0 0 0 127 0" result="hardAlpha"/>
<feOffset dy="5"/>
<feGaussianBlur stdDeviation="7.5"/>
<feColorMatrix type="matrix" values="0 0 0 0 0.505882 0 0 0 0 0.831373 0 0 0 0 0.996078 0 0 0 0.2 0"/>
<feBlend mode="normal" in2="BackgroundImageFix" result="effect1_dropShadow_898_352"/>
<feBlend mode="normal" in="SourceGraphic" in2="effect1_dropShadow_898_352" result="shape"/>
</filter>
</defs>
</svg>
