<svg width="951" height="465" viewBox="0 0 951 465" fill="none" xmlns="http://www.w3.org/2000/svg">
<path d="M832.315 465.001V384.91H665.296V329.236L828.408 101.172H897.755V329.236H950.987V384.91H897.755V465.001H832.315ZM714.132 353.166L702.411 329.236H832.315V153.427L849.408 158.799L714.132 353.166Z" fill="#0049AC"/>
<path d="M167.019 465.001V384.91H0V329.236L163.112 101.172H232.46V329.236H285.691V384.91H232.46V465.001H167.019ZM48.836 353.166L37.1154 329.236H167.019V153.427L184.112 158.799L48.836 353.166Z" fill="#0049AC"/>
<path fill-rule="evenodd" clip-rule="evenodd" d="M613.563 280.504C613.563 281.37 613.551 282.249 613.526 283.115C613.501 285.132 613.415 287.149 613.291 289.142C608.836 360.482 549.561 416.972 477.095 416.972C469.101 416.972 461.268 416.292 453.657 414.968C435.145 411.762 417.907 404.82 402.76 394.958C374.67 376.68 353.732 348.355 345.045 315.067C343.077 307.543 341.741 299.772 341.097 291.802C340.949 290.095 340.837 288.399 340.775 286.667C340.775 286.654 340.775 286.654 340.775 286.654C340.676 284.625 340.627 282.571 340.627 280.504C340.627 279.762 340.627 279.019 340.664 278.277C340.652 278.017 340.652 277.769 340.664 277.509C340.664 277.509 340.664 277.509 340.664 277.497C340.664 277.089 340.676 276.68 340.701 276.272C340.726 275.27 340.763 274.267 340.813 273.265C341.196 265.939 342.161 258.762 343.671 251.782C350.044 221.959 366.181 195.75 388.567 176.656C388.567 176.643 388.567 176.643 388.579 176.643C412.413 156.312 443.325 144.036 477.095 144.036C482.899 144.036 488.604 144.395 494.209 145.1C512.202 147.352 529.106 153.119 544.215 161.67C584.743 184.6 612.375 227.677 613.514 277.287C613.551 278.363 613.563 279.428 613.563 280.504Z" fill="#F3F4F6"/>
<path d="M452.655 161.138C449.735 161.435 445.837 161.2 443.114 162.276C443.127 162.14 443.127 162.004 443.139 161.856C442.347 161.398 441.06 160.507 440.293 159.306C440.021 158.886 438.276 158.849 438.301 158.453C438.338 157.661 436.432 157.92 435.912 157.883C435.912 158.205 435.801 158.601 435.875 158.91C435.727 157.401 433.92 157.97 433.054 157.698C433.116 158.007 432.93 158.081 432.881 158.304C432.051 157.784 431.965 159.245 431.915 159.888C431.594 159.48 431.42 158.712 431 158.49C430.307 158.131 430.121 158.96 429.539 159.121C429.552 159.393 429.478 159.678 429.502 159.938C429.577 160.111 429.663 160.16 429.638 160.371C429.589 160.222 429.552 160.086 429.502 159.938C428.859 159.752 428.389 159.121 427.856 159.839C425.505 157.735 425.542 164.479 425.666 165.481C425.382 165.481 424.837 165.321 424.602 165.197C424.763 164.194 425.493 162.227 424.788 161.286C424.515 160.94 423.612 160.383 423.352 160.989C422.968 161.917 423.736 161.732 423.983 162.276C422.61 161.856 422.56 162.685 421.818 163.576C421.236 164.306 420.518 163.724 421.149 165.395C420.271 164.826 420.135 166.707 420.159 167.387C421.508 167.226 422.882 166.706 424.107 166.607C423.364 167.362 421.545 167.857 420.58 168.241C419.207 168.81 418.056 169.478 416.583 170.357C415.358 171.087 415.234 171.755 413.935 172.349C412.834 172.857 411.584 173.649 410.619 174.416C408.837 175.802 407.624 177.547 406.424 179.514C406.089 180.059 404.815 182.113 404.79 182.707C404.79 182.719 404.939 184.365 404.753 184.365C405.099 184.563 406.473 183.957 406.857 183.87C405.929 186.172 409.579 185.788 410.223 184.303C410.606 183.412 412.351 182.051 413.131 181.383C415.296 179.527 417.66 178.165 419.813 176.445C421.323 175.233 422.783 174.49 424.676 174.23C425.926 174.069 429.478 173.079 430.294 172.065C431.235 170.914 434.205 170.295 435.578 170.035C437.991 169.577 440.491 169.169 442.867 168.451C445.169 167.771 447.767 167.387 449.401 165.457C450.861 163.737 454.153 164.281 455.761 162.685C456.888 163.613 457.989 161.608 459.115 161.658C459.758 161.682 462.58 161.138 462.629 160.643C459.338 160.433 455.922 160.791 452.655 161.138Z" fill="#0049AC"/>
<path d="M354.789 299.582C354.591 298.206 353.732 297.875 354.03 299.533C354.035 300.156 353.334 302.394 354.385 301.824C354.562 300.885 354.941 300.624 354.789 299.582Z" fill="#0049AC"/>
<path d="M356.34 313.503C356.632 311.429 356.673 308.785 356.239 306.592C356.043 305.594 355.63 304.858 355.672 303.76C355.701 303.061 355.501 300.112 354.388 301.825C354.07 303.699 355.337 306.068 355.662 307.889C355.865 309.014 354.989 313.644 356.34 313.503Z" fill="#0049AC"/>
<path d="M357.535 310.076C357.522 310.378 357.948 312.634 358.532 311.581C358.907 310.909 358.155 309.705 357.535 310.076Z" fill="#0049AC"/>
<path d="M388.566 176.656C388.207 177.225 387.725 177.782 387.564 178.413C387.316 179.378 386.599 180.368 386.178 181.234C385.794 182.014 385.584 183.165 385.114 183.833C384.322 184.959 383.567 184.823 383.889 186.419C384.087 187.446 385.732 188.288 384.916 189.426C384.26 190.33 385.262 191.246 384.891 192.334C384.582 193.225 383.901 194.129 383.74 194.822C383.629 195.304 383.641 197.049 382.639 196.134C382.985 197.111 381.909 198.745 381.315 199.549C381.179 199.71 379.83 199.648 380.3 200.527C380.622 201.133 380.783 201.665 379.879 202.234C380.857 201.739 382.107 200.366 382.119 202.407C382.119 203.323 381.81 205.291 380.956 205.823C380.857 205.872 380.77 205.934 380.671 206.009C380.795 205.971 380.882 206.021 380.956 205.823C382.107 206.367 380.337 209.115 379.892 209.944C378.939 211.726 377.132 211.75 377.652 209.56C377.256 210.105 376.08 211.8 375.461 211.726C374.236 211.565 374.954 208.818 376.315 209.214C375.387 207.753 372.269 210.736 372.962 207.927C373.296 206.59 374.558 205.415 375.338 204.363C376.761 202.469 378.481 200.353 379.855 198.274C378.766 198.311 377.429 199.883 376.835 200.737C375.734 202.296 373.457 202.247 371.724 202.346C371.724 202.42 371.712 202.506 371.712 202.581C372.665 202.68 373.345 204.734 372.516 205.439C371.093 206.664 369.757 203.843 370.66 202.742C369.237 202.234 368.111 204.61 367.393 205.526C369.188 204.214 370.054 205.588 369.138 207.283C368.42 208.595 367.616 209.696 367.047 211.107C368.012 209.882 367.158 212.06 367.839 212.109C369.089 212.196 368.903 213 368.16 213.755C368.903 213.136 369.262 212.431 369.806 211.664C370.4 210.835 371.068 209.461 371.266 211.181C371.304 211.565 370.66 212.146 370.833 212.443C371.118 212.914 370.932 213.854 370.623 214.287C370.054 215.104 369.051 215.574 368.433 216.465C367.43 217.925 365.017 218.569 363.879 219.98C363.582 220.338 362.617 222.108 362.282 222.207C360.451 222.727 361.602 219.831 361.936 219.138C360.55 219.744 359.35 220.772 358.384 221.91C357.246 223.234 356.912 224.744 355.971 226.167C357.828 226.847 354.536 229.52 354.029 229.892C353.435 230.3 353.063 231.278 352.457 231.76C351.492 232.54 351.133 232.577 350.811 233.852C350.366 235.559 348.905 237.032 348.646 238.641C348.373 240.262 347.161 241.709 346.628 243.232C346.01 245.051 346.443 247.216 345.304 248.862C344.896 249.444 344.945 250.161 344.562 250.78C344.327 251.176 343.968 251.436 343.671 251.783C350.044 221.959 366.18 195.75 388.566 176.656Z" fill="#0049AC"/>
<path d="M353.167 298.648C353.111 298.783 353.053 298.92 352.997 299.055C352.392 301.556 355.184 299.233 353.167 298.648Z" fill="#0049AC"/>
<path d="M348.6 295.88C348.584 296.398 348.513 298.97 349.872 298.132C350.674 297.637 351.458 299.343 351.821 298.362C352.125 297.542 349.356 294.428 348.6 295.88Z" fill="#0049AC"/>
<path d="M352.705 296.867C352.153 297.529 352.778 298.503 353.167 298.648C353.357 298.273 353.357 296.086 352.705 296.867Z" fill="#0049AC"/>
<path d="M343.72 286.271C343.695 286.258 343.064 285.64 342.99 285.615C342.829 285.541 342.656 285.801 342.446 285.788C341.913 285.751 342.47 285.256 342.26 284.947C341.456 283.709 341.74 282.756 341.344 281.37C341.567 280.182 340.775 279.341 340.713 278.24C340.701 278.252 340.676 278.264 340.664 278.277C340.651 278.017 340.651 277.769 340.664 277.51C340.664 277.51 340.664 277.509 340.664 277.497C340.763 277.41 340.763 277.237 340.763 277.002C341.678 277.151 342.025 279.799 341.975 280.764C341.963 281.049 342.037 281.309 342.087 281.556V281.63H342.099C342.384 282.793 343.188 283.709 343.163 284.798C343.881 284.501 343.869 285.59 343.72 286.271Z" fill="#0049AC"/>
<path d="M340.7 276.272C340.725 275.27 340.762 274.267 340.812 273.265C341.245 273.983 341.158 275.591 340.7 276.272Z" fill="#0049AC"/>
<path d="M344.213 296.505C344.389 296.677 344.338 297.178 344.476 297.268C344.913 297.559 344.558 297.845 345.21 297.935C344.83 296.346 346.053 297.221 346.406 296.36C346.688 295.682 347.529 297.23 347.945 297.283C348.027 295.354 347.69 293.767 346.497 292.232C345.938 291.514 345.402 291.445 344.726 291.093C344.715 291.087 344.501 291.362 344.484 291.383C344.16 291.779 344.271 291.087 344.121 291.055C343.707 290.962 343.729 289.567 343.072 290.985C342.556 291.87 343.473 292.394 343.287 293.264C343.155 293.879 341.429 294.101 342.232 295.163C342.97 296.138 342.988 295.945 343.611 296.39C343.812 296.534 343.984 296.277 344.213 296.505Z" fill="#0049AC"/>
<path d="M402.76 394.958C374.669 376.68 353.731 348.355 345.044 315.067C345.601 314.634 345.291 313.161 346.121 313.223C347.89 313.347 345.96 316.861 347.358 316.824C347.185 315.809 347.123 314.708 347.16 313.656C347.197 312.876 348.063 313.817 347.89 314.522C347.989 314.535 348.088 314.547 348.187 314.547C348.187 314.398 348.199 314.238 348.199 314.077C348.88 314.844 349.895 314.72 349.647 316.279C349.288 316.131 348.793 316.143 348.435 315.958C348.534 316.886 349.276 316.626 349.536 317.096C349.783 317.542 349.895 318.853 350.13 319.126C350.563 319.596 351.615 319.509 352.209 319.979C352.58 320.264 352.753 320.92 353.087 321.204C353.31 320.561 352.766 319.15 353.607 318.903C354.263 318.717 354.238 319.472 354.288 319.88C354.325 320.14 355.76 320.499 356.119 320.499C356.948 320.474 358.198 319.621 357.505 321.526C357.394 321.848 357.357 323.964 357.344 323.964C358.025 324.546 357.617 325.932 358.396 326.377C359.064 326.773 359.535 327.33 359.918 328.011C360.265 328.592 360.611 329.322 360.908 329.941C361.02 330.201 361.205 330.424 361.329 330.671C361.428 330.869 361.465 330.919 361.502 331.166C361.614 332.069 361.824 331.55 362.183 332.131C363.111 333.653 363.569 334.643 365.4 335.064C367.009 335.435 368.073 337.081 369.36 338.158C370.375 338.999 371.216 341.004 371.773 342.192C372.305 343.33 372.578 345.545 373.592 346.399C375.746 348.218 374.904 351.126 374.248 353.342C374.347 353.342 374.446 353.354 374.545 353.366C374.533 351.894 375.671 352.686 376.377 353.02C377.404 353.502 377.577 353.589 378.183 354.678C378.22 354.727 380.324 355.878 380.634 356.014C381.537 356.435 381.896 357.537 382.898 357.871C383.43 358.044 383.789 358.811 384.061 359.306C384.259 359.665 384.358 359.999 384.47 360.383C384.631 360.952 385.274 360.284 385.744 360.482C386.598 360.828 387.155 361.41 388.071 361.756C388.85 362.053 389.927 362.511 390.632 362.944C393.219 364.516 394.308 367.548 396.745 369.218C397.463 369.726 399.134 369.825 399.319 370.926C399.443 371.656 400.025 372.498 400.371 373.215C400.879 374.267 401.794 375.579 401.745 376.73C401.683 378.635 401.435 379.403 400.693 380.949C400.161 382.076 400.507 383.474 399.74 384.501C399.158 385.281 400.198 387.038 400.755 387.954C401.101 388.535 401.077 389.352 401.435 389.872C401.869 390.503 402.339 390.478 402.524 390.998C402.302 390.862 402.104 390.824 401.869 390.738C402.388 391.629 402.166 392.433 402.747 393.349C402.982 393.708 402.797 394.512 402.76 394.958Z" fill="#0049AC"/>
<path d="M343.283 289.544C343.9 289.267 344.091 286.764 343.228 287.071C343.145 287.216 342.043 290.101 343.283 289.544Z" fill="#0049AC"/>
<path d="M341.096 291.802C340.948 290.095 340.836 288.399 340.774 286.667C341.566 287.62 342.247 288.919 342.581 289.921C343.051 291.32 342.049 291.889 341.096 291.802Z" fill="#0049AC"/>
<path d="M612.622 281.346C611.657 280.504 610.184 281.296 609.231 280.306C608.278 279.316 608.303 277.633 608.118 276.346C608.019 275.653 608.204 273.327 607.548 273.116C606.694 272.832 605.927 275.27 605.556 275.678C604.962 276.359 604.566 277.299 604.145 278.054C603.898 278.475 603.848 279.23 603.527 279.353C602.92 279.588 602.598 279.885 602.636 280.541C601.596 280.145 600.124 279.737 599.344 280.628C598.626 281.445 598.7 279.91 597.908 279.898C598.181 278.648 598.391 276.074 597.735 274.96C596.807 273.376 595.99 274.502 595.483 275.789C594.332 274.7 594.703 272.3 593.503 270.939C592.402 269.701 591.436 268.563 590.768 267.139C590.409 266.409 590.075 265.704 590.013 264.875C589.952 263.786 590.162 263.415 591.139 263.229C591.387 263.192 592.637 263.105 592.847 263.229C593.392 263.563 593.367 264.17 593.874 264.776C594.741 265.791 595.124 267.597 595.854 268.785C596.547 269.911 597.277 269.305 598.02 270.122C598.379 270.518 598.96 270.221 599.109 270.852C599.22 271.372 599.294 271.495 599.629 271.867C599.827 272.089 601.175 273.166 601.509 273.314C601.992 273.537 602.92 273.203 603.291 273.624C603.378 273.71 603.663 274.119 603.774 274.144C605.358 274.342 606.014 272.238 607.734 272.077C608.056 273.215 608.415 274.478 608.761 275.678C609.219 277.237 611.323 276 612.152 276.915C612.251 277.027 612.746 277.151 613.513 277.287C612.374 227.677 584.742 184.6 544.215 161.67C543.497 161.843 542.804 162.078 542.148 162.363L542.532 162.573L542.346 162.771C541.505 162.722 540.799 162.524 540.081 162.153V161.955H540.824C539.24 160.569 536.79 159.888 534.426 160.098V160.507C536.146 161.286 537.495 162.091 538.943 163.18C535.775 162.586 533.931 163.044 535.738 165.655C533.548 164.417 531.221 164.058 530.083 165.246C530.318 165.321 530.503 165.457 530.652 165.655L529.142 165.246C529.254 165.011 529.439 164.949 529.699 165.036C529.761 164.739 529.699 164.467 529.526 164.219H527.645C527.509 163.749 527.323 163.378 527.063 162.982L526.506 162.771H526.692L527.063 162.982C543.806 160.185 523.871 158.49 516.149 157.425C516.322 157.326 516.372 157.178 516.334 157.005C509.578 155.26 502.091 155.47 495.978 157.623C495.025 157.326 493.924 157.487 492.971 158.044V158.453C491.709 158.341 490.781 158.811 490.508 159.888C491.635 159.455 492.773 159.368 493.899 159.69C492.439 160.494 491.078 161.472 490.137 162.363V162.982L490.694 163.18C489.939 163.167 489.147 163.464 488.813 163.996L489.184 164.219C487.44 165.073 485.93 165.642 484.296 166.063C483.616 165.865 483.282 166.063 483.356 166.682L483.727 166.892C481.784 167.313 480.077 167.894 478.258 168.748V170.803C477.911 172.015 478.319 173.785 479.198 175.121C478.814 176.631 479.606 177.435 481.277 177.596L481.475 178.005C484.618 178.054 487.242 177.25 489.766 175.542C490.62 176.656 491.164 177.794 491.449 179.032C492.377 179.972 493.305 180.715 494.283 181.296V181.717C492.909 181.754 491.87 182.175 491.461 183.128C491.449 183.511 491.387 183.932 491.263 184.39C491.226 183.883 491.3 183.474 491.461 183.128C491.486 182.002 491.028 181.16 489.766 180.678C488.529 176.47 486.61 179.044 484.866 182.942L484.482 183.152C484.321 184.056 484.729 184.551 485.67 184.588C485.534 184.984 485.509 185.405 485.608 185.825L485.992 186.036C484.395 187.422 479.99 189.798 476.575 190.973L476.377 192.421C473.073 195.032 470.09 197.73 467.702 200.267C466.774 200.378 465.994 200.155 465.821 199.413C464.967 199.116 464.064 199.116 463.185 199.413C463.247 200.378 463.42 201.182 463.767 202.086C460.116 201.059 457.06 201.504 456.775 204.969C457.171 205.08 457.369 205.353 457.357 205.798C458.953 205.588 460.5 206.083 461.502 207.234L462.084 207.246C461.774 208.904 462.628 209.733 464.361 209.709C463.928 210.649 463.853 211.577 464.126 212.592H463.767C463.68 214.337 463.433 216.044 463 217.74C461.824 217.616 460.611 217.678 459.609 217.938C457.815 217.443 455.723 217.455 453.756 217.938C451.59 216.676 448.484 216.725 446.417 218.556C445.514 218.47 444.796 218.742 444.165 219.373C444.833 222.343 444.982 225.288 444.611 228.32C442.866 230.399 442.198 232.961 442.829 235.436L443.472 235.349C443.72 236.673 443.596 238.467 443.212 239.965C445.18 240.385 446.863 240.324 448.868 239.754C449.226 241.177 449.932 242.514 450.934 243.665C448.645 248.318 445.403 252.228 441.517 255.198L441.925 255.21C441.22 259.541 439.5 263.65 436.802 266.731C426.964 271.396 419.948 281.94 421.161 292.656L421.619 292.594C422.274 298.868 422.794 307.419 422.868 312.839C427.794 323.481 441.591 326.204 454.832 322.764C462.529 320.759 469.212 321.452 469.917 325.659C475.387 325.659 472.305 333.035 477.886 335.077C480.992 337.811 486.276 339.371 489.209 339.148C488.541 342.229 489.778 343.083 492.389 343.714C491.486 345.199 490.781 347.179 490.508 349.072L490.904 348.033C493.837 349.171 495.681 353.75 496.671 355.272C498.577 358.155 497.339 359.566 503.267 361.942C506.299 365.246 498.045 366.347 499.369 369.243C499.975 370.221 500.977 371.594 499.752 372.535C491.709 381.321 501.002 387.026 499.554 388.597C500.544 390.305 501.943 391.815 503.7 393.114C503.428 395.589 506.756 395.23 509.739 394.351C515.394 393.324 513.971 391.381 518.785 390.057C520.975 389.463 529.179 389.872 531.592 389.005C532.966 387.793 534.278 386.877 535.738 386.122C543.311 376.495 541.43 371.52 545.588 371.916C551.912 369.614 557.418 363.835 562.665 356.98C565.685 353.02 560.091 346.969 564.806 343.479C567.145 341.759 569.385 338.294 572.912 336.339C575.312 335.002 578.827 335.485 581.401 333.381C584.42 330.919 588.986 331.327 590.583 327.862C593.911 324.224 595.768 319.348 595.285 315.302H594.159C590.187 317.084 585.435 318.89 581.153 320.239H580.398L580.027 320.041C578.827 318.94 578.356 317.851 578.901 316.75C578.332 315.252 581.227 314.745 582.292 314.893C587.576 312.072 593.119 309.152 599.059 306.046C599.418 305.266 599.27 304.177 600.037 303.62C600.581 303.224 601.485 303.175 602.079 302.952C603.415 302.444 605.841 302.024 605.841 300.168C605.841 299.301 605.89 299.277 606.793 299.153C608.254 298.955 607.684 298.089 608.39 297.297C609.083 296.505 610.716 296.468 611.125 295.552C611.347 293.262 612.065 291.184 613.29 289.142C613.414 287.149 613.501 285.132 613.525 283.115C613.278 282.435 612.993 281.667 612.622 281.346ZM550.625 209.709C552.481 209.412 553.756 209.053 555.525 208.372C555.401 208.842 555.067 209.016 554.585 208.879C555.265 210.179 555.339 211.317 554.758 212.654C553.409 211.924 552.048 211.849 550.625 212.381C549.548 211.552 549.561 210.661 550.625 209.709ZM535.738 219.373C537.285 218.717 537.433 216.985 536.864 215.265C538.498 214.881 538.98 213.792 538.374 212.171C539.24 211.726 539.896 210.773 540.081 209.709L540.453 209.498C542.012 210.538 543.522 211.132 545.167 211.354C552.506 214.114 575.993 220.091 556.082 224.942C555.711 223.717 554.906 223.383 553.83 224.1C553.397 223.89 553.149 223.593 553.087 223.098C549.61 222.256 546.108 223.024 544.041 225.548L543.46 225.759C542.074 225.078 540.403 225.028 538.757 225.548V225.14C538.312 224.657 537.792 224.397 537.173 224.41C535.961 222.875 535.478 221.267 535.738 219.373ZM493.714 186.246L493.639 185.751C494.419 185.479 494.778 184.959 494.654 184.167C498.973 184.563 502.165 183.115 503.316 179.44H502.388C502.623 178.45 502.722 177.609 502.759 176.569C506.447 174.441 505.742 172.609 501.819 171.211C501.868 170.295 501.819 169.417 501.633 168.55C503.7 167.412 505.482 166.298 507.276 165.036C507.289 164.603 507.091 164.256 506.707 163.996C507.759 162.635 509.467 162.511 511.063 163.39L510.865 163.6C510.357 164.689 509.355 165.754 508.229 166.484C507.301 166.001 506.534 166.001 506.534 167.09L506.917 167.3C506.917 168.451 507.487 169.392 508.452 169.775C508.13 170.728 508.254 171.644 508.798 172.448C509.318 172.683 509.838 172.721 510.37 172.572C514.033 173.376 518.933 173.884 522.918 173.896L522.163 174.107V174.948C519.304 173.537 516.186 173.711 514.07 175.567C512.795 175.146 511.768 175.332 511.62 176.359C511.397 177.213 511.62 177.992 512.189 178.623C511.595 178.858 511.347 179.316 511.508 179.947C511.31 181.519 511.162 183.066 511.063 184.588L509.739 184.798C509.64 185.269 509.38 185.627 508.984 185.825C505.284 184.563 501.373 185.405 498.354 187.966C498.144 187.484 497.772 187.088 497.302 186.852C497.599 185.64 496.906 185.157 495.409 185.417C494.84 185.9 493.503 186.543 492.389 186.852L491.833 186.444L493.714 186.246ZM528.016 254.592C520.765 251.263 517.683 254.777 517.263 261.992C515.023 259.628 512.115 258.292 508.984 258.279C506.509 253.651 501.943 251.585 496.287 251.993C495.879 251.312 495.582 250.607 495.409 249.852C494.728 249.444 494.011 249.468 493.528 250.062C493.169 248.874 493.986 247.711 495.409 246.758C495.347 245.1 494.852 243.702 493.899 242.44L494.283 242.229C494.753 241.276 494.914 240.484 494.852 239.358C494.604 239.284 494.419 239.148 494.283 238.938C493.763 238.95 493.355 239.247 493.144 239.754C490.595 238.133 486.945 238.282 483.727 239.754C482.477 238.826 480.943 239.086 479.396 240.175C477.837 239.284 475.956 239.272 474.496 240.175C471.377 239.89 468.024 241.029 465.821 243.256C461.663 245.063 458.644 245.583 453.954 245.323C453.681 244.593 453.347 243.801 453.013 243.058C456.045 242.006 459.968 240.472 462.443 239.358C464.682 238.74 465.821 237.378 466.205 235.027C468.482 230.312 472.095 224.125 475.82 218.556C480.398 220.252 484.296 219.348 487.687 215.871V215.438C489.791 215.822 491.189 217.109 491.647 219.175C489.865 221.118 492.142 220.895 493.714 220.821V221.242C492.983 221.155 492.798 221.44 493.144 222.058H494.852C495.916 223.531 497.327 224.917 498.8 225.969C504.418 227.627 507.437 231.711 507.35 237.292H508.229C510.308 234.829 510.803 232.329 509.17 229.879C509.318 228.728 509.912 228.32 511.063 228.852L511.236 229.879C515.641 228.926 510.667 226.093 507.091 224.1C507.412 223.568 507.326 222.974 506.917 222.467C503.205 220.833 499.888 218.482 496.894 215.475C496.547 213.668 497.055 212.32 498.614 211.763L498.985 211.973C498.775 213.087 499.047 213.879 499.752 214.646C500.359 214.931 500.792 214.869 501.064 214.448C505.333 217.975 509.924 221.316 514.639 224.323C514.478 225.981 514.54 227.627 514.825 229.261C515.171 229.483 515.542 229.619 515.951 229.681V229.879C515.592 231.364 516.718 232.552 518.587 233.369C518.451 237.019 520.294 239.544 523.499 241.202C523.722 241.524 523.908 241.858 524.044 242.229C526.667 244.098 527.286 242.774 526.506 239.358C527.657 239.544 527.397 238.504 526.952 237.948C527.509 238.356 528.313 238.121 528.585 237.49C528.635 237.811 528.808 240.051 529.291 240.163C529.612 240.237 529.699 238.121 529.699 238.121C530.367 239.086 530.838 238.43 530.838 239.767C530.565 240.497 530.813 240.831 531.58 240.769C532.719 240.93 533.139 240.2 532.917 239.148C532.112 238.059 531.11 237.106 529.996 236.364C528.796 235.559 528.338 234.47 527.682 233.183C526.841 231.525 524.836 231.018 524.044 229.063C525.554 231.005 529.563 229.657 527.818 227.813C528.969 228.53 529.192 227.862 529.897 227.194C530.145 227.268 530.392 227.342 530.652 227.417C529.786 228.06 530.701 228.332 529.712 229.162C529.353 229.471 528.957 229.978 529.452 230.387C530.59 231.327 530.85 230.201 531.469 230.337C533.511 230.795 530.107 233.443 533.288 234C532.607 233.889 531.902 234.05 531.865 234.866C531.803 236.45 532.83 236.512 534.055 237.094C533.164 237.453 532.632 238.17 532.917 239.148C533.981 239.47 534.043 238.579 534.946 238.715C536.542 238.938 535.775 242.167 537.124 241.536C538.658 246.981 539.129 240.88 540.651 241.809C541.604 243.566 543.348 243.887 545.353 243.058C545.761 242.563 545.823 242.006 545.539 241.413C548.979 243.665 552.407 244.011 555.525 241.413C556.057 241.883 556.688 242.093 557.418 242.031C557.319 242.539 557.443 242.959 557.777 243.256C556.119 260.717 544.512 262.437 528.016 254.592ZM577.008 312.419C576.636 311.726 576.129 311.28 575.634 310.587C575.065 309.77 574.347 309.288 573.716 308.619C572.825 307.654 570.746 306.751 570.585 305.452C570.313 303.162 569.645 301.368 568.816 299.45C568.494 298.732 567.343 297.866 566.638 297.507C565.747 297.024 565.895 294.735 565.895 293.931C565.895 292.112 565.796 289.426 564.942 287.731C564.67 287.162 563.952 286.642 563.532 286.172C562.715 285.256 561.552 285.516 561.552 284.019C561.552 283.239 562.418 282.917 562.133 281.964C562.034 281.643 561.527 281.42 561.366 281.135C560.995 280.479 560.599 279.923 560.227 279.279C558.644 276.47 557.022 272.807 556.28 270.233C557.072 271.248 558.322 270.604 558.173 269.367C559.844 269.342 560.364 272.003 561.279 273.005C561.972 273.772 562.22 274.366 562.443 275.356C562.616 276.099 563.482 276.544 563.816 277.225C564.373 278.363 564.299 279.663 564.942 280.727C565.611 281.816 565.932 281.333 566.836 281.964C570.461 284.501 567.541 290.268 570.61 293.077C571.29 293.696 572.157 293.931 572.775 294.624C573.617 295.552 573.555 296.703 573.988 297.816C574.669 299.549 575.708 300.898 576.537 302.754C576.896 303.546 578.369 305.377 577.478 306.355C576.661 307.246 577.292 307.617 577.577 308.718C578.022 310.5 577.738 312.53 578.332 314.275C577.292 314.238 577.404 313.161 577.008 312.419ZM586.437 236.463L586.251 235.436C586.771 234.136 586.833 232.379 586.437 230.906C585.843 229.508 581.648 222.12 579.087 218.358L578.134 218.148C577.874 217.344 577.267 216.762 576.438 216.502C576.389 215.525 576.438 214.572 576.624 213.619C578.146 213.149 579.21 212.357 579.829 211.354C580.485 210.6 581.302 210.129 582.292 209.919C582.787 210.501 583.442 210.785 584.185 210.736C584.296 210.587 584.42 210.451 584.544 210.327C585.831 211.107 586.375 212.493 586.239 214.064C583.863 213.409 583.133 214.262 583.975 216.502H582.663C584.185 219.311 586.61 221.811 589.457 223.494C590.125 226.86 591.771 230.387 593.788 232.763C594.976 234.903 596.275 237.972 597.364 241.202H594.914V241.635C594.134 241.388 593.355 241.338 592.575 241.487C592.043 240.967 591.362 240.596 590.583 240.373C589.048 239.123 587.786 237.935 586.437 236.463Z" fill="#0049AC"/>
<path opacity="0.2" d="M613.562 280.504C613.562 281.37 613.55 282.249 613.525 283.115C613.5 285.132 613.413 287.149 613.29 289.142C608.835 360.482 549.56 416.972 477.094 416.972C469.1 416.972 461.267 416.292 453.656 414.968C459.052 410.191 464.744 405.724 470.275 401.133C499.133 377.163 524.538 348.478 541.578 315.067C554.535 289.649 562.566 260.469 556.973 232.49C549.808 196.604 522.249 169.305 494.208 145.1C512.201 147.352 529.105 153.119 544.214 161.67C584.741 184.6 612.374 227.677 613.513 277.287C613.55 278.363 613.562 279.428 613.562 280.504Z" fill="black"/>
<path opacity="0.1" d="M390.815 184.068C383.145 191.394 376.897 200.122 373.584 209.558C372.791 211.817 372.162 214.322 372.985 216.572C374.249 220.025 378.497 221.499 382.155 221.124C387.449 220.581 392.058 217.209 395.666 213.296C399.274 209.383 402.154 204.847 405.772 200.942C413.845 192.233 425.025 187.224 435.752 182.129C438.045 181.04 440.375 179.908 442.2 178.143C444.025 176.379 445.292 173.844 444.913 171.333C442.871 157.802 424.363 163.636 416.304 167.104C407.392 170.94 398.407 176.818 390.815 184.068Z" fill="white"/>
<path d="M542.574 231.566C540.953 214.934 538.353 198.376 534.385 182.118C532.41 173.989 530.079 165.938 527.28 158.039C524.476 150.147 521.202 142.396 517.193 135.003C513.166 127.638 508.42 120.546 502.288 114.628C499.222 111.687 495.779 109.07 491.918 107.14C488.081 105.205 483.752 104.036 479.427 103.967L479.408 103.966C475.043 103.915 470.712 104.974 466.815 106.806C462.905 108.633 459.393 111.159 456.248 114.018C449.962 119.774 445.029 126.737 440.811 133.994C437.534 139.674 434.7 145.584 432.183 151.616C432.925 151.357 433.671 151.107 434.418 150.861C436.802 145.406 439.448 140.072 442.457 134.955C446.663 127.845 451.563 121.066 457.658 115.578C460.702 112.852 464.067 110.483 467.738 108.803C471.399 107.117 475.382 106.193 479.373 106.257C483.402 106.293 487.33 107.323 490.952 109.102C494.579 110.876 497.883 113.332 500.857 116.137C506.806 121.783 511.531 128.686 515.553 135.906C519.562 143.154 522.868 150.799 525.716 158.604C528.559 166.414 530.943 174.397 532.975 182.468C537.007 198.623 539.683 215.111 541.389 231.686C543.082 248.266 543.778 264.948 543.609 281.619C543.355 298.288 542.238 314.949 540.122 331.483C538.001 348.009 534.904 364.428 530.463 380.48C528.234 388.502 525.657 396.428 522.625 404.173C519.588 411.911 516.094 419.479 511.902 426.639C507.7 433.77 502.803 440.572 496.691 446.095C493.637 448.839 490.258 451.229 486.559 452.929C482.869 454.637 478.842 455.58 474.804 455.521C470.765 455.48 466.763 454.424 463.12 452.621C459.47 450.824 456.156 448.346 453.173 445.522C447.212 439.838 442.498 432.911 438.486 425.672C435.5 420.247 432.91 414.605 430.61 408.843C429.999 408.621 429.389 408.39 428.78 408.159C431.195 414.4 433.931 420.52 437.142 426.409C441.178 433.755 445.933 440.821 452.051 446.701C455.112 449.623 458.544 452.217 462.38 454.125C466.2 456.035 470.463 457.184 474.782 457.243C479.097 457.301 483.39 456.261 487.261 454.449C491.145 452.643 494.641 450.138 497.777 447.298C504.046 441.577 508.979 434.636 513.204 427.399C517.413 420.131 520.901 412.484 523.927 404.679C526.945 396.868 529.502 388.889 531.703 380.822C536.107 364.682 539.153 348.202 541.224 331.622C543.288 315.037 544.352 298.336 544.548 281.633C544.8 264.927 544.19 248.202 542.574 231.566Z" fill="#FDD245"/>
<path d="M668.25 276.812C667.05 274.916 665.52 273.306 663.874 271.883C660.565 269.039 656.827 266.861 653.008 264.932C645.33 261.12 637.237 258.346 629.08 255.937C622.897 254.144 616.662 252.577 610.39 251.185C610.504 251.698 610.619 252.209 610.726 252.725C616.748 254.101 622.731 255.637 628.652 257.383C636.743 259.81 644.759 262.604 652.278 266.378C656.013 268.284 659.65 270.436 662.774 273.147C664.329 274.502 665.739 276.013 666.805 277.714C667.862 279.409 668.525 281.322 668.491 283.256C668.478 285.192 667.761 287.084 666.661 288.752C665.551 290.424 664.101 291.898 662.512 293.212C659.317 295.839 655.624 297.894 651.84 299.7C644.225 303.272 636.139 305.852 627.985 308.065C611.633 312.421 594.876 315.211 578.071 317.351C561.251 319.452 544.336 320.812 527.403 321.639C510.464 322.461 493.5 322.74 476.541 322.547C459.583 322.282 442.633 321.544 425.726 320.263C408.82 318.977 391.95 317.163 375.196 314.606C358.462 311.994 341.792 308.733 325.584 303.922C317.502 301.484 309.499 298.679 302.009 294.903C298.288 292.998 294.668 290.846 291.576 288.152C290.037 286.807 288.647 285.308 287.605 283.639C286.573 281.974 285.936 280.121 285.97 278.253C285.986 276.326 286.669 274.541 287.743 272.892C288.825 271.249 290.258 269.788 291.829 268.482C294.994 265.869 298.666 263.811 302.437 262.001C310.024 258.42 318.096 255.823 326.237 253.595C332.172 252.001 338.16 250.618 344.185 249.392C344.33 248.774 344.485 248.162 344.635 247.548C338.305 248.767 332.005 250.161 325.756 251.786C317.524 253.967 309.351 256.516 301.548 260.118C297.665 261.946 293.851 264.026 290.438 266.795C288.742 268.183 287.148 269.767 285.876 271.659C285.247 272.607 284.701 273.636 284.314 274.741C284.115 275.292 283.974 275.866 283.858 276.445C283.75 277.006 283.692 277.7 283.679 278.181L283.678 278.215C283.638 280.611 284.489 282.915 285.699 284.829C286.923 286.755 288.472 288.378 290.133 289.811C293.474 292.672 297.231 294.851 301.062 296.781C308.768 300.588 316.873 303.353 325.045 305.751C341.421 310.474 358.169 313.614 374.972 316.105C391.782 318.585 408.693 320.323 425.634 321.529C442.575 322.729 459.551 323.389 476.53 323.573C493.506 323.819 510.491 323.592 527.458 322.819C544.421 322.043 561.369 320.735 578.235 318.68C595.091 316.596 611.907 313.865 628.38 309.544C636.599 307.346 644.76 304.782 652.534 301.171C656.403 299.341 660.199 297.258 663.58 294.502C665.26 293.121 666.833 291.552 668.078 289.689C669.317 287.836 670.193 285.609 670.218 283.277C670.258 280.946 669.437 278.696 668.25 276.812Z" fill="#FDD245"/>
<path d="M621.733 183.358C620.839 179.154 619.041 175.046 616.387 171.63L616.375 171.615C613.682 168.182 610.144 165.468 606.276 163.576C602.402 161.67 598.232 160.513 594.035 159.852C585.612 158.555 577.094 159.069 568.793 160.324C560.479 161.607 552.327 163.693 544.347 166.237C536.366 168.79 528.544 171.81 520.877 175.158C505.535 181.844 490.781 189.799 476.558 198.579C462.34 207.367 448.655 217.007 435.518 227.323C422.341 237.599 409.695 248.558 397.746 260.246C385.807 271.937 374.536 284.344 364.363 297.626C359.276 304.266 354.475 311.133 350.089 318.265C345.711 325.402 341.739 332.809 338.506 340.563C335.306 348.31 332.772 356.441 332.019 364.895C331.658 369.111 331.786 373.411 332.699 377.595C333.602 381.771 335.377 385.814 338.032 389.217C340.692 392.62 344.19 395.313 348.025 397.197C351.866 399.095 356.008 400.253 360.185 400.919C368.571 402.225 377.074 401.727 385.361 400.488C391.893 399.492 398.326 397.992 404.658 396.168C404.124 395.833 403.595 395.485 403.064 395.142C397.162 396.769 391.183 398.101 385.139 398.996C376.948 400.185 368.579 400.625 360.444 399.318C356.393 398.655 352.413 397.517 348.771 395.698C345.129 393.891 341.872 391.342 339.391 388.154C336.894 384.979 335.211 381.199 334.335 377.231C333.45 373.257 333.308 369.121 333.643 365.029C334.34 356.823 336.791 348.807 339.922 341.148C343.085 333.478 346.994 326.116 351.315 319.014C355.644 311.914 360.392 305.065 365.429 298.438C375.516 285.185 386.709 272.785 398.577 261.091C410.454 249.399 423.038 238.423 436.15 228.132C449.314 217.901 463.007 208.351 477.227 199.659C491.446 190.977 506.185 183.123 521.481 176.547C529.133 173.275 536.927 170.337 544.863 167.867C552.796 165.406 560.882 163.406 569.078 162.206C577.256 161.033 585.608 160.608 593.703 161.924C597.735 162.589 601.69 163.73 605.298 165.541C608.903 167.338 612.117 169.863 614.565 173.014C617.061 176.177 618.721 179.888 619.601 183.828C620.488 187.768 620.642 191.882 620.318 195.955C619.641 204.13 617.216 212.135 614.105 219.791C611.815 225.387 609.118 230.82 606.158 236.112C606.407 236.834 606.66 237.553 606.895 238.278C610.226 232.547 613.267 226.638 615.838 220.507C619.058 212.756 621.617 204.615 622.393 196.129C622.763 191.9 622.649 187.576 621.733 183.358Z" fill="#FDD245"/>
<path d="M600.587 369.017C598.888 362.683 596.76 356.526 594.275 350.481C593.86 351.167 593.51 351.717 593.092 352.42C595.264 357.962 597.252 363.755 598.745 369.5C600.799 377.503 602.127 385.761 601.698 393.952C601.473 398.032 600.769 402.087 599.361 405.871C597.964 409.651 595.802 413.121 592.935 415.898C590.06 418.722 586.554 420.771 582.735 422.074C578.917 423.385 574.844 423.985 570.757 424.104C562.557 424.319 554.335 422.778 546.386 420.518C538.425 418.228 530.683 415.159 523.15 411.655C515.616 408.142 508.286 404.183 501.142 399.912C486.867 391.341 473.316 381.574 460.391 371.06C447.47 360.533 435.181 349.229 423.513 337.321C411.905 325.355 400.914 312.784 390.72 299.597C380.533 286.411 371.113 272.613 362.903 258.121C358.807 250.873 355.025 243.446 351.692 235.825C348.369 228.206 345.488 220.383 343.388 212.358C341.318 204.344 339.97 196.072 340.386 187.845C340.605 183.745 341.304 179.665 342.718 175.848C344.12 172.031 346.301 168.517 349.198 165.703C352.084 162.876 355.659 160.793 359.51 159.491C363.362 158.179 367.458 157.589 371.563 157.477C379.797 157.281 388.03 158.846 395.985 161.128C399.204 162.061 402.383 163.131 405.529 164.296L407.145 163.321C403.617 161.967 400.045 160.726 396.412 159.657C388.364 157.318 380.006 155.682 371.52 155.85C367.29 155.949 363.029 156.541 358.968 157.904C354.915 159.256 351.089 161.457 347.992 164.469C344.9 167.479 342.601 171.25 341.146 175.269C339.675 179.292 338.975 183.535 338.766 187.761C338.379 196.239 339.797 204.636 341.928 212.74C344.089 220.856 347.031 228.73 350.41 236.388C353.8 244.046 357.634 251.495 361.782 258.757C370.08 273.283 379.579 287.09 389.839 300.279C400.106 313.467 411.163 326.027 422.836 337.977C434.468 349.969 446.725 361.364 459.632 371.985C472.539 382.599 486.085 392.469 500.388 401.16C507.533 405.511 514.873 409.556 522.437 413.162C530.001 416.759 537.795 419.925 545.86 422.318C553.915 424.678 562.285 426.337 570.806 426.186C575.053 426.097 579.339 425.513 583.435 424.148C587.516 422.802 591.404 420.568 594.511 417.559L594.526 417.545C597.648 414.495 599.961 410.683 601.422 406.633C602.895 402.577 603.593 398.306 603.795 394.062C604.172 385.543 602.735 377.129 600.587 369.017Z" fill="#FDD245"/>
<path opacity="0.2" d="M351.159 167.828C348.404 167.828 346.163 165.587 346.163 162.832C346.163 160.077 348.404 157.836 351.159 157.836C353.913 157.836 356.154 160.077 356.154 162.832C356.154 165.585 353.913 167.828 351.159 167.828Z" fill="#FDD245"/>
<path d="M354.783 162.831C354.783 164.833 353.161 166.455 351.159 166.455C349.157 166.455 347.534 164.832 347.534 162.831C347.534 160.828 349.157 159.206 351.159 159.206C353.161 159.206 354.783 160.83 354.783 162.831Z" fill="#FDD245"/>
<path opacity="0.2" d="M285.094 283.365C282.34 283.365 280.099 281.124 280.099 278.37C280.099 275.615 282.34 273.374 285.094 273.374C287.849 273.374 290.09 275.615 290.09 278.37C290.091 281.124 287.85 283.365 285.094 283.365Z" fill="#FDD245"/>
<path d="M285.094 281.994C287.096 281.994 288.719 280.371 288.719 278.37C288.719 276.368 287.096 274.745 285.094 274.745C283.092 274.745 281.47 276.368 281.47 278.37C281.47 280.371 283.092 281.994 285.094 281.994Z" fill="#FDD245"/>
<path opacity="0.2" d="M669.615 289.156C666.277 289.156 663.561 286.44 663.561 283.102C663.561 279.763 666.277 277.047 669.615 277.047C672.954 277.047 675.67 279.763 675.67 283.102C675.67 286.44 672.954 289.156 669.615 289.156Z" fill="#FDD245"/>
<path d="M669.616 287.495C672.042 287.495 674.009 285.528 674.009 283.102C674.009 280.675 672.042 278.709 669.616 278.709C667.189 278.709 665.223 280.675 665.223 283.102C665.223 285.528 667.189 287.495 669.616 287.495Z" fill="#FDD245"/>
<path opacity="0.2" d="M613.563 176.499C610.224 176.499 607.508 173.782 607.508 170.444C607.508 167.105 610.224 164.389 613.563 164.389C616.901 164.389 619.618 167.105 619.618 170.444C619.618 173.784 616.901 176.499 613.563 176.499Z" fill="#FDD245"/>
<path d="M617.955 170.445C617.955 172.871 615.989 174.838 613.562 174.838C611.135 174.838 609.169 172.871 609.169 170.445C609.169 168.018 611.135 166.052 613.562 166.052C615.989 166.051 617.955 168.018 617.955 170.445Z" fill="#FDD245"/>
<path opacity="0.2" d="M520.159 417.274C516.821 417.274 514.104 414.558 514.104 411.219C514.104 407.881 516.821 405.164 520.159 405.164C523.498 405.164 526.214 407.881 526.214 411.219C526.214 414.558 523.498 417.274 520.159 417.274Z" fill="#FDD245"/>
<path d="M524.551 411.219C524.551 413.646 522.583 415.612 520.158 415.612C517.731 415.612 515.765 413.646 515.765 411.219C515.765 408.793 517.731 406.826 520.158 406.826C522.583 406.826 524.551 408.793 524.551 411.219Z" fill="#FDD245"/>
<path opacity="0.2" d="M595.317 418.988C597.921 418.988 600.032 416.877 600.032 414.273C600.032 411.669 597.921 409.559 595.317 409.559C592.713 409.559 590.603 411.669 590.603 414.273C590.603 416.877 592.713 418.988 595.317 418.988Z" fill="#FDD245"/>
<path d="M595.316 417.695C597.206 417.695 598.738 416.163 598.738 414.273C598.738 412.384 597.206 410.852 595.316 410.852C593.426 410.852 591.895 412.384 591.895 414.273C591.895 416.163 593.426 417.695 595.316 417.695Z" fill="#FDD245"/>
<path opacity="0.2" d="M475.567 461.065C478.171 461.065 480.282 458.954 480.282 456.35C480.282 453.746 478.171 451.635 475.567 451.635C472.963 451.635 470.853 453.746 470.853 456.35C470.853 458.954 472.963 461.065 475.567 461.065Z" fill="#FDD245"/>
<path d="M478.99 456.35C478.99 458.239 477.458 459.771 475.568 459.771C473.678 459.771 472.146 458.239 472.146 456.35C472.146 454.46 473.678 452.928 475.568 452.928C477.458 452.928 478.99 454.46 478.99 456.35Z" fill="#FDD245"/>
<path opacity="0.2" d="M541.725 326.385C538.386 326.385 535.67 323.668 535.67 320.33C535.67 316.991 538.386 314.275 541.725 314.275C545.064 314.275 547.78 316.991 547.78 320.33C547.78 323.668 545.064 326.385 541.725 326.385Z" fill="#FDD245"/>
<path d="M546.118 320.33C546.118 322.756 544.152 324.723 541.725 324.723C539.298 324.723 537.332 322.755 537.332 320.33C537.332 317.903 539.3 315.937 541.725 315.937C544.152 315.937 546.118 317.904 546.118 320.33Z" fill="#FDD245"/>
<path opacity="0.2" d="M530.607 178.566C527.268 178.566 524.552 175.85 524.552 172.511C524.552 169.173 527.268 166.456 530.607 166.456C533.945 166.456 536.662 169.173 536.662 172.511C536.662 175.85 533.945 178.566 530.607 178.566Z" fill="#FDD245"/>
<path d="M535 172.511C535 174.938 533.034 176.904 530.607 176.904C528.18 176.904 526.214 174.938 526.214 172.511C526.214 170.085 528.181 168.118 530.607 168.118C533.034 168.118 535 170.085 535 172.511Z" fill="#FDD245"/>
<path opacity="0.2" d="M480.559 109.992C477.805 109.992 475.563 107.751 475.563 104.996C475.563 102.242 477.805 100.001 480.559 100.001C483.314 100.001 485.555 102.242 485.555 104.996C485.555 107.751 483.314 109.992 480.559 109.992Z" fill="#FDD245"/>
<path d="M484.184 104.996C484.184 106.999 482.561 108.621 480.559 108.621C478.557 108.621 476.935 106.997 476.935 104.996C476.935 102.995 478.557 101.372 480.559 101.372C482.56 101.372 484.184 102.994 484.184 104.996Z" fill="#FDD245"/>
<path opacity="0.2" d="M377.869 289.239C374.395 289.239 371.57 286.414 371.57 282.941C371.57 279.467 374.395 276.642 377.869 276.642C381.343 276.642 384.168 279.467 384.168 282.941C384.168 286.413 381.343 289.239 377.869 289.239Z" fill="#FDD245"/>
<path d="M382.44 282.939C382.44 285.464 380.393 287.509 377.87 287.509C375.345 287.509 373.3 285.463 373.3 282.939C373.3 280.415 375.347 278.369 377.87 278.369C380.393 278.369 382.44 280.416 382.44 282.939Z" fill="#FDD245"/>
<path d="M584.198 83.254L582.518 85.6219L586.942 88.7612L588.622 86.3933L584.198 83.254Z" fill="#D0D1D3"/>
<path opacity="0.2" d="M584.012 83.5065L588.438 86.6471L588.63 86.3772L584.204 83.2366L584.012 83.5065Z" fill="black"/>
<path opacity="0.1" d="M582.513 85.6073L583.225 84.6027C583.386 84.6655 583.544 84.7446 583.692 84.8246C584.558 85.2926 585.412 85.7937 586.184 86.4088C586.704 86.825 587.19 87.2929 587.595 87.8202L586.937 88.7469L582.513 85.6073Z" fill="black"/>
<path d="M580.108 92.4999L571.199 105.058L571.509 105.278L580.417 92.7196L580.108 92.4999Z" fill="#3955B7"/>
<path d="M585.37 101.086L571.457 104.779L571.554 105.147L585.467 101.453L585.37 101.086Z" fill="#3955B7"/>
<path d="M570.193 90.6118L571.307 104.964L571.685 104.934L570.571 90.5824L570.193 90.6118Z" fill="#3955B7"/>
<path d="M582.004 63.0006L607.736 81.2589L608.905 79.6119L583.173 61.3536L582.004 63.0006Z" fill="#D0D1D3"/>
<path d="M595.622 56.0674L597.66 53.5652L597.994 53.1573L599.496 51.3133C600.352 50.2638 601.874 50.0573 602.979 50.8405L612.638 57.6936C613.742 58.4771 614.05 59.9831 613.342 61.1366L612.097 63.1643L611.823 63.6137L610.134 66.3644L595.622 56.0674Z" fill="#0049AC"/>
<path d="M598.698 54.3008L610.786 62.8777C612.751 64.2721 613.214 66.9954 611.82 68.9607L598.355 87.9386C596.961 89.9039 594.237 90.3668 592.272 88.9724L580.184 80.3956C578.218 79.0012 577.755 76.2779 579.15 74.3126L592.614 55.3349C594.009 53.3686 596.733 52.9064 598.698 54.3008Z" fill="#0049AC"/>
<path d="M581.955 52.6072L573.045 65.1646L573.49 65.4802L582.4 52.9227L581.955 52.6072Z" fill="#089970"/>
<path d="M552.443 48.3196L559.26 38.7115C559.838 37.8972 560.967 37.7052 561.781 38.2829L586.83 56.0554C587.645 56.6331 587.837 57.7623 587.259 58.5767L580.442 68.1848C579.863 69.0003 578.735 69.191 577.921 68.6133L552.872 50.8409C552.058 50.264 551.864 49.1359 552.443 48.3196Z" fill="#0049AC"/>
<path d="M555.864 43.5122L583.86 63.3772L584.176 62.9326L556.18 43.0675L555.864 43.5122Z" fill="#F8FAFC"/>
<path d="M576.529 48.7568L567.619 61.3143L568.064 61.6298L576.974 49.0723L576.529 48.7568Z" fill="#F8FAFC"/>
<path d="M570.583 44.5379L561.673 57.0954L562.118 57.4109L571.028 44.8534L570.583 44.5379Z" fill="#F8FAFC"/>
<path d="M564.635 40.3172L555.725 52.8746L556.169 53.1902L565.08 40.6327L564.635 40.3172Z" fill="#F8FAFC"/>
<g opacity="0.2">
<path d="M562.793 57.8808L575.924 48.3193L581.27 52.1119L568.142 61.6759L562.793 57.8808Z" fill="white"/>
<path d="M560.263 56.0858L573.393 46.5224L575.354 47.9138L562.223 57.4774L560.263 56.0858Z" fill="white"/>
<path d="M559.065 55.2359L572.194 45.6725L572.66 46.003L559.532 55.5677L559.065 55.2359Z" fill="white"/>
</g>
<path d="M603.71 84.6943L610.527 75.0862C611.104 74.2719 612.234 74.0799 613.048 74.6576L638.097 92.4301C638.911 93.0078 639.103 94.137 638.526 94.9514L631.709 104.559C631.13 105.375 630.002 105.566 629.187 104.988L604.138 87.2156C603.324 86.6379 603.131 85.5098 603.71 84.6943Z" fill="#0049AC"/>
<path d="M607.135 79.8868L635.131 99.7519L635.446 99.3072L607.45 79.4422L607.135 79.8868Z" fill="white"/>
<path d="M627.796 85.1346L618.886 97.6921L619.33 98.0076L628.241 85.4501L627.796 85.1346Z" fill="white"/>
<path d="M621.848 80.9138L612.938 93.4713L613.382 93.7868L622.292 81.2293L621.848 80.9138Z" fill="white"/>
<path d="M615.901 76.6939L606.991 89.2514L607.436 89.5669L616.346 77.0094L615.901 76.6939Z" fill="white"/>
<g opacity="0.2">
<path d="M614.061 94.2555L627.193 84.6932L632.539 88.4858L619.41 98.0498L614.061 94.2555Z" fill="white"/>
<path d="M611.53 92.4597L624.66 82.8963L626.621 84.2877L613.491 93.8513L611.53 92.4597Z" fill="white"/>
<path d="M610.332 91.6098L623.462 82.0464L623.928 82.3776L610.799 91.9416L610.332 91.6098Z" fill="white"/>
</g>
<path d="M567.904 88.739C572.151 83.4782 579.814 82.3609 585.406 86.3285C586.771 87.2974 587.892 88.4837 588.753 89.8062C591.079 93.3787 591.516 97.9492 589.798 101.942C589.548 102.523 589.252 103.093 588.91 103.643L567.904 88.739Z" fill="#0049AC"/>
<path d="M569.838 104.878C570.288 104.243 571.168 104.093 571.803 104.544C572.438 104.994 572.587 105.874 572.137 106.509C571.686 107.144 570.806 107.294 570.171 106.843C569.537 106.392 569.387 105.513 569.838 104.878Z" fill="#FDD245"/>
<path d="M570.191 103.401L573.416 105.688C573.586 105.81 573.626 106.046 573.506 106.217L573.347 106.442C573.225 106.613 572.989 106.653 572.818 106.532L569.594 104.245C569.422 104.123 569.383 103.887 569.504 103.716L569.663 103.492C569.784 103.32 570.021 103.279 570.191 103.401Z" fill="#566CD3"/>
<path opacity="0.1" d="M567.904 88.739C572.151 83.4782 579.814 82.3609 585.406 86.3285C586.771 87.2974 587.892 88.4837 588.753 89.8062C588.415 89.8363 588.05 89.7865 587.734 89.6862C585.251 88.8965 583.486 86.6159 581.045 85.7126C578.608 84.812 575.66 85.5167 573.897 87.424C573.228 88.1475 572.714 89.2271 573.177 90.096C573.392 90.5004 573.782 90.7785 574.157 91.0432C574.362 91.1863 574.569 91.3308 574.777 91.4758C576.565 92.7259 578.352 93.9782 580.141 95.2284C581.923 96.4746 583.705 97.7218 585.489 98.9692C586.918 99.9694 588.363 100.95 589.798 101.943C589.549 102.524 589.252 103.093 588.91 103.644L567.904 88.739Z" fill="black"/>
<path d="M568.122 87.8626L589.563 103.075C589.87 103.294 589.943 103.72 589.725 104.029L589.437 104.434C589.218 104.743 588.792 104.815 588.483 104.597L567.043 89.3848C566.735 89.166 566.662 88.7395 566.88 88.4311L567.168 88.0254C567.387 87.7162 567.813 87.6439 568.122 87.8626Z" fill="#FDD245"/>
<path opacity="0.5" d="M606.506 80.3799L606.691 80.5113L607.86 78.8643L607.675 78.733L606.506 80.3799Z" fill="black"/>
<path opacity="0.5" d="M604.625 79.0812L604.811 79.2125L605.979 77.565L605.793 77.4338L604.625 79.0812Z" fill="black"/>
<path opacity="0.5" d="M585.267 65.3116L585.452 65.4429L586.621 63.7959L586.436 63.6646L585.267 65.3116Z" fill="black"/>
<path opacity="0.5" d="M583.42 64.0012L583.605 64.1325L584.774 62.4856L584.589 62.3543L583.42 64.0012Z" fill="black"/>
<path opacity="0.5" d="M597.66 53.5652L597.993 53.1572L612.097 63.1635L611.823 63.6136L597.66 53.5652Z" fill="#F8FAFC"/>
<path opacity="0.5" d="M599.969 65.6928C603.315 68.0674 604.106 72.7224 601.732 76.0691C599.357 79.4157 594.702 80.2068 591.355 77.8322C588.009 75.4577 587.218 70.8026 589.592 67.456C591.966 64.1087 596.621 63.3177 599.969 65.6928Z" fill="black"/>
<path d="M590.211 67.8954C592.347 64.8852 596.519 64.1757 599.529 66.3121C602.539 68.4476 603.249 72.6198 601.112 75.63C598.976 78.6403 594.804 79.349 591.794 77.2134C588.784 75.077 588.075 70.9054 590.211 67.8954Z" fill="#0049AC"/>
<path d="M590.829 68.3332C592.495 65.9835 595.576 65.217 598.107 66.3658L598.108 66.3671C598.447 66.5191 598.774 66.7068 599.089 66.9296C599.236 67.0335 599.378 67.1443 599.512 67.2606C599.687 67.4077 599.848 67.5642 600 67.7303C600.769 68.5553 601.268 69.5706 601.473 70.6392C601.77 72.1718 601.465 73.8189 600.492 75.1901C598.891 77.4469 595.992 78.2438 593.522 77.2874C593.075 77.1142 592.641 76.8829 592.233 76.5936C591.721 76.2297 591.282 75.7984 590.923 75.32C590.787 75.1374 590.663 74.9494 590.548 74.7562C590.266 74.2693 590.055 73.7503 589.92 73.2122C589.511 71.5885 589.786 69.8036 590.829 68.3332Z" fill="#F8FAFC"/>
<path opacity="0.3" d="M590.923 75.3199L600.001 67.7301C600.77 68.5551 601.269 69.5703 601.474 70.639L593.523 77.2874C593.075 77.1142 592.641 76.8829 592.233 76.5936C591.72 76.2298 591.282 75.7983 590.923 75.3199Z" fill="white"/>
<path opacity="0.3" d="M589.921 73.2121L598.107 66.3657L598.109 66.3671C598.448 66.5191 598.775 66.7067 599.089 66.9296C599.236 67.0334 599.379 67.1443 599.513 67.2605L590.548 74.7563C590.266 74.2692 590.056 73.7502 589.921 73.2121Z" fill="white"/>
<path d="M595.143 57.5687L608.936 67.3553L609.35 66.7719L595.557 56.9853L595.143 57.5687Z" fill="#F8FAFC"/>
<path d="M594.17 58.9408L607.963 68.7274L608.377 68.1439L594.584 58.3573L594.17 58.9408Z" fill="#F8FAFC"/>
<path d="M582.123 75.9186L595.916 85.7052L596.33 85.1218L582.537 75.3352L582.123 75.9186Z" fill="#F8FAFC"/>
<path d="M581.149 77.2923L594.941 87.0789L595.355 86.4955L581.563 76.7089L581.149 77.2923Z" fill="#F8FAFC"/>
<path d="M572.086 110.014C570.912 110.323 569.639 110.108 568.62 109.385C567.276 108.432 566.622 106.773 566.952 105.157C566.974 105.051 567.08 104.982 567.184 105.004C567.291 105.025 567.36 105.13 567.338 105.236C567.039 106.699 567.631 108.202 568.847 109.065C570.064 109.928 571.676 109.99 572.959 109.224C573.053 109.166 573.173 109.199 573.229 109.292C573.285 109.385 573.255 109.506 573.161 109.563C572.821 109.765 572.457 109.916 572.086 110.014Z" fill="#566CD3"/>
<path d="M572.7 112.454C570.805 112.952 568.791 112.596 567.162 111.44C565.279 110.103 564.234 107.929 564.367 105.624C564.373 105.515 564.466 105.432 564.574 105.438C564.684 105.444 564.766 105.537 564.759 105.646C564.636 107.815 565.618 109.86 567.39 111.118C569.163 112.375 571.417 112.627 573.425 111.794C573.532 111.75 573.641 111.801 573.682 111.9C573.724 112 573.677 112.116 573.576 112.158C573.288 112.277 572.996 112.376 572.7 112.454Z" fill="#566CD3"/>
<path d="M573.363 114.886C570.747 115.574 567.929 115.071 565.705 113.494C563.301 111.788 561.854 109.011 561.833 106.067C561.833 105.958 561.921 105.868 562.029 105.869C562.137 105.868 562.226 105.955 562.227 106.064C562.247 108.883 563.633 111.54 565.934 113.172C568.236 114.804 571.212 115.23 573.867 114.322C573.981 114.276 574.082 114.342 574.117 114.445C574.153 114.547 574.098 114.659 573.996 114.695C573.786 114.766 573.575 114.83 573.363 114.886Z" fill="#566CD3"/>
</svg>
