<svg width="216" height="112" viewBox="0 0 216 112" fill="none" xmlns="http://www.w3.org/2000/svg">
<path d="M119 23.0001C122.866 23.0001 126 26.1341 126 30.0001C126 33.8661 122.866 37.0001 119 37.0001H183C186.866 37.0001 190 40.1341 190 44.0001C190 47.8661 186.866 51.0001 183 51.0001H205C208.866 51.0001 212 54.1341 212 58.0001C212 61.8661 208.866 65.0001 205 65.0001H186C182.134 65.0001 179 68.1341 179 72.0001C179 75.8661 182.134 79.0001 186 79.0001H192C195.866 79.0001 199 82.1341 199 86.0001C199 89.8661 195.866 93.0001 192 93.0001H140C139.485 93.0001 138.983 92.9444 138.5 92.8389C138.017 92.9444 137.515 93.0001 137 93.0001H46C42.134 93.0001 39 89.8661 39 86.0001C39 82.1341 42.134 79.0001 46 79.0001H7C3.13401 79.0001 0 75.8661 0 72.0001C0 68.1341 3.13401 65.0001 7 65.0001H47C50.866 65.0001 54 61.8661 54 58.0001C54 54.1341 50.866 51.0001 47 51.0001H22C18.134 51.0001 15 47.8661 15 44.0001C15 40.1341 18.134 37.0001 22 37.0001H62C58.134 37.0001 55 33.8661 55 30.0001C55 26.1341 58.134 23.0001 62 23.0001H119ZM209 79.0001C212.866 79.0001 216 82.1341 216 86.0001C216 89.8661 212.866 93.0001 209 93.0001C205.134 93.0001 202 89.8661 202 86.0001C202 82.1341 205.134 79.0001 209 79.0001Z" fill="#F8FAFC"/>
<path fill-rule="evenodd" clip-rule="evenodd" d="M69.2784 98.123L65.2083 98.695C63.0207 99.0024 60.998 97.4782 60.6905 95.2906L49.5567 16.0692C49.2492 13.8815 50.7734 11.8588 52.9611 11.5514L131.192 0.55672C133.38 0.249267 135.403 1.77346 135.71 3.9611C135.71 3.9611 136.422 9.02648 136.667 10.7689" fill="white"/>
<path fill-rule="evenodd" clip-rule="evenodd" d="M71.8051 93.7125L68.1093 94.2378C66.1228 94.5201 64.2887 93.1389 64.0127 91.1527L54.0175 19.228C53.7415 17.2418 55.1281 15.4028 57.1146 15.1205L128.152 5.02374C130.139 4.74139 131.973 6.1226 132.249 8.10875L133.108 14.2895C133.154 14.6239 136.223 36.8234 142.313 80.8878C142.619 83.1005 141.093 85.1449 138.906 85.4542C138.882 85.4575 138.858 85.4606 138.835 85.4635L71.8051 93.7125Z" fill="#F8FAFC"/>
<path d="M69.2784 98.123L65.2083 98.695C63.0207 99.0024 60.998 97.4782 60.6905 95.2906L49.5567 16.0692C49.2492 13.8815 50.7734 11.8588 52.9611 11.5514L131.192 0.55672C133.38 0.249267 135.403 1.77346 135.71 3.9611C135.71 3.9611 136.422 9.02648 136.667 10.7689" stroke="#64748B" stroke-linecap="round"/>
<path d="M137.5 15.3796L138 18.5" stroke="#64748B" stroke-linecap="round"/>
<path d="M85.9225 16.295L164.49 24.5528C166.412 24.7548 167.807 26.477 167.605 28.3994L159.242 107.961C159.04 109.884 157.318 111.278 155.396 111.076L76.8286 102.818C74.9061 102.616 73.5115 100.894 73.7136 98.9717L82.0759 19.41L82.0995 19.2318C82.3858 17.4022 84.0601 16.0993 85.9225 16.295Z" fill="white" stroke="#64748B"/>
<path fill-rule="evenodd" clip-rule="evenodd" d="M89.6931 28.2547C89.8663 26.6069 91.3424 25.4115 92.9902 25.5847L155.645 32.17C157.293 32.3432 158.488 33.8194 158.315 35.4671L152.775 88.1768C152.602 89.8246 151.126 91.02 149.478 90.8468L86.823 84.2615C85.1753 84.0883 83.9799 82.6121 84.1531 80.9643L89.6931 28.2547Z" fill="white"/>
<path fill-rule="evenodd" clip-rule="evenodd" d="M92.7408 68.8778L102.538 62.2697C104.172 61.1679 106.365 61.42 107.706 62.8637L114.879 70.5867C115.237 70.9721 115.833 71.0143 116.242 70.6831L131.581 58.2534C133.429 56.7562 136.167 57.1923 137.459 59.1895L147.44 74.6268L148.873 77.0187L148.187 85.1435C148.139 85.7041 147.639 86.1153 147.08 86.0532L90.1169 79.7244C89.5753 79.6642 89.1816 79.1815 89.2316 78.6388L89.9865 70.4402L92.7408 68.8778Z" fill="#F8FAFC"/>
<path d="M92.938 26.082L155.593 32.6673C156.966 32.8116 157.962 34.0417 157.818 35.4149L152.278 88.1245C152.133 89.4977 150.903 90.4939 149.53 90.3495L86.8753 83.7642C85.5022 83.6199 84.506 82.3898 84.6503 81.0166L90.1903 28.3069L90.2297 28.0538C90.4889 26.8136 91.6507 25.9467 92.938 26.082Z" stroke="#64748B"/>
<circle cx="105.032" cy="44.9495" r="6" transform="rotate(6 105.032 44.9495)" fill="#F3F7FF" stroke="#64748B"/>
<path d="M90.7291 70.4248C94.6655 67.7064 102.538 62.2697 102.538 62.2697C104.172 61.1679 106.365 61.4199 107.706 62.8637L114.879 70.5867C115.237 70.9721 115.833 71.0142 116.242 70.683L131.581 58.2534C133.298 56.8626 135.817 57.1266 137.207 58.843C137.297 58.9539 137.381 59.0696 137.459 59.1895C137.459 59.1895 146.427 73.4202 148.523 76.7455" stroke="#64748B" stroke-linecap="round"/>
</svg>
