<svg width="150" height="135" viewBox="0 0 150 135" fill="none" xmlns="http://www.w3.org/2000/svg">
<path d="M86.4842 52.6389C78.1509 52.6886 69.6883 52.3004 61.7727 50.1001C53.8571 47.8999 46.8564 43.7483 40.4921 38.8997C36.3254 35.7437 32.5367 33.2348 27.127 33.6132C21.8377 33.8915 16.7784 35.8673 12.6979 39.2482C5.81653 45.2815 6.86068 56.4321 9.60529 64.2773C13.7421 76.0949 26.3315 84.2986 37.0215 89.6449C49.3822 95.8275 62.9561 99.4216 76.5697 101.482C88.5028 103.294 103.827 104.619 114.159 96.8132C123.656 89.6549 126.261 73.2874 123.934 62.2363C123.368 58.9723 121.632 56.0271 119.052 53.953C112.379 49.0747 102.435 52.3302 94.9367 52.4995C92.2021 52.5592 89.3282 52.6289 86.4842 52.6389Z" fill="#F8FAFC"/>
<path d="M45.8521 14V18.281" stroke="#CFCFCF" stroke-width="0.85" stroke-linecap="round" stroke-linejoin="round"/>
<path d="M43.7141 16.1405H47.9901" stroke="#CFCFCF" stroke-width="0.85" stroke-linecap="round" stroke-linejoin="round"/>
<path d="M126.977 99.332V103.613" stroke="#CFCFCF" stroke-width="0.85" stroke-linecap="round" stroke-linejoin="round"/>
<path d="M124.839 101.473H129.115" stroke="#CFCFCF" stroke-width="0.85" stroke-linecap="round" stroke-linejoin="round"/>
<path d="M13.5434 80.8439C14.0816 80.8439 14.5179 80.4071 14.5179 79.8683C14.5179 79.3294 14.0816 78.8926 13.5434 78.8926C13.0052 78.8926 12.5688 79.3294 12.5688 79.8683C12.5688 80.4071 13.0052 80.8439 13.5434 80.8439Z" fill="#CFCFCF"/>
<path d="M96.518 18.4205C97.0562 18.4205 97.4925 17.9836 97.4925 17.4448C97.4925 16.9059 97.0562 16.4691 96.518 16.4691C95.9798 16.4691 95.5435 16.9059 95.5435 17.4448C95.5435 17.9836 95.9798 18.4205 96.518 18.4205Z" fill="#CFCFCF"/>
<path d="M69.5095 120.837C89.6653 120.837 106.005 119.82 106.005 118.567C106.005 117.313 89.6653 116.297 69.5095 116.297C49.3537 116.297 33.0142 117.313 33.0142 118.567C33.0142 119.82 49.3537 120.837 69.5095 120.837Z" fill="#F8FAFC"/>
<path d="M41.3971 25.6285H94.3998C95.7185 25.6285 96.9832 26.153 97.9157 27.0865C98.8481 28.0201 99.372 29.2863 99.372 30.6065V93.7368C99.372 95.057 98.8481 96.3232 97.9157 97.2567C96.9832 98.1903 95.7185 98.7147 94.3998 98.7147H34.6052C33.2865 98.7147 32.0218 98.1903 31.0894 97.2567C30.1569 96.3232 29.6331 95.057 29.6331 93.7368V37.5258L41.3971 25.6285Z" fill="white" stroke="#94A3B8" stroke-linecap="round" stroke-linejoin="round"/>
<path d="M99.1332 56.3922H44.4797V99.322H99.1332V56.3922Z" fill="#CBD5E1"/>
<path d="M29.6331 37.5258H39.269C39.8343 37.5232 40.3756 37.2965 40.7744 36.8954C41.1732 36.4942 41.3971 35.9513 41.3971 35.3853V25.6285L29.6331 37.5258Z" fill="white" stroke="#94A3B8" stroke-linecap="round" stroke-linejoin="round"/>
<path d="M98.8648 42.683H44.8079C42.7045 42.683 40.9993 44.3902 40.9993 46.4961V58.0748C40.9993 60.1807 42.7045 61.8879 44.8079 61.8879H98.8648C100.968 61.8879 102.673 60.1807 102.673 58.0748V46.4961C102.673 44.3902 100.968 42.683 98.8648 42.683Z" fill="white" stroke="#94A3B8" stroke-linecap="round" stroke-linejoin="round"/>
<path d="M51.5003 55.6355C53.3347 55.6355 54.8217 54.1467 54.8217 52.3103C54.8217 50.4738 53.3347 48.985 51.5003 48.985C49.666 48.985 48.179 50.4738 48.179 52.3103C48.179 54.1467 49.666 55.6355 51.5003 55.6355Z" fill="#CBD5E1"/>
<path d="M61.9417 55.6355C63.7761 55.6355 65.2631 54.1467 65.2631 52.3103C65.2631 50.4738 63.7761 48.985 61.9417 48.985C60.1074 48.985 58.6204 50.4738 58.6204 52.3103C58.6204 54.1467 60.1074 55.6355 61.9417 55.6355Z" fill="#CBD5E1"/>
<path d="M72.3734 55.6355C74.2077 55.6355 75.6947 54.1467 75.6947 52.3103C75.6947 50.4738 74.2077 48.985 72.3734 48.985C70.539 48.985 69.052 50.4738 69.052 52.3103C69.052 54.1467 70.539 55.6355 72.3734 55.6355Z" fill="#CBD5E1"/>
<path d="M98.8648 63.9686H44.8079C42.7045 63.9686 40.9993 65.6758 40.9993 67.7817V79.3604C40.9993 81.4664 42.7045 83.1735 44.8079 83.1735H98.8648C100.968 83.1735 102.673 81.4664 102.673 79.3604V67.7817C102.673 65.6758 100.968 63.9686 98.8648 63.9686Z" fill="white" stroke="#94A3B8" stroke-linecap="round" stroke-linejoin="round"/>
<path d="M51.5003 76.9312C53.3347 76.9312 54.8217 75.4424 54.8217 73.6059C54.8217 71.7694 53.3347 70.2806 51.5003 70.2806C49.666 70.2806 48.179 71.7694 48.179 73.6059C48.179 75.4424 49.666 76.9312 51.5003 76.9312Z" fill="#CBD5E1"/>
<path d="M61.9417 76.9312C63.7761 76.9312 65.2631 75.4424 65.2631 73.6059C65.2631 71.7694 63.7761 70.2806 61.9417 70.2806C60.1074 70.2806 58.6204 71.7694 58.6204 73.6059C58.6204 75.4424 60.1074 76.9312 61.9417 76.9312Z" fill="#CBD5E1"/>
<path d="M72.3734 76.9312C74.2077 76.9312 75.6947 75.4424 75.6947 73.6059C75.6947 71.7694 74.2077 70.2806 72.3734 70.2806C70.539 70.2806 69.052 71.7694 69.052 73.6059C69.052 75.4424 70.539 76.9312 72.3734 76.9312Z" fill="#CBD5E1"/>
<path d="M98.8648 85.2643H44.8079C42.7045 85.2643 40.9993 86.9715 40.9993 89.0774V100.656C40.9993 102.762 42.7045 104.469 44.8079 104.469H98.8648C100.968 104.469 102.673 102.762 102.673 100.656V89.0774C102.673 86.9715 100.968 85.2643 98.8648 85.2643Z" fill="white" stroke="#94A3B8" stroke-linecap="round" stroke-linejoin="round"/>
<path d="M51.5003 98.2169C53.3347 98.2169 54.8217 96.7282 54.8217 94.8917C54.8217 93.0552 53.3347 91.5664 51.5003 91.5664C49.666 91.5664 48.179 93.0552 48.179 94.8917C48.179 96.7282 49.666 98.2169 51.5003 98.2169Z" fill="#CBD5E1"/>
<path d="M61.9417 98.2169C63.7761 98.2169 65.2631 96.7282 65.2631 94.8917C65.2631 93.0552 63.7761 91.5664 61.9417 91.5664C60.1074 91.5664 58.6204 93.0552 58.6204 94.8917C58.6204 96.7282 60.1074 98.2169 61.9417 98.2169Z" fill="#CBD5E1"/>
<path d="M72.3734 98.2169C74.2077 98.2169 75.6947 96.7282 75.6947 94.8917C75.6947 93.0552 74.2077 91.5664 72.3734 91.5664C70.539 91.5664 69.052 93.0552 69.052 94.8917C69.052 96.7282 70.539 98.2169 72.3734 98.2169Z" fill="#CBD5E1"/>
<path d="M103.757 66.9355C115.142 66.9355 124.372 57.6953 124.372 46.2969C124.372 34.8985 115.142 25.6583 103.757 25.6583C92.3724 25.6583 83.1431 34.8985 83.1431 46.2969C83.1431 57.6953 92.3724 66.9355 103.757 66.9355Z" fill="white" stroke="#94A3B8" stroke-linecap="round" stroke-linejoin="round"/>
<path d="M118.395 61.2706L123.884 66.7663" stroke="#94A3B8" stroke-linecap="round" stroke-linejoin="round"/>
<path d="M123.271 64.0983L121.567 65.8831C120.8 66.686 120.829 67.959 121.631 68.7265L136.439 82.8985C137.24 83.666 138.512 83.6373 139.279 82.8344L140.983 81.0497C141.749 80.2468 141.721 78.9738 140.919 78.2063L126.111 64.0343C125.309 63.2668 124.038 63.2955 123.271 64.0983Z" fill="white" stroke="#94A3B8" stroke-linecap="round" stroke-linejoin="round"/>
</svg>
