<svg width="163" height="44" viewBox="0 0 163 44" fill="none" xmlns="http://www.w3.org/2000/svg">
<path d="M20.7988 34.6243C23.2647 34.6243 25.2636 32.6254 25.2636 30.1595C25.2636 27.6937 23.2647 25.6947 20.7988 25.6947C18.333 25.6947 16.334 27.6937 16.334 30.1595C16.334 32.6254 18.333 34.6243 20.7988 34.6243Z" fill="#15803D"/>
<path d="M53.3174 33.1407C55.7832 33.1407 57.7822 31.1417 57.7822 28.6759C57.7822 26.21 55.7832 24.2111 53.3174 24.2111C50.8515 24.2111 48.8525 26.21 48.8525 28.6759C48.8525 31.1417 50.8515 33.1407 53.3174 33.1407Z" fill="#18509E"/>
<path d="M62.9064 15.4273C64.5234 15.4273 65.8343 14.1165 65.8343 12.4995C65.8343 10.8824 64.5234 9.57159 62.9064 9.57159C61.2894 9.57159 59.9785 10.8824 59.9785 12.4995C59.9785 14.1165 61.2894 15.4273 62.9064 15.4273Z" fill="#FEA500"/>
<path d="M41.0236 37.873C40.7291 38.6171 40.357 39.4698 39.8454 40.3689C39.3493 41.2526 38.8377 42.0122 38.3571 42.6479C35.5201 37.8885 33.0397 33.7647 30.6832 29.734C30.6832 29.734 27.5361 24.3545 24.0015 23.2073C23.0093 22.8817 22.0171 22.8662 22.0171 22.8662C21.8931 22.8662 21.8001 22.8662 21.7536 22.8662C17.5988 22.8662 14.2347 26.2304 14.2347 30.3851C14.2347 34.5399 17.5988 37.904 21.7536 37.904C24.6836 37.904 27.2261 36.2297 28.4663 33.7802L31.2258 38.1365C28.9779 40.8805 25.5673 42.6324 21.7536 42.6324C14.9944 42.6324 9.50635 37.1599 9.50635 30.4006C9.50635 23.6414 14.9788 18.1534 21.7536 18.1534C25.8308 18.1534 29.443 20.1532 31.6599 23.2228C34.7915 28.0907 37.9075 32.9741 41.0236 37.873Z" fill="#15803D"/>
<path d="M34.2132 21.3735C34.5078 20.6293 34.8798 19.7767 35.3914 18.8775C35.8875 17.9939 36.3991 17.2342 36.8797 16.5986C39.7167 21.358 42.1972 25.4817 44.5536 29.5125C44.5536 29.5125 47.7007 34.8919 51.2353 36.0392C52.2275 36.3647 53.2197 36.3802 53.2197 36.3802C53.3437 36.3802 53.4367 36.3802 53.4832 36.3802C57.638 36.3802 61.0021 33.0161 61.0021 28.8613C61.0021 24.7066 57.638 21.3425 53.4832 21.3425C50.5532 21.3425 48.0107 23.0168 46.7705 25.4662L44.011 21.1099C46.2589 18.3659 49.6695 16.6141 53.4832 16.6141C60.2425 16.6141 65.7305 22.0866 65.7305 28.8458C65.7305 35.6051 60.258 41.0931 53.4832 41.0931C49.406 41.0931 45.7938 39.0932 43.5769 36.0237C40.4453 31.1558 37.3293 26.2724 34.2132 21.3735Z" fill="#18509E"/>
<path d="M32.3796 19.6487C31.775 18.9666 27.6667 14.4398 20.8765 14.4553C14.1328 14.4708 10.04 18.9511 9.43541 19.6332C8.52074 18.145 7.60607 16.6567 6.69141 15.1684C7.79211 14.1297 12.8925 9.60291 20.799 9.5719C28.7985 9.54089 33.9609 14.1452 35.0616 15.1684C34.1624 16.6722 33.2633 18.1605 32.3796 19.6487Z" fill="#FFA600"/>
<path d="M37.8954 14.8417C37.0093 13.8508 30.9888 7.27444 21.0379 7.29696C11.1551 7.31948 5.1573 13.8283 4.27126 14.8192C2.93084 12.6571 1.59042 10.495 0.25 8.33296C1.86305 6.824 9.33759 0.24766 20.9243 0.202616C32.6473 0.157573 40.2127 6.84652 41.8257 8.33296C40.508 10.5176 39.1903 12.6797 37.8954 14.8417Z" fill="#FFA600"/>
<path d="M64.0776 41.1156C64.7598 40.511 69.2866 36.4028 69.2711 29.6125C69.2556 22.8688 64.7753 18.776 64.0931 18.1714C65.5814 17.2568 67.0697 16.3421 68.558 15.4274C69.5966 16.5281 74.1235 21.6286 74.1545 29.535C74.1855 37.5345 69.5811 42.6969 68.558 43.7976C67.0542 42.8985 65.5659 41.9993 64.0776 41.1156Z" fill="#FEA500"/>
<path d="M155.055 36.8898C155.055 36.1747 155.196 35.5404 155.477 34.9871C155.766 34.4337 156.153 34.008 156.639 33.7101C157.132 33.4121 157.682 33.2631 158.286 33.2631C158.814 33.2631 159.273 33.3695 159.665 33.5824C160.065 33.7952 160.384 34.0634 160.623 34.3869V33.3781H162.423V40.4526H160.623V39.4182C160.393 39.7502 160.074 40.0269 159.665 40.2483C159.265 40.4611 158.801 40.5675 158.273 40.5675C157.677 40.5675 157.132 40.4143 156.639 40.1078C156.153 39.8013 155.766 39.3714 155.477 38.818C155.196 38.2562 155.055 37.6134 155.055 36.8898ZM160.623 36.9153C160.623 36.4811 160.538 36.1108 160.367 35.8043C160.197 35.4893 159.967 35.251 159.678 35.0892C159.388 34.919 159.078 34.8338 158.746 34.8338C158.414 34.8338 158.107 34.9147 157.826 35.0764C157.545 35.2382 157.315 35.4766 157.137 35.7916C156.966 36.098 156.881 36.4641 156.881 36.8898C156.881 37.3154 156.966 37.69 157.137 38.0135C157.315 38.3285 157.545 38.5711 157.826 38.7414C158.116 38.9117 158.422 38.9968 158.746 38.9968C159.078 38.9968 159.388 38.9159 159.678 38.7542C159.967 38.5839 160.197 38.3455 160.367 38.0391C160.538 37.7241 160.623 37.3495 160.623 36.9153Z" fill="#18509E"/>
<path d="M151.735 40.4525L149.334 37.4388V40.4525H147.546V31.0028H149.334V36.3789L151.709 33.378H154.033L150.918 36.928L154.059 40.4525H151.735Z" fill="#18509E"/>
<path d="M144.388 32.5352C144.073 32.5352 143.809 32.4373 143.597 32.2415C143.392 32.0372 143.29 31.7861 143.29 31.4881C143.29 31.1901 143.392 30.9433 143.597 30.7475C143.809 30.5431 144.073 30.441 144.388 30.441C144.703 30.441 144.963 30.5431 145.167 30.7475C145.38 30.9433 145.486 31.1901 145.486 31.4881C145.486 31.7861 145.38 32.0372 145.167 32.2415C144.963 32.4373 144.703 32.5352 144.388 32.5352ZM145.269 33.3781V40.4526H143.482V33.3781H145.269Z" fill="#18509E"/>
<path d="M140.101 34.8466V38.2689C140.101 38.5073 140.157 38.6818 140.267 38.7925C140.387 38.8946 140.582 38.9457 140.855 38.9457H141.685V40.4525H140.561C139.054 40.4525 138.301 39.7204 138.301 38.2561V34.8466H137.458V33.378H138.301V31.6285H140.101V33.378H141.685V34.8466H140.101Z" fill="#18509E"/>
<path d="M128.395 36.8898C128.395 36.1747 128.535 35.5404 128.816 34.9871C129.105 34.4337 129.493 34.008 129.978 33.7101C130.472 33.4121 131.021 33.2631 131.625 33.2631C132.153 33.2631 132.613 33.3695 133.004 33.5824C133.405 33.7952 133.724 34.0634 133.962 34.3869V33.3781H135.763V40.4526H133.962V39.4182C133.732 39.7502 133.413 40.0269 133.004 40.2483C132.604 40.4611 132.14 40.5675 131.613 40.5675C131.017 40.5675 130.472 40.4143 129.978 40.1078C129.493 39.8013 129.105 39.3714 128.816 38.818C128.535 38.2562 128.395 37.6134 128.395 36.8898ZM133.962 36.9153C133.962 36.4811 133.877 36.1108 133.707 35.8043C133.537 35.4893 133.307 35.251 133.017 35.0892C132.728 34.919 132.417 34.8338 132.085 34.8338C131.753 34.8338 131.447 34.9147 131.166 35.0764C130.885 35.2382 130.655 35.4766 130.476 35.7916C130.306 36.098 130.221 36.4641 130.221 36.8898C130.221 37.3154 130.306 37.69 130.476 38.0135C130.655 38.3285 130.885 38.5711 131.166 38.7414C131.455 38.9117 131.762 38.9968 132.085 38.9968C132.417 38.9968 132.728 38.9159 133.017 38.7542C133.307 38.5839 133.537 38.3455 133.707 38.0391C133.877 37.7241 133.962 37.3495 133.962 36.9153Z" fill="#18509E"/>
<path d="M123.749 33.2759C124.617 33.2759 125.315 33.544 125.843 34.0804C126.379 34.6082 126.647 35.3489 126.647 36.3023V40.4526H124.86V36.545C124.86 35.9916 124.719 35.5702 124.438 35.2808C124.157 34.9828 123.774 34.8338 123.289 34.8338C122.804 34.8338 122.416 34.9828 122.127 35.2808C121.846 35.5702 121.705 35.9916 121.705 36.545V40.4526H119.918V36.545C119.918 35.9916 119.777 35.5702 119.496 35.2808C119.215 34.9828 118.832 34.8338 118.347 34.8338C117.853 34.8338 117.462 34.9828 117.172 35.2808C116.891 35.5702 116.751 35.9916 116.751 36.545V40.4526H114.963V33.378H116.751V34.2336C116.981 33.9357 117.274 33.7015 117.632 33.5313C117.998 33.361 118.398 33.2759 118.832 33.2759C119.386 33.2759 119.879 33.3951 120.313 33.6334C120.748 33.8633 121.084 34.1953 121.322 34.6295C121.552 34.2209 121.884 33.8931 122.318 33.6462C122.761 33.3993 123.238 33.2759 123.749 33.2759Z" fill="#18509E"/>
<path d="M111.077 34.4762C111.307 34.1017 111.605 33.808 111.971 33.5951C112.345 33.3823 112.771 33.2759 113.248 33.2759V35.1531H112.775C112.213 35.1531 111.788 35.285 111.498 35.5489C111.217 35.8128 111.077 36.2725 111.077 36.9281V40.4526H109.289V33.378H111.077V34.4762Z" fill="#18509E"/>
<path d="M103.776 40.5675C103.095 40.5675 102.482 40.4185 101.937 40.1206C101.393 39.8141 100.963 39.3842 100.648 38.8308C100.341 38.2774 100.188 37.6389 100.188 36.9153C100.188 36.1917 100.345 35.5532 100.66 34.9998C100.984 34.4465 101.422 34.0208 101.976 33.7228C102.529 33.4164 103.146 33.2631 103.827 33.2631C104.508 33.2631 105.126 33.4164 105.679 33.7228C106.232 34.0208 106.667 34.4465 106.982 34.9998C107.305 35.5532 107.467 36.1917 107.467 36.9153C107.467 37.6389 107.301 38.2774 106.969 38.8308C106.645 39.3842 106.203 39.8141 105.641 40.1206C105.087 40.4185 104.466 40.5675 103.776 40.5675ZM103.776 39.0096C104.1 39.0096 104.402 38.933 104.683 38.7797C104.972 38.618 105.202 38.3796 105.373 38.0646C105.543 37.7496 105.628 37.3665 105.628 36.9153C105.628 36.2428 105.449 35.7277 105.092 35.3702C104.743 35.0041 104.313 34.8211 103.802 34.8211C103.291 34.8211 102.861 35.0041 102.512 35.3702C102.172 35.7277 102.001 36.2428 102.001 36.9153C102.001 37.5879 102.167 38.1072 102.499 38.4732C102.84 38.8308 103.266 39.0096 103.776 39.0096Z" fill="#18509E"/>
<path d="M98.9659 34.8466H97.7272V40.4525H95.9139V34.8466H95.1094V33.378H95.9139V33.0205C95.9139 32.1521 96.1608 31.5136 96.6545 31.105C97.1483 30.6963 97.8932 30.5048 98.8893 30.5303V32.0372C98.4551 32.0287 98.1529 32.101 97.9826 32.2543C97.8123 32.4075 97.7272 32.6842 97.7272 33.0843V33.378H98.9659V34.8466Z" fill="#18509E"/>
<path d="M90.6889 33.2759C91.5317 33.2759 92.2128 33.544 92.7321 34.0804C93.2514 34.6082 93.5111 35.3489 93.5111 36.3023V40.4526H91.7233V36.545C91.7233 35.9831 91.5828 35.5532 91.3019 35.2552C91.0209 34.9487 90.6378 34.7955 90.1526 34.7955C89.6588 34.7955 89.2672 34.9487 88.9777 35.2552C88.6968 35.5532 88.5563 35.9831 88.5563 36.545V40.4526H86.7686V33.378H88.5563V34.2592C88.7947 33.9527 89.0969 33.7143 89.463 33.544C89.8376 33.3653 90.2462 33.2759 90.6889 33.2759Z" fill="#18509E"/>
<path d="M84.4919 31.5392V40.4526H82.7041V31.5392H84.4919Z" fill="#18509E"/>
<path d="M118.033 22.8428C118.033 22.1277 118.173 21.4935 118.454 20.9401C118.744 20.3868 119.131 19.9611 119.616 19.6631C120.11 19.3652 120.659 19.2162 121.263 19.2162C121.791 19.2162 122.251 19.3226 122.643 19.5354C123.043 19.7483 123.362 20.0164 123.6 20.3399V19.3311H125.401V26.4056H123.6V25.3713C123.371 25.7033 123.051 25.98 122.643 26.2013C122.243 26.4142 121.779 26.5206 121.251 26.5206C120.655 26.5206 120.11 26.3673 119.616 26.0609C119.131 25.7544 118.744 25.3245 118.454 24.7711C118.173 24.2092 118.033 23.5665 118.033 22.8428ZM123.6 22.8684C123.6 22.4342 123.515 22.0639 123.345 21.7574C123.175 21.4424 122.945 21.204 122.655 21.0423C122.366 20.872 122.055 20.7869 121.723 20.7869C121.391 20.7869 121.085 20.8678 120.804 21.0295C120.523 21.1913 120.293 21.4296 120.114 21.7446C119.944 22.0511 119.859 22.4172 119.859 22.8428C119.859 23.2685 119.944 23.6431 120.114 23.9666C120.293 24.2816 120.523 24.5242 120.804 24.6945C121.093 24.8647 121.4 24.9499 121.723 24.9499C122.055 24.9499 122.366 24.869 122.655 24.7072C122.945 24.537 123.175 24.2986 123.345 23.9921C123.515 23.6771 123.6 23.3026 123.6 22.8684Z" fill="#18509E"/>
<path d="M113.459 19.2289C114.302 19.2289 114.983 19.4971 115.503 20.0334C116.022 20.5613 116.282 21.3019 116.282 22.2554V26.4056H114.494V22.498C114.494 21.9362 114.353 21.5062 114.072 21.2083C113.791 20.9018 113.408 20.7486 112.923 20.7486C112.429 20.7486 112.038 20.9018 111.748 21.2083C111.467 21.5062 111.327 21.9362 111.327 22.498V26.4056H109.539V19.3311H111.327V20.2122C111.565 19.9057 111.867 19.6674 112.234 19.4971C112.608 19.3183 113.017 19.2289 113.459 19.2289Z" fill="#18509E"/>
<path d="M99.9141 22.8428C99.9141 22.1277 100.055 21.4935 100.335 20.9401C100.625 20.3868 101.012 19.9611 101.498 19.6631C101.991 19.3652 102.54 19.2162 103.145 19.2162C103.673 19.2162 104.132 19.3226 104.524 19.5354C104.924 19.7483 105.243 20.0164 105.482 20.3399V19.3311H107.282V26.4056H105.482V25.3713C105.252 25.7033 104.933 25.98 104.524 26.2013C104.124 26.4142 103.66 26.5206 103.132 26.5206C102.536 26.5206 101.991 26.3673 101.498 26.0609C101.012 25.7544 100.625 25.3245 100.335 24.7711C100.055 24.2092 99.9141 23.5665 99.9141 22.8428ZM105.482 22.8684C105.482 22.4342 105.397 22.0639 105.226 21.7574C105.056 21.4424 104.826 21.204 104.537 21.0423C104.247 20.872 103.937 20.7869 103.605 20.7869C103.273 20.7869 102.966 20.8678 102.685 21.0295C102.404 21.1913 102.174 21.4296 101.996 21.7446C101.825 22.0511 101.74 22.4172 101.74 22.8428C101.74 23.2685 101.825 23.6431 101.996 23.9666C102.174 24.2816 102.404 24.5242 102.685 24.6945C102.975 24.8647 103.281 24.9499 103.605 24.9499C103.937 24.9499 104.247 24.869 104.537 24.7072C104.826 24.537 105.056 24.2986 105.226 23.9921C105.397 23.6771 105.482 23.3026 105.482 22.8684Z" fill="#18509E"/>
<path d="M98.0989 19.3311V26.4056H96.2984V25.5117C96.0685 25.8182 95.7663 26.0609 95.3917 26.2396C95.0257 26.4099 94.6255 26.495 94.1914 26.495C93.638 26.495 93.1485 26.3801 92.7228 26.1502C92.2972 25.9119 91.9609 25.5671 91.714 25.1159C91.4756 24.6562 91.3564 24.1113 91.3564 23.4813V19.3311H93.1442V23.2259C93.1442 23.7878 93.2847 24.222 93.5656 24.5285C93.8466 24.8264 94.2297 24.9754 94.7149 24.9754C95.2087 24.9754 95.596 24.8264 95.877 24.5285C96.1579 24.222 96.2984 23.7878 96.2984 23.2259V19.3311H98.0989Z" fill="#18509E"/>
<path d="M87.761 21.834C88.2633 21.9277 88.6762 22.1788 88.9997 22.5874C89.3232 22.9961 89.4849 23.4643 89.4849 23.9921C89.4849 24.4689 89.3657 24.8903 89.1274 25.2563C88.8975 25.6139 88.5612 25.8948 88.1185 26.0992C87.6758 26.3035 87.1523 26.4056 86.5478 26.4056H82.7041V17.4922H86.3818C86.9863 17.4922 87.5056 17.5902 87.9398 17.786C88.3824 17.9818 88.7145 18.2542 88.9358 18.6032C89.1657 18.9523 89.2806 19.3481 89.2806 19.7908C89.2806 20.3101 89.1401 20.7443 88.8592 21.0934C88.5868 21.4424 88.2207 21.6893 87.761 21.834ZM84.4919 21.17H86.1264C86.5521 21.17 86.8799 21.0763 87.1097 20.889C87.3396 20.6932 87.4545 20.4166 87.4545 20.059C87.4545 19.7014 87.3396 19.4248 87.1097 19.229C86.8799 19.0331 86.5521 18.9352 86.1264 18.9352H84.4919V21.17ZM86.2924 24.9499C86.7266 24.9499 87.0629 24.8477 87.3013 24.6434C87.5481 24.4391 87.6716 24.1496 87.6716 23.775C87.6716 23.3919 87.5439 23.094 87.2885 22.8811C87.0331 22.6598 86.6883 22.5491 86.2541 22.5491H84.4919V24.9499H86.2924Z" fill="#18509E"/>
<path d="M126.088 8.79596C126.088 8.08085 126.229 7.44661 126.51 6.89325C126.799 6.33989 127.187 5.91422 127.672 5.61626C128.166 5.31829 128.715 5.16931 129.319 5.16931C129.847 5.16931 130.307 5.27573 130.698 5.48856C131.098 5.70139 131.418 5.96956 131.656 6.29306V5.28424H133.457V12.3588H131.656V11.3244C131.426 11.6564 131.107 11.9331 130.698 12.1544C130.298 12.3673 129.834 12.4737 129.306 12.4737C128.71 12.4737 128.166 12.3205 127.672 12.014C127.187 11.7075 126.799 11.2776 126.51 10.7242C126.229 10.1623 126.088 9.51959 126.088 8.79596ZM131.656 8.8215C131.656 8.38733 131.571 8.017 131.401 7.71052C131.23 7.39553 131.001 7.15716 130.711 6.99541C130.422 6.82514 130.111 6.74001 129.779 6.74001C129.447 6.74001 129.14 6.82088 128.859 6.98264C128.579 7.14439 128.349 7.38276 128.17 7.69775C128 8.00423 127.914 8.3703 127.914 8.79596C127.914 9.22163 128 9.59621 128.17 9.91971C128.349 10.2347 128.579 10.4773 128.859 10.6476C129.149 10.8179 129.455 10.903 129.779 10.903C130.111 10.903 130.422 10.8221 130.711 10.6604C131.001 10.4901 131.23 10.2517 131.401 9.94525C131.571 9.63026 131.656 9.25568 131.656 8.8215Z" fill="#18509E"/>
<path d="M123.168 6.7528V10.1751C123.168 10.4135 123.223 10.588 123.334 10.6987C123.453 10.8009 123.649 10.8519 123.921 10.8519H124.751V12.3588H123.627C122.121 12.3588 121.367 11.6266 121.367 10.1624V6.7528H120.524V5.28427H121.367V3.53479H123.168V5.28427H124.751V6.7528H123.168Z" fill="#18509E"/>
<path d="M117.2 6.3825C117.43 6.00792 117.728 5.71421 118.094 5.50138C118.469 5.28854 118.895 5.18213 119.371 5.18213V7.0593H118.899C118.337 7.0593 117.911 7.19126 117.622 7.45517C117.341 7.71908 117.2 8.1788 117.2 8.83432V12.3588H115.413V5.28429H117.2V6.3825Z" fill="#18509E"/>
<path d="M105.788 8.79596C105.788 8.08085 105.928 7.44661 106.209 6.89325C106.498 6.33989 106.886 5.91422 107.371 5.61626C107.865 5.31829 108.414 5.16931 109.018 5.16931C109.546 5.16931 110.006 5.27573 110.398 5.48856C110.798 5.70139 111.117 5.96956 111.355 6.29306V5.28424H113.156V12.3588H111.355V11.3244C111.125 11.6564 110.806 11.9331 110.398 12.1544C109.997 12.3673 109.533 12.4737 109.006 12.4737C108.41 12.4737 107.865 12.3205 107.371 12.014C106.886 11.7075 106.498 11.2776 106.209 10.7242C105.928 10.1623 105.788 9.51959 105.788 8.79596ZM111.355 8.8215C111.355 8.38733 111.27 8.017 111.1 7.71052C110.93 7.39553 110.7 7.15716 110.41 6.99541C110.121 6.82514 109.81 6.74001 109.478 6.74001C109.146 6.74001 108.84 6.82088 108.559 6.98264C108.278 7.14439 108.048 7.38276 107.869 7.69775C107.699 8.00423 107.614 8.3703 107.614 8.79596C107.614 9.22163 107.699 9.59621 107.869 9.91971C108.048 10.2347 108.278 10.4773 108.559 10.6476C108.848 10.8179 109.155 10.903 109.478 10.903C109.81 10.903 110.121 10.8221 110.41 10.6604C110.7 10.4901 110.93 10.2517 111.1 9.94525C111.27 9.63026 111.355 9.25568 111.355 8.8215Z" fill="#18509E"/>
<path d="M101.141 5.18213C102.01 5.18213 102.708 5.4503 103.235 5.98663C103.772 6.51445 104.04 7.25511 104.04 8.20859V12.3588H102.252V8.45122C102.252 7.89786 102.112 7.47645 101.831 7.187C101.55 6.88904 101.167 6.74006 100.681 6.74006C100.196 6.74006 99.8088 6.88904 99.5194 7.187C99.2384 7.47645 99.098 7.89786 99.098 8.45122V12.3588H97.3102V8.45122C97.3102 7.89786 97.1697 7.47645 96.8888 7.187C96.6078 6.88904 96.2247 6.74006 95.7395 6.74006C95.2457 6.74006 94.8541 6.88904 94.5647 7.187C94.2837 7.47645 94.1433 7.89786 94.1433 8.45122V12.3588H92.3555V5.28429H94.1433V6.13987C94.3731 5.84191 94.6668 5.60779 95.0244 5.43753C95.3904 5.26726 95.7906 5.18213 96.2247 5.18213C96.7781 5.18213 97.2719 5.30131 97.7061 5.53969C98.1402 5.76954 98.4765 6.10156 98.7149 6.53574C98.9447 6.1271 99.2768 5.79934 99.7109 5.55246C100.154 5.30557 100.63 5.18213 101.141 5.18213Z" fill="#18509E"/>
<path d="M88.1694 10.6604H84.6194L84.032 12.3588H82.1548L85.36 3.43262H87.4415L90.6468 12.3588H88.7568L88.1694 10.6604ZM87.6841 9.23015L86.3944 5.50134L85.1046 9.23015H87.6841Z" fill="#18509E"/>
</svg>
